{
.appVersion = "3151";
.formatVersion = 3;
DisplayStrings = (
"RISD GRAD
SHOW 2024
AijBCDEFGHIJKLMNOPQRSTUVWXYZ"
);
axes = (
{
name = Burst;
tag = BRST;
}
);
customParameters = (
{
name = panose;
value = (
0,
0,
0,
0,
0,
0,
0,
0,
0,
0
);
},
{
name = unicodeRanges;
value = (
0,
1,
2,
3,
9,
31,
33,
35
);
},
{
name = codePageRanges;
value = (
"1252",
"1250",
"1251"
);
},
{
name = fsType;
value = (
2
);
},
{
name = glyphOrder;
value = (
.notdef,
uni0000,
CR,
space,
exclam,
quotedbl,
numbersign,
dollar,
percent,
ampersand,
quotesingle,
parenleft,
parenright,
asterisk,
plus,
comma,
hyphen,
period,
slash,
zero,
one,
two,
three,
four,
five,
six,
seven,
eight,
nine,
colon,
semicolon,
less,
equal,
greater,
question,
at,
A,
B,
C,
D,
E,
F,
G,
H,
I,
J,
K,
L,
M,
N,
O,
P,
Q,
R,
S,
T,
U,
V,
W,
X,
Y,
Z,
bracketleft,
backslash,
bracketright,
asciicircum,
underscore,
grave,
a,
b,
c,
d,
e,
f,
g,
h,
i,
j,
k,
l,
m,
n,
o,
p,
q,
r,
s,
t,
u,
v,
w,
x,
y,
z,
braceleft,
bar,
braceright,
asciitilde,
exclamdown,
cent,
currency,
yen,
brokenbar,
section,
copyright,
guillemotleft,
registered,
degree,
plusminus,
acute,
paragraph,
periodcentered,
guillemotright,
questiondown,
Agrave,
Aacute,
Acircumflex,
Atilde,
Adieresis,
Aring,
AE,
Ccedilla,
Egrave,
Eacute,
Ecircumflex,
Edieresis,
Igrave,
Iacute,
Icircumflex,
Idieresis,
Eth,
Ntilde,
Ograve,
Oacute,
Ocircumflex,
Otilde,
Odieresis,
multiply,
Oslash,
Ugrave,
Uacute,
Ucircumflex,
Udieresis,
Yacute,
Thorn,
germandbls,
agrave,
aacute,
acircumflex,
atilde,
adieresis,
aring,
ae,
ccedilla,
egrave,
eacute,
ecircumflex,
edieresis,
igrave,
iacute,
icircumflex,
idieresis,
eth,
ntilde,
ograve,
oacute,
ocircumflex,
otilde,
odieresis,
divide,
oslash,
ugrave,
uacute,
ucircumflex,
udieresis,
yacute,
thorn,
ydieresis,
Abreve,
abreve,
Aogonek,
aogonek,
Cacute,
cacute,
Ccaron,
ccaron,
Dcaron,
dcaron,
Dcroat,
dcroat,
Emacron,
Eogonek,
eogonek,
Ecaron,
ecaron,
Lacute,
lacute,
Lcaron,
lcaron,
Lslash,
lslash,
Nacute,
nacute,
Ncaron,
ncaron,
Ohungarumlaut,
ohungarumlaut,

glyphs = (
{
glyphname = .notdef;
lastChange = "2024-02-26 18:48:38 +0000";
layers = (
{
layerId = m01;
shapes = (
{
closed = 1;
nodes = (
(298,666,l),
(33,666,l),
(33,0,l),
(298,0,l)
);
},
{
closed = 1;
nodes = (
(265,633,l),
(265,33,l),
(66,33,l),
(66,633,l)
);
}
);
userData = {
assembly = "PUSHB[ ]	/* 2 values pushed */
1 0 
MDAP[1]	/* MoveDirectAbsPt */
ALIGNRP[ ]	/* AlignRelativePt */
PUSHB[ ]	/* 3 values pushed */
7 4 0 
MIRP[01101]	/* MoveIndirectRelPt */
SHP[0]	/* ShiftPointByLastPoint */
PUSHB[ ]	/* 2 values pushed */
6 5 
MDRP[11100]	/* MoveDirectRelPt */
ALIGNRP[ ]	/* AlignRelativePt */
PUSHB[ ]	/* 3 values pushed */
3 2 0 
MIRP[01101]	/* MoveIndirectRelPt */
SHP[0]	/* ShiftPointByLastPoint */
SVTCA[0]	/* SetFreedomAndProjectionVectorToAxis */
PUSHB[ ]	/* 2 values pushed */
3 0 
MDAP[1]	/* MoveDirectAbsPt */
ALIGNRP[ ]	/* AlignRelativePt */
PUSHB[ ]	/* 3 values pushed */
5 4 0 
MIRP[01101]	/* MoveIndirectRelPt */
SHP[0]	/* ShiftPointByLastPoint */
PUSHB[ ]	/* 3 values pushed */
7 6 1 
MIRP[11100]	/* MoveIndirectRelPt */
ALIGNRP[ ]	/* AlignRelativePt */
PUSHB[ ]	/* 3 values pushed */
1 2 0 
MIRP[01101]	/* MoveIndirectRelPt */
SHP[0]	/* ShiftPointByLastPoint */";
};
width = 364;
},
{
layerId = "56AAED68-C834-4DF9-BF24-1C0C08D215EB";
shapes = (
{
closed = 1;
nodes = (
(298,666,l),
(33,666,l),
(33,0,l),
(298,0,l)
);
},
{
closed = 1;
nodes = (
(265,633,l),
(265,33,l),
(66,33,l),
(66,633,l)
);
}
);
userData = {
assembly = "PUSHB[ ]	/* 2 values pushed */
1 0 
MDAP[1]	/* MoveDirectAbsPt */
ALIGNRP[ ]	/* AlignRelativePt */
PUSHB[ ]	/* 3 values pushed */
7 4 0 
MIRP[01101]	/* MoveIndirectRelPt */
SHP[0]	/* ShiftPointByLastPoint */
PUSHB[ ]	/* 2 values pushed */
6 5 
MDRP[11100]	/* MoveDirectRelPt */
ALIGNRP[ ]	/* AlignRelativePt */
PUSHB[ ]	/* 3 values pushed */
3 2 0 
MIRP[01101]	/* MoveIndirectRelPt */
SHP[0]	/* ShiftPointByLastPoint */
SVTCA[0]	/* SetFreedomAndProjectionVectorToAxis */
PUSHB[ ]	/* 2 values pushed */
3 0 
MDAP[1]	/* MoveDirectAbsPt */
ALIGNRP[ ]	/* AlignRelativePt */
PUSHB[ ]	/* 3 values pushed */
5 4 0 
MIRP[01101]	/* MoveIndirectRelPt */
SHP[0]	/* ShiftPointByLastPoint */
PUSHB[ ]	/* 3 values pushed */
7 6 1 
MIRP[11100]	/* MoveIndirectRelPt */
ALIGNRP[ ]	/* AlignRelativePt */
PUSHB[ ]	/* 3 values pushed */
1 2 0 
MIRP[01101]	/* MoveIndirectRelPt */
SHP[0]	/* ShiftPointByLastPoint */";
};
width = 364;
}
);
note = ".notdef";
},
{
glyphname = uni0000;
lastChange = "2024-02-26 18:48:38 +0000";
layers = (
{
layerId = m01;
shapes = (
{
closed = 1;
nodes = (
(438,0,l),
(588,0,l),
(588,520,l),
(244,521,l),
(244,670,l),
(94,670,l),
(94,521,l),
(20,521,l),
(20,401,l),
(94,401,l),
(94,148,l),
(128,27,l),
(246,-17,l),
(358,3,l),
(334,122,l),
(292,116,l),
(250,138,l),
(244,194,l),
(244,401,l),
(438,401,l)
);
},
{
closed = 1;
nodes = (
(433,619,l)
);
},
{
closed = 1;
nodes = (
(594,686,l),
(547,733,l),
(480,733,l),
(433,686,l),
(433,619,l),
(480,572,l),
(547,572,l),
(594,619,l)
);
}
);
width = 643;
},
{
layerId = "56AAED68-C834-4DF9-BF24-1C0C08D215EB";
shapes = (
{
closed = 1;
nodes = (
(438,0,l),
(588,0,l),
(588,520,l),
(244,521,l),
(244,670,l),
(94,670,l),
(94,521,l),
(20,521,l),
(20,401,l),
(94,401,l),
(94,148,l),
(128,27,l),
(246,-17,l),
(358,3,l),
(334,122,l),
(292,116,l),
(250,138,l),
(244,194,l),
(244,401,l),
(438,401,l)
);
},
{
closed = 1;
nodes = (
(433,619,l)
);
},
{
closed = 1;
nodes = (
(594,686,l),
(547,733,l),
(480,733,l),
(433,686,l),
(433,619,l),
(480,572,l),
(547,572,l),
(594,619,l)
);
}
);
width = 643;
}
);
note = uni0000;
},
{
glyphname = exclam;
lastChange = "2024-02-26 18:48:38 +0000";
layers = (
{
layerId = m01;
shapes = (
{
closed = 1;
nodes = (
(50,42,l)
);
},
{
closed = 1;
nodes = (
(212,108,l),
(165,155,l),
(97,155,l),
(50,108,l),
(50,42,l),
(97,-5,l),
(165,-5,l),
(212,42,l)
);
},
{
closed = 1;
nodes = (
(51,720,l),
(73,228,l),
(189,228,l),
(210,720,l)
);
}
);
width = 261;
},
{
layerId = "56AAED68-C834-4DF9-BF24-1C0C08D215EB";
shapes = (
{
closed = 1;
nodes = (
(50,42,l)
);
},
{
closed = 1;
nodes = (
(212,108,l),
(165,155,l),
(97,155,l),
(50,108,l),
(50,42,l),
(97,-5,l),
(165,-5,l),
(212,42,l)
);
},
{
closed = 1;
nodes = (
(51,720,l),
(73,228,l),
(189,228,l),
(210,720,l)
);
}
);
width = 261;
}
);
note = exclam;
unicode = 33;
},
{
glyphname = quotedbl;
lastChange = "2024-02-26 18:48:38 +0000";
layers = (
{
layerId = m01;
shapes = (
{
closed = 1;
nodes = (
(50,720,l),
(72,482,l),
(188,482,l),
(209,720,l)
);
},
{
closed = 1;
nodes = (
(250,720,l),
(272,482,l),
(388,482,l),
(409,720,l)
);
}
);
width = 459;
},
{
layerId = "56AAED68-C834-4DF9-BF24-1C0C08D215EB";
shapes = (
{
closed = 1;
nodes = (
(50,720,l),
(72,482,l),
(188,482,l),
(209,720,l)
);
},
{
closed = 1;
nodes = (
(250,720,l),
(272,482,l),
(388,482,l),
(409,720,l)
);
}
);
width = 459;
}
);
note = quotedbl;
unicode = 34;
},
{
glyphname = numbersign;
lastChange = "2024-02-26 18:48:38 +0000";
layers = (
{
layerId = m01;
shapes = (
{
closed = 1;
nodes = (
(641,175,l),
(641,300,l),
(534,300,l),
(570,425,l),
(705,425,l),
(705,550,l),
(606,550,l),
(646,687,l),
(507,728,l),
(456,550,l),
(366,550,l),
(406,688,l),
(267,728,l),
(216,550,l),
(73,550,l),
(73,425,l),
(180,425,l),
(145,300,l),
(9,300,l),
(9,175,l),
(109,175,l),
(68,32,l),
(206,-8,l),
(258,175,l),
(349,175,l),
(308,32,l),
(446,-8,l),
(498,175,l)
);
},
{
closed = 1;
nodes = (
(385,300,l),
(294,300,l),
(330,425,l),
(420,425,l)
);
}
);
width = 719;
},
{
layerId = "56AAED68-C834-4DF9-BF24-1C0C08D215EB";
shapes = (
{
closed = 1;
nodes = (
(641,175,l),
(641,300,l),
(534,300,l),
(570,425,l),
(705,425,l),
(705,550,l),
(606,550,l),
(646,687,l),
(507,728,l),
(456,550,l),
(366,550,l),
(406,688,l),
(267,728,l),
(216,550,l),
(73,550,l),
(73,425,l),
(180,425,l),
(145,300,l),
(9,300,l),
(9,175,l),
(109,175,l),
(68,32,l),
(206,-8,l),
(258,175,l),
(349,175,l),
(308,32,l),
(446,-8,l),
(498,175,l)
);
},
{
closed = 1;
nodes = (
(385,300,l),
(294,300,l),
(330,425,l),
(420,425,l)
);
}
);
width = 719;
}
);
note = numbersign;
unicode = 35;
},
{
glyphname = dollar;
lastChange = "2024-02-26 18:48:38 +0000";
layers = (
{
layerId = m01;
shapes = (
{
closed = 1;
nodes = (
(99,679,l),
(34,519,l),
(73,392,l),
(251,306,l),
(251,124,l),
(195,159,l),
(170,236,l),
(27,191,l),
(78,56,l),
(251,-21,l),
(251,-100,l),
(325,-100,l),
(325,-22,l),
(491,42,l),
(566,206,l),
(497,372,l),
(325,447,l),
(325,592,l),
(365,561,l),
(382,510,l),
(525,559,l),
(480,674,l),
(325,739,l),
(325,820,l),
(251,820,l),
(251,741,l)
);
},
{
closed = 1;
nodes = (
(191,533,l),
(206,573,l),
(251,597,l),
(251,461,l),
(203,491,l)
);
},
{
closed = 1;
nodes = (
(399,201,l),
(378,147,l),
(326,122,l),
(326,290,l),
(354,276,l),
(388,244,l)
);
}
);
width = 592;
},
{
layerId = "56AAED68-C834-4DF9-BF24-1C0C08D215EB";
shapes = (
{
closed = 1;
nodes = (
(99,679,l),
(34,519,l),
(73,392,l),
(251,306,l),
(251,124,l),
(195,159,l),
(170,236,l),
(27,191,l),
(78,56,l),
(251,-21,l),
(251,-100,l),
(325,-100,l),
(325,-22,l),
(491,42,l),
(566,206,l),
(497,372,l),
(325,447,l),
(325,592,l),
(365,561,l),
(382,510,l),
(525,559,l),
(480,674,l),
(325,739,l),
(325,820,l),
(251,820,l),
(251,741,l)
);
},
{
closed = 1;
nodes = (
(191,533,l),
(206,573,l),
(251,597,l),
(251,461,l),
(203,491,l)
);
},
{
closed = 1;
nodes = (
(399,201,l),
(378,147,l),
(326,122,l),
(326,290,l),
(354,276,l),
(388,244,l)
);
}
);
width = 592;
}
);
note = dollar;
unicode = 36;
},
{
glyphname = percent;
lastChange = "2024-02-26 18:48:38 +0000";
layers = (
{
layerId = m01;
shapes = (
{
closed = 1;
nodes = (
(30,574,l),
(79,444,l),
(197,397,l),
(315,444,l),
(364,574,l),
(315,704,l),
(197,750,l),
(79,704,l)
);
},
{
closed = 1;
nodes = (
(144,574,l),
(162,624,l),
(197,638,l),
(232,624,l),
(249,574,l),
(232,524,l),
(197,510,l),
(162,524,l)
);
},
{
closed = 1;
nodes = (
(719,745,q),
(569,745,l),
(363,360,o),
(156,-25,q),
(305,-25,l),
(512,360,o)
);
},
{
closed = 1;
nodes = (
(511,146,l),
(560,16,l),
(678,-31,l),
(796,16,l),
(845,146,l),
(796,276,l),
(678,323,l),
(560,276,l)
);
},
{
closed = 1;
nodes = (
(626,146,l),
(643,196,l),
(678,210,l),
(713,196,l),
(731,146,l),
(713,96,l),
(678,82,l),
(643,96,l)
);
}
);
width = 1000;
},
{
layerId = "56AAED68-C834-4DF9-BF24-1C0C08D215EB";
shapes = (
{
closed = 1;
nodes = (
(30,574,l),
(79,444,l),
(197,397,l),
(315,444,l),
(364,574,l),
(315,704,l),
(197,750,l),
(79,704,l)
);
},
{
closed = 1;
nodes = (
(144,574,l),
(162,624,l),
(197,638,l),
(232,624,l),
(249,574,l),
(232,524,l),
(197,510,l),
(162,524,l)
);
},
{
closed = 1;
nodes = (
(719,745,q),
(569,745,l),
(363,360,o),
(156,-25,q),
(305,-25,l),
(512,360,o)
);
},
{
closed = 1;
nodes = (
(511,146,l),
(560,16,l),
(678,-31,l),
(796,16,l),
(845,146,l),
(796,276,l),
(678,323,l),
(560,276,l)
);
},
{
closed = 1;
nodes = (
(626,146,l),
(643,196,l),
(678,210,l),
(713,196,l),
(731,146,l),
(713,96,l),
(678,82,l),
(643,96,l)
);
}
);
width = 1000;
}
);
note = percent;
unicode = 37;
},
{
glyphname = ampersand;
lastChange = "2024-02-26 18:48:38 +0000";
layers = (
{
layerId = m01;
shapes = (
{
closed = 1;
nodes = (
(518,128,l),
(552,234,l),
(559,347,l),
(428,347,l),
(429,296,l),
(423,243,l),
(331,358,l),
(387,397,l),
(456,473,l),
(478,564,l),
(437,683,l),
(286,743,l),
(140,692,l),
(82,554,l),
(107,447,l),
(151,381,l),
(73,301,l),
(40,181,l),
(97,36,l),
(267,-22,l),
(362,-8,l),
(437,31,l),
(476,-16,l),
(569,64,l)
);
},
{
closed = 1;
nodes = (
(179,191,l),
(192,246,l),
(226,290,l),
(359,127,l),
(319,107,l),
(270,100,l),
(208,123,l)
);
},
{
closed = 1;
nodes = (
(215,554,l),
(233,599,l),
(283,620,l),
(327,604,l),
(344,564,l),
(328,513,l),
(257,453,l),
(224,506,l)
);
}
);
width = 598;
},
{
layerId = "56AAED68-C834-4DF9-BF24-1C0C08D215EB";
shapes = (
{
closed = 1;
nodes = (
(518,128,l),
(552,234,l),
(559,347,l),
(428,347,l),
(429,296,l),
(423,243,l),
(331,358,l),
(387,397,l),
(456,473,l),
(478,564,l),
(437,683,l),
(286,743,l),
(140,692,l),
(82,554,l),
(107,447,l),
(151,381,l),
(73,301,l),
(40,181,l),
(97,36,l),
(267,-22,l),
(362,-8,l),
(437,31,l),
(476,-16,l),
(569,64,l)
);
},
{
closed = 1;
nodes = (
(179,191,l),
(192,246,l),
(226,290,l),
(359,127,l),
(319,107,l),
(270,100,l),
(208,123,l)
);
},
{
closed = 1;
nodes = (
(215,554,l),
(233,599,l),
(283,620,l),
(327,604,l),
(344,564,l),
(328,513,l),
(257,453,l),
(224,506,l)
);
}
);
width = 598;
}
);
note = ampersand;
unicode = 38;
},
{
glyphname = quotesingle;
lastChange = "2024-02-26 18:48:38 +0000";
layers = (
{
layerId = m01;
shapes = (
{
closed = 1;
nodes = (
(161,726,l),
(96,726,l),
(50,680,l),
(50,616,l),
(96,570,l),
(130,570,l),
(113,506,l),
(67,471,l),
(113,413,l),
(116,415,l),
(178,465,l),
(207,570,l),
(207,680,l)
);
}
);
width = 257;
},
{
layerId = "56AAED68-C834-4DF9-BF24-1C0C08D215EB";
shapes = (
{
closed = 1;
nodes = (
(161,726,l),
(96,726,l),
(50,680,l),
(50,616,l),
(96,570,l),
(130,570,l),
(113,506,l),
(67,471,l),
(113,413,l),
(116,415,l),
(178,465,l),
(207,570,l),
(207,680,l)
);
}
);
width = 257;
}
);
note = quotesingle;
unicode = 39;
},
{
glyphname = parenleft;
lastChange = "2024-02-26 18:48:38 +0000";
layers = (
{
layerId = m01;
shapes = (
{
closed = 1;
nodes = (
(50,360,l),
(97,104,l),
(232,-109,l),
(327,-50,l),
(242,110,l),
(208,360,l),
(242,610,l),
(326,769,l),
(232,829,l),
(97,616,l)
);
}
);
width = 326;
},
{
layerId = "56AAED68-C834-4DF9-BF24-1C0C08D215EB";
shapes = (
{
closed = 1;
nodes = (
(50,360,l),
(97,104,l),
(232,-109,l),
(327,-50,l),
(242,110,l),
(208,360,l),
(242,610,l),
(326,769,l),
(232,829,l),
(97,616,l)
);
}
);
width = 326;
}
);
note = parenleft;
unicode = 40;
},
{
glyphname = parenright;
lastChange = "2024-02-26 18:48:38 +0000";
layers = (
{
layerId = m01;
shapes = (
{
closed = 1;
nodes = (
(277,359,l),
(230,615,l),
(95,828,l),
(0,769,l),
(84,609,l),
(118,359,l),
(84,109,l),
(1,-50,l),
(95,-110,l),
(230,103,l)
);
}
);
width = 326;
},
{
layerId = "56AAED68-C834-4DF9-BF24-1C0C08D215EB";
shapes = (
{
closed = 1;
nodes = (
(277,359,l),
(230,615,l),
(95,828,l),
(0,769,l),
(84,609,l),
(118,359,l),
(84,109,l),
(1,-50,l),
(95,-110,l),
(230,103,l)
);
}
);
width = 326;
}
);
note = parenright;
unicode = 41;
},
{
glyphname = asterisk;
lastChange = "2024-02-26 18:48:38 +0000";
layers = (
{
layerId = m01;
shapes = (
{
closed = 1;
nodes = (
(158,637,l),
(68,686,l),
(30,568,l),
(130,554,l),
(56,482,l),
(157,409,l),
(202,502,l),
(246,408,l),
(347,481,l),
(274,553,l),
(376,566,l),
(338,684,l),
(246,636,l),
(266,738,l),
(141,738,l)
);
}
);
width = 405;
},
{
layerId = "56AAED68-C834-4DF9-BF24-1C0C08D215EB";
shapes = (
{
closed = 1;
nodes = (
(158,637,l),
(68,686,l),
(30,568,l),
(130,554,l),
(56,482,l),
(157,409,l),
(202,502,l),
(246,408,l),
(347,481,l),
(274,553,l),
(376,566,l),
(338,684,l),
(246,636,l),
(266,738,l),
(141,738,l)
);
}
);
width = 405;
}
);
note = asterisk;
unicode = 42;
},
{
glyphname = plus;
lastChange = "2024-02-26 18:48:38 +0000";
layers = (
{
layerId = m01;
shapes = (
{
closed = 1;
nodes = (
(546,425,l),
(365,425,l),
(365,610,l),
(230,610,l),
(230,425,l),
(50,425,l),
(50,300,l),
(230,300,l),
(230,114,l),
(365,114,l),
(365,300,l),
(546,300,l)
);
}
);
width = 596;
},
{
layerId = "56AAED68-C834-4DF9-BF24-1C0C08D215EB";
shapes = (
{
closed = 1;
nodes = (
(546,425,l),
(365,425,l),
(365,610,l),
(230,610,l),
(230,425,l),
(50,425,l),
(50,300,l),
(230,300,l),
(230,114,l),
(365,114,l),
(365,300,l),
(546,300,l)
);
}
);
width = 596;
}
);
note = plus;
unicode = 43;
},
{
glyphname = comma;
lastChange = "2024-02-26 18:48:38 +0000";
layers = (
{
layerId = m01;
shapes = (
{
closed = 1;
nodes = (
(161,150,l),
(96,150,l),
(50,104,l),
(50,40,l),
(96,-6,l),
(130,-6,l),
(113,-70,l),
(67,-105,l),
(113,-163,l),
(116,-161,l),
(178,-112,l),
(207,-6,l),
(207,104,l)
);
}
);
width = 257;
},
{
layerId = "56AAED68-C834-4DF9-BF24-1C0C08D215EB";
shapes = (
{
closed = 1;
nodes = (
(161,150,l),
(96,150,l),
(50,104,l),
(50,40,l),
(96,-6,l),
(130,-6,l),
(113,-70,l),
(67,-105,l),
(113,-163,l),
(116,-161,l),
(178,-112,l),
(207,-6,l),
(207,104,l)
);
}
);
width = 257;
}
);
note = comma;
unicode = 44;
},
{
glyphname = hyphen;
lastChange = "2024-02-26 18:48:38 +0000";
layers = (
{
layerId = m01;
shapes = (
{
closed = 1;
nodes = (
(50,328,l),
(50,192,l),
(320,192,l),
(320,328,l)
);
}
);
width = 370;
},
{
layerId = "56AAED68-C834-4DF9-BF24-1C0C08D215EB";
shapes = (
{
closed = 1;
nodes = (
(50,328,l),
(50,192,l),
(320,192,l),
(320,328,l)
);
}
);
width = 370;
}
);
note = hyphen;
unicode = 45;
},
{
glyphname = period;
lastChange = "2024-02-26 18:48:38 +0000";
layers = (
{
layerId = m01;
shapes = (
{
closed = 1;
nodes = (
(44,42,l)
);
},
{
closed = 1;
nodes = (
(206,108,l),
(159,155,l),
(91,155,l),
(44,108,l),
(44,42,l),
(91,-5,l),
(159,-5,l),
(206,42,l)
);
}
);
width = 266;
},
{
layerId = "56AAED68-C834-4DF9-BF24-1C0C08D215EB";
shapes = (
{
closed = 1;
nodes = (
(44,42,l)
);
},
{
closed = 1;
nodes = (
(206,108,l),
(159,155,l),
(91,155,l),
(44,108,l),
(44,42,l),
(91,-5,l),
(159,-5,l),
(206,42,l)
);
}
);
width = 266;
}
);
note = period;
unicode = 46;
},
{
glyphname = slash;
lastChange = "2024-02-26 18:48:38 +0000";
layers = (
{
layerId = m01;
shapes = (
{
closed = 1;
nodes = (
(237,820,l),
(0,-66,l),
(144,-104,l),
(381,782,l)
);
}
);
width = 381;
},
{
layerId = "56AAED68-C834-4DF9-BF24-1C0C08D215EB";
shapes = (
{
closed = 1;
nodes = (
(237,820,l),
(0,-66,l),
(144,-104,l),
(381,782,l)
);
}
);
width = 381;
}
);
note = slash;
unicode = 47;
},
{
glyphname = zero;
lastChange = "2024-02-26 18:52:51 +0000";
layers = (
{
layerId = m01;
shapes = (
{
closed = 1;
nodes = (
(1919,2453,l),
(2051,2601,l),
(2036,2527,l),
(2173,2551,l),
(2189,2710,l),
(2029,2883,l),
(1904,2861,l),
(1924,2737,l),
(1988,2762,l),
(2023,2736,l),
(1872,2568,l)
);
},
{
closed = 1;
nodes = (
(2515,-1482,l),
(2629,-1457,l),
(2763,-1214,l),
(2769,-1096,l),
(2634,-1127,l),
(2625,-1175,l),
(2544,-1339,l),
(2491,-1362,l)
);
},
{
closed = 1;
nodes = (
(-1665,932,l),
(-1696,974,l),
(-1761,1145,l),
(-1743,1192,l),
(-1850,1257,l),
(-1905,1164,l),
(-1818,900,l),
(-1695,773,l)
);
},
{
closed = 1;
nodes = (
(-566,-1304,l),
(-576,-1403,l),
(-417,-1575,l),
(-300,-1554,l),
(-318,-1432,l),
(-376,-1454,l),
(-413,-1428,l),
(-282,-1280,l),
(-329,-1165,l),
(-441,-1292,l),
(-426,-1223,l)
);
}
);
width = 601;
},
{
layerId = "56AAED68-C834-4DF9-BF24-1C0C08D215EB";
shapes = (
{
closed = 1;
nodes = (
(332,300,l),
(410,483,l),
(419,408,l),
(541,475,l),
(505,631,l),
(298,743,l),
(187,682,l),
(245,571,l),
(298,615,l),
(340,602,l),
(251,394,l)
);
},
{
closed = 1;
nodes = (
(402,34,l),
(505,90,l),
(567,360,l),
(541,475,l),
(419,408,l),
(424,360,l),
(391,180,l),
(346,144,l)
);
},
{
closed = 1;
nodes = (
(178,308,l),
(173,360,l),
(206,540,l),
(245,571,l),
(187,682,l),
(92,631,l),
(30,360,l),
(70,187,l)
);
},
{
closed = 1;
nodes = (
(70,187,l),
(92,90,l),
(298,-23,l),
(402,34,l),
(346,144,l),
(298,105,l),
(255,118,l),
(332,300,l),
(251,394,l),
(185,238,l),
(178,308,l)
);
}
);
width = 601;
}
);
note = zero;
unicode = 48;
},
{
glyphname = one;
lastChange = "2024-02-26 18:58:51 +0000";
layers = (
{
layerId = m01;
shapes = (
{
closed = 1;
nodes = (
(430,0,l),
(430,720,o),
(430,720,q),
(326,720,l),
(265,605,l),
(125,538,l),
(186,410,l),
(230,419,l),
(275,465,l),
(275,0,l)
);
},
{
closed = 1;
nodes = (
(430,1,l)
);
}
);
width = 610;
},
{
layerId = "56AAED68-C834-4DF9-BF24-1C0C08D215EB";
shapes = (
{
closed = 1;
nodes = (
(430,0,l),
(430,720,o),
(430,720,q),
(326,720,l),
(265,605,l),
(125,538,l),
(186,410,l),
(230,419,l),
(275,465,l),
(275,0,l)
);
},
{
closed = 1;
nodes = (
(430,1,l)
);
}
);
width = 610;
}
);
note = one;
unicode = 49;
},
{
glyphname = two;
lastChange = "2024-02-26 18:52:32 +0000";
layers = (
{
layerId = m01;
shapes = (
{
closed = 1;
nodes = (
(2145,2184,l),
(2155,2243,l),
(2060,2395,l),
(1886,2417,l),
(1816,2377,l),
(1872,2255,l),
(1910,2277,l),
(1970,2270,l),
(2005,2218,l),
(1997,2176,l)
);
},
{
closed = 1;
nodes = (
(-1916,2283,l),
(-2018,2295,l),
(-2129,2196,l),
(-2032,2095,l),
(-1968,2155,l),
(-1943,2152,l)
);
},
{
closed = 1;
nodes = (
(3157,-542,l),
(3189,-497,l),
(3274,-357,l),
(3281,-262,l),
(3135,-285,l),
(3132,-327,l),
(3063,-434,l),
(3008,-530,l)
);
},
{
closed = 1;
nodes = (
(-2109,-1839,l),
(-2241,-1938,l),
(-2253,-1881,l),
(-2238,-1827,l),
(-2381,-1868,l),
(-2395,-1962,l),
(-2373,-2037,l),
(-2286,-2153,l),
(-2102,-2015,l)
);
},
{
closed = 1;
nodes = (
(2252,-2091,l),
(2449,-1998,l),
(2388,-1867,l),
(2281,-1917,l)
);
}
);
width = 605;
},
{
layerId = "56AAED68-C834-4DF9-BF24-1C0C08D215EB";
shapes = (
{
closed = 1;
nodes = (
(511,466,l),
(532,523,l),
(466,689,l),
(299,742,l),
(223,715,l),
(256,585,l),
(297,600,l),
(355,582,l),
(380,525,l),
(365,485,l)
);
},
{
closed = 1;
nodes = (
(223,715,l),
(126,681,l),
(70,543,l),
(201,495,l),
(232,577,l),
(256,585,l)
);
},
{
closed = 1;
nodes = (
(314,232,l),
(357,266,l),
(478,377,l),
(511,466,l),
(365,485,l),
(350,445,l),
(254,362,l),
(175,285,l)
);
},
{
closed = 1;
nodes = (
(410,145,l),
(245,145,l),
(270,198,l),
(314,232,l),
(175,285,l),
(107,218,l),
(80,145,l),
(80,0,l),
(310,0,l)
);
},
{
closed = 1;
nodes = (
(310,0,l),
(528,0,l),
(528,145,l),
(410,145,l)
);
}
);
width = 605;
}
);
note = two;
unicode = 50;
},
{
glyphname = three;
lastChange = "2024-02-26 18:48:38 +0000";
layers = (
{
layerId = m01;
shapes = (
{
closed = 1;
nodes = (
(229,461,l),
(229,326,l),
(279,326,l),
(360,295,l),
(385,217,l),
(357,145,l),
(291,120,l),
(229,142,l),
(201,199,l),
(50,135,l),
(117,34,l),
(291,-23,l),
(469,39,l),
(539,207,l),
(504,332,l),
(402,400,l),
(483,455,l),
(512,554,l),
(446,695,l),
(289,743,l),
(134,688,l),
(73,566,l),
(209,521,l),
(231,589,l),
(287,613,l),
(336,595,l),
(354,542,l),
(337,485,l),
(276,461,l)
);
}
);
width = 603;
},
{
layerId = "56AAED68-C834-4DF9-BF24-1C0C08D215EB";
shapes = (
{
closed = 1;
nodes = (
(229,461,l),
(229,326,l),
(279,326,l),
(360,295,l),
(385,217,l),
(357,145,l),
(291,120,l),
(229,142,l),
(201,199,l),
(50,135,l),
(117,34,l),
(291,-23,l),
(469,39,l),
(539,207,l),
(504,332,l),
(402,400,l),
(483,455,l),
(512,554,l),
(446,695,l),
(289,743,l),
(134,688,l),
(73,566,l),
(209,521,l),
(231,589,l),
(287,613,l),
(336,595,l),
(354,542,l),
(337,485,l),
(276,461,l)
);
}
);
width = 603;
}
);
note = three;
unicode = 51;
},
{
glyphname = four;
lastChange = "2024-02-26 18:53:04 +0000";
layers = (
{
layerId = m01;
shapes = (
{
closed = 1;
nodes = (
(1750,2009,l),
(1809,2064,l),
(1772,1914,l),
(1930,1908,l),
(2017,2260,l),
(1882,2293,l),
(1701,2129,l)
);
},
{
closed = 1;
nodes = (
(-1651,744,l),
(-1694,726,l),
(-1663,880,l),
(-1773,949,l),
(-1834,672,l),
(-1782,541,l),
(-1640,597,l)
);
},
{
closed = 1;
nodes = (
(1753,-1149,l),
(1863,-1088,l),
(1932,-1211,l),
(2067,-1135,l),
(1998,-1012,l),
(2074,-970,l),
(2006,-847,l),
(1930,-890,l),
(1893,-823,l),
(1773,-926,l),
(1795,-965,l),
(1723,-1005,l)
);
}
);
width = 596;
},
{
layerId = "56AAED68-C834-4DF9-BF24-1C0C08D215EB";
shapes = (
{
closed = 1;
nodes = (
(275,412,l),
(319,480,l),
(319,326,l),
(474,358,l),
(474,720,l),
(335,720,l),
(199,517,l)
);
},
{
closed = 1;
nodes = (
(237,281,l),
(190,281,l),
(275,412,l),
(199,517,l),
(40,281,l),
(40,141,l),
(193,141,l)
);
},
{
closed = 1;
nodes = (
(193,141,l),
(319,141,l),
(319,0,l),
(474,0,l),
(474,141,l),
(561,141,l),
(561,281,l),
(474,281,l),
(474,358,l),
(319,326,l),
(319,281,l),
(237,281,l)
);
}
);
width = 596;
}
);
note = four;
unicode = 52;
},
{
glyphname = five;
lastChange = "2024-02-26 18:48:38 +0000";
layers = (
{
layerId = m01;
shapes = (
{
closed = 1;
nodes = (
(107,32,l),
(279,-22,l),
(479,56,l),
(549,248,l),
(488,432,l),
(311,508,l),
(245,497,l),
(200,471,l),
(220,575,l),
(493,575,l),
(494,720,l),
(108,720,l),
(40,328,l),
(186,307,l),
(224,350,l),
(282,365,l),
(362,332,l),
(389,248,l),
(363,157,l),
(282,121,l),
(212,145,l),
(178,212,l),
(48,146,l)
);
}
);
width = 604;
},
{
layerId = "56AAED68-C834-4DF9-BF24-1C0C08D215EB";
shapes = (
{
closed = 1;
nodes = (
(107,32,l),
(279,-22,l),
(479,56,l),
(549,248,l),
(488,432,l),
(311,508,l),
(245,497,l),
(200,471,l),
(220,575,l),
(493,575,l),
(494,720,l),
(108,720,l),
(40,328,l),
(186,307,l),
(224,350,l),
(282,365,l),
(362,332,l),
(389,248,l),
(363,157,l),
(282,121,l),
(212,145,l),
(178,212,l),
(48,146,l)
);
}
);
width = 604;
}
);
note = five;
unicode = 53;
},
{
glyphname = six;
lastChange = "2024-02-26 18:48:38 +0000";
layers = (
{
layerId = m01;
shapes = (
{
closed = 1;
nodes = (
(469,691,l),
(324,743,l),
(132,640,l),
(63,335,l),
(96,184,l),
(119,81,l),
(321,-23,l),
(492,53,l),
(552,230,l),
(495,395,l),
(328,464,l),
(260,450,l),
(210,410,l),
(240,550,l),
(319,605,l),
(372,586,l),
(402,530,l),
(524,586,l)
);
},
{
closed = 1;
nodes = (
(214,223,l),
(242,297,l),
(313,326,l),
(384,297,l),
(412,223,l),
(384,149,l),
(313,120,l),
(240,149,l)
);
}
);
width = 614;
},
{
layerId = "56AAED68-C834-4DF9-BF24-1C0C08D215EB";
shapes = (
{
closed = 1;
nodes = (
(469,691,l),
(324,743,l),
(132,640,l),
(63,335,l),
(96,184,l),
(119,81,l),
(321,-23,l),
(492,53,l),
(552,230,l),
(495,395,l),
(328,464,l),
(260,450,l),
(210,410,l),
(240,550,l),
(319,605,l),
(372,586,l),
(402,530,l),
(524,586,l)
);
},
{
closed = 1;
nodes = (
(214,223,l),
(242,297,l),
(313,326,l),
(384,297,l),
(412,223,l),
(384,149,l),
(313,120,l),
(240,149,l)
);
}
);
width = 614;
}
);
note = six;
unicode = 54;
},
{
glyphname = seven;
lastChange = "2024-02-26 18:48:38 +0000";
layers = (
{
layerId = m01;
shapes = (
{
closed = 1;
nodes = (
(218,316,l),
(163,21,l),
(316,-8,l),
(379,316,l),
(531,572,l),
(531,720,l),
(60,720,l),
(60,575,l),
(370,575,l)
);
}
);
width = 586;
},
{
layerId = "56AAED68-C834-4DF9-BF24-1C0C08D215EB";
shapes = (
{
closed = 1;
nodes = (
(218,316,l),
(163,21,l),
(316,-8,l),
(379,316,l),
(531,572,l),
(531,720,l),
(60,720,l),
(60,575,l),
(370,575,l)
);
}
);
width = 586;
}
);
note = seven;
unicode = 55;
},
{
glyphname = eight;
lastChange = "2024-02-26 18:48:38 +0000";
layers = (
{
layerId = m01;
shapes = (
{
closed = 1;
nodes = (
(59,200,l),
(129,39,l),
(306,-22,l),
(484,39,l),
(555,200,l),
(523,322,l),
(427,400,l),
(500,457,l),
(525,554,l),
(461,692,l),
(306,743,l),
(151,692,l),
(88,554,l),
(112,457,l),
(185,400,l),
(91,322,l)
);
},
{
closed = 1;
nodes = (
(214,222,l),
(240,300,l),
(306,325,l),
(372,300,l),
(400,222,l),
(372,146,l),
(306,120,l),
(240,146,l)
);
},
{
closed = 1;
nodes = (
(239,532,l),
(256,588,l),
(306,610,l),
(356,588,l),
(374,532,l),
(356,475,l),
(306,453,l),
(256,475,l)
);
}
);
width = 613;
},
{
layerId = "56AAED68-C834-4DF9-BF24-1C0C08D215EB";
shapes = (
{
closed = 1;
nodes = (
(59,200,l),
(129,39,l),
(306,-22,l),
(484,39,l),
(555,200,l),
(523,322,l),
(427,400,l),
(500,457,l),
(525,554,l),
(461,692,l),
(306,743,l),
(151,692,l),
(88,554,l),
(112,457,l),
(185,400,l),
(91,322,l)
);
},
{
closed = 1;
nodes = (
(214,222,l),
(240,300,l),
(306,325,l),
(372,300,l),
(400,222,l),
(372,146,l),
(306,120,l),
(240,146,l)
);
},
{
closed = 1;
nodes = (
(239,532,l),
(256,588,l),
(306,610,l),
(356,588,l),
(374,532,l),
(356,475,l),
(306,453,l),
(256,475,l)
);
}
);
width = 613;
}
);
note = eight;
unicode = 56;
},
{
glyphname = nine;
lastChange = "2024-02-26 18:48:38 +0000";
layers = (
{
layerId = m01;
shapes = (
{
closed = 1;
nodes = (
(151,29,l),
(301,-22,l),
(489,76,l),
(554,386,l),
(497,651,l),
(294,743,l),
(123,667,l),
(63,491,l),
(120,325,l),
(286,256,l),
(355,270,l),
(405,310,l),
(383,170,l),
(306,115,l),
(248,134,l),
(213,190,l),
(99,120,l)
);
},
{
closed = 1;
nodes = (
(401,497,l),
(373,423,l),
(302,394,l),
(231,423,l),
(203,497,l),
(231,571,l),
(302,600,l),
(375,571,l)
);
}
);
width = 614;
},
{
layerId = "56AAED68-C834-4DF9-BF24-1C0C08D215EB";
shapes = (
{
closed = 1;
nodes = (
(151,29,l),
(301,-22,l),
(489,76,l),
(554,386,l),
(497,651,l),
(294,743,l),
(123,667,l),
(63,491,l),
(120,325,l),
(286,256,l),
(355,270,l),
(405,310,l),
(383,170,l),
(306,115,l),
(248,134,l),
(213,190,l),
(99,120,l)
);
},
{
closed = 1;
nodes = (
(401,497,l),
(373,423,l),
(302,394,l),
(231,423,l),
(203,497,l),
(231,571,l),
(302,600,l),
(375,571,l)
);
}
);
width = 614;
}
);
note = nine;
unicode = 57;
},
{
glyphname = colon;
lastChange = "2024-02-26 18:48:38 +0000";
layers = (
{
layerId = m01;
shapes = (
{
closed = 1;
nodes = (
(55,364,l)
);
},
{
closed = 1;
nodes = (
(217,430,l),
(170,477,l),
(102,477,l),
(55,430,l),
(55,364,l),
(102,317,l),
(170,317,l),
(217,364,l)
);
},
{
closed = 1;
nodes = (
(55,94,l)
);
},
{
closed = 1;
nodes = (
(217,160,l),
(170,208,l),
(102,208,l),
(55,161,l),
(55,94,l),
(102,47,l),
(170,47,l),
(217,94,l)
);
}
);
width = 271;
},
{
layerId = "56AAED68-C834-4DF9-BF24-1C0C08D215EB";
shapes = (
{
closed = 1;
nodes = (
(55,364,l)
);
},
{
closed = 1;
nodes = (
(217,430,l),
(170,477,l),
(102,477,l),
(55,430,l),
(55,364,l),
(102,317,l),
(170,317,l),
(217,364,l)
);
},
{
closed = 1;
nodes = (
(55,94,l)
);
},
{
closed = 1;
nodes = (
(217,160,l),
(170,208,l),
(102,208,l),
(55,161,l),
(55,94,l),
(102,47,l),
(170,47,l),
(217,94,l)
);
}
);
width = 271;
}
);
note = colon;
unicode = 58;
},
{
glyphname = semicolon;
lastChange = "2024-02-26 18:48:38 +0000";
layers = (
{
layerId = m01;
shapes = (
{
closed = 1;
nodes = (
(169,150,l),
(103,150,l),
(58,104,l),
(58,40,l),
(103,-6,l),
(138,-6,l),
(120,-70,l),
(74,-105,l),
(121,-163,l),
(124,-161,l),
(186,-112,l),
(215,-6,l),
(215,104,l)
);
},
{
closed = 1;
nodes = (
(55,364,l)
);
},
{
closed = 1;
nodes = (
(217,430,l),
(170,477,l),
(102,477,l),
(55,430,l),
(55,364,l),
(102,317,l),
(170,317,l),
(217,364,l)
);
}
);
width = 271;
},
{
layerId = "56AAED68-C834-4DF9-BF24-1C0C08D215EB";
shapes = (
{
closed = 1;
nodes = (
(169,150,l),
(103,150,l),
(58,104,l),
(58,40,l),
(103,-6,l),
(138,-6,l),
(120,-70,l),
(74,-105,l),
(121,-163,l),
(124,-161,l),
(186,-112,l),
(215,-6,l),
(215,104,l)
);
},
{
closed = 1;
nodes = (
(55,364,l)
);
},
{
closed = 1;
nodes = (
(217,430,l),
(170,477,l),
(102,477,l),
(55,430,l),
(55,364,l),
(102,317,l),
(170,317,l),
(217,364,l)
);
}
);
width = 271;
}
);
note = semicolon;
unicode = 59;
},
{
glyphname = less;
lastChange = "2024-02-26 18:48:38 +0000";
layers = (
{
layerId = m01;
shapes = (
{
closed = 1;
nodes = (
(564,171,l),
(242,350,l),
(566,526,l),
(493,647,l),
(113,418,l),
(113,281,l),
(493,52,l)
);
}
);
width = 590;
},
{
layerId = "56AAED68-C834-4DF9-BF24-1C0C08D215EB";
shapes = (
{
closed = 1;
nodes = (
(564,171,l),
(242,350,l),
(566,526,l),
(493,647,l),
(113,418,l),
(113,281,l),
(493,52,l)
);
}
);
width = 590;
}
);
note = less;
unicode = 60;
},
{
glyphname = equal;
lastChange = "2024-02-26 18:48:38 +0000";
layers = (
{
layerId = m01;
shapes = (
{
closed = 1;
nodes = (
(70,320,l),
(70,185,l),
(526,185,l),
(526,320,l)
);
},
{
closed = 1;
nodes = (
(70,540,l),
(70,405,l),
(526,405,l),
(526,540,l)
);
}
);
width = 596;
},
{
layerId = "56AAED68-C834-4DF9-BF24-1C0C08D215EB";
shapes = (
{
closed = 1;
nodes = (
(70,320,l),
(70,185,l),
(526,185,l),
(526,320,l)
);
},
{
closed = 1;
nodes = (
(70,540,l),
(70,405,l),
(526,405,l),
(526,540,l)
);
}
);
width = 596;
}
);
note = equal;
unicode = 61;
},
{
glyphname = greater;
lastChange = "2024-02-26 18:48:38 +0000";
layers = (
{
layerId = m01;
shapes = (
{
closed = 1;
nodes = (
(113,647,l),
(40,526,l),
(364,350,l),
(42,171,l),
(113,52,l),
(493,281,l),
(493,418,l)
);
}
);
width = 596;
},
{
layerId = "56AAED68-C834-4DF9-BF24-1C0C08D215EB";
shapes = (
{
closed = 1;
nodes = (
(113,647,l),
(40,526,l),
(364,350,l),
(42,171,l),
(113,52,l),
(493,281,l),
(493,418,l)
);
}
);
width = 596;
}
);
note = greater;
unicode = 62;
},
{
glyphname = question;
lastChange = "2024-02-26 18:48:38 +0000";
layers = (
{
layerId = m01;
shapes = (
{
closed = 1;
nodes = (
(209,42,l)
);
},
{
closed = 1;
nodes = (
(371,108,l),
(324,155,l),
(256,155,l),
(209,108,l),
(209,42,l),
(256,-5,l),
(324,-5,l),
(371,42,l)
);
},
{
closed = 1;
nodes = (
(361,234,l),
(377,299,l),
(495,420,l),
(531,534,l),
(462,684,l),
(286,740,l),
(128,683,l),
(59,536,l),
(202,494,l),
(229,572,l),
(287,597,l),
(350,580,l),
(373,528,l),
(358,475,l),
(307,428,l),
(237,352,l),
(216,255,l),
(216,208,l),
(361,208,l)
);
}
);
width = 599;
},
{
layerId = "56AAED68-C834-4DF9-BF24-1C0C08D215EB";
shapes = (
{
closed = 1;
nodes = (
(209,42,l)
);
},
{
closed = 1;
nodes = (
(371,108,l),
(324,155,l),
(256,155,l),
(209,108,l),
(209,42,l),
(256,-5,l),
(324,-5,l),
(371,42,l)
);
},
{
closed = 1;
nodes = (
(361,234,l),
(377,299,l),
(495,420,l),
(531,534,l),
(462,684,l),
(286,740,l),
(128,683,l),
(59,536,l),
(202,494,l),
(229,572,l),
(287,597,l),
(350,580,l),
(373,528,l),
(358,475,l),
(307,428,l),
(237,352,l),
(216,255,l),
(216,208,l),
(361,208,l)
);
}
);
width = 599;
}
);
note = question;
unicode = 63;
},
{
glyphname = at;
lastChange = "2024-02-26 18:48:38 +0000";
layers = (
{
layerId = m01;
shapes = (
{
closed = 1;
nodes = (
(554,426,l),
(463,426,l),
(463,405,l),
(427,430,l),
(378,439,l),
(274,389,l),
(233,260,l),
(274,131,l),
(378,82,l),
(438,92,l),
(474,119,l),
(488,136,l),
(523,98,l),
(590,81,l),
(713,139,l),
(761,281,l),
(662,538,l),
(402,637,l),
(142,528,l),
(42,260,l),
(143,-8,l),
(412,-118,l),
(529,-100,l),
(610,-54,l),
(554,44,l),
(491,7,l),
(411,-5,l),
(231,73,l),
(167,260,l),
(232,442,l),
(402,516,l),
(580,455,l),
(646,277,l),
(631,211,l),
(589,183,l),
(560,208,l),
(554,266,l)
);
},
{
closed = 1;
nodes = (
(457,260,l),
(442,205,l),
(397,183,l),
(354,205,l),
(339,260,l),
(354,315,l),
(397,336,l),
(440,315,l)
);
}
);
width = 803;
},
{
layerId = "56AAED68-C834-4DF9-BF24-1C0C08D215EB";
shapes = (
{
closed = 1;
nodes = (
(554,426,l),
(463,426,l),
(463,405,l),
(427,430,l),
(378,439,l),
(274,389,l),
(233,260,l),
(274,131,l),
(378,82,l),
(438,92,l),
(474,119,l),
(488,136,l),
(523,98,l),
(590,81,l),
(713,139,l),
(761,281,l),
(662,538,l),
(402,637,l),
(142,528,l),
(42,260,l),
(143,-8,l),
(412,-118,l),
(529,-100,l),
(610,-54,l),
(554,44,l),
(491,7,l),
(411,-5,l),
(231,73,l),
(167,260,l),
(232,442,l),
(402,516,l),
(580,455,l),
(646,277,l),
(631,211,l),
(589,183,l),
(560,208,l),
(554,266,l)
);
},
{
closed = 1;
nodes = (
(457,260,l),
(442,205,l),
(397,183,l),
(354,205,l),
(339,260,l),
(354,315,l),
(397,336,l),
(440,315,l)
);
}
);
width = 803;
}
);
note = at;
unicode = 64;
},
{
glyphname = A;
lastChange = "2024-02-26 18:49:55 +0000";
layers = (
{
layerId = m01;
shapes = (
{
closed = 1;
nodes = (
(267,2013,l),
(331,2228,l),
(218,2316,l),
(-50,2158,l),
(-5,2019,l),
(149,2117,l),
(111,1998,l)
);
},
{
closed = 1;
nodes = (
(1796,-953,l),
(1855,-1065,l),
(1757,-1174,l),
(1873,-1274,l),
(2198,-898,l),
(2050,-848,l),
(1949,-960,l),
(1894,-856,l)
);
},
{
closed = 1;
nodes = (
(-1344,-346,l),
(-1377,-410,l),
(-1439,-341,l),
(-1568,-409,l),
(-1300,-722,l),
(-1184,-623,l),
(-1283,-515,l),
(-1208,-372,l)
);
}
);
width = 692;
},
{
layerId = "56AAED68-C834-4DF9-BF24-1C0C08D215EB";
shapes = (
{
closed = 1;
nodes = (
(502,511,l),
(421,720,l),
(277,720,l),
(162,431,l),
(282,349,l),
(345,521,l),
(388,404,l)
);
},
{
closed = 1;
nodes = (
(362,130,l),
(488,130,l),
(539,-8,l),
(682,48,l),
(502,511,l),
(388,404,l),
(440,262,l),
(322,262,l)
);
},
{
closed = 1;
nodes = (
(322,262,l),
(250,262,l),
(282,349,l),
(162,431,l),
(10,48,l),
(151,-8,l),
(201,130,l),
(362,130,l)
);
}
);
width = 692;
}
);
note = A;
unicode = 65;
},
{
glyphname = B;
lastChange = "2024-02-26 18:50:25 +0000";
layers = (
{
layerId = m01;
shapes = (
{
closed = 1;
nodes = (
(-618,2448,l),
(-703,2437,l),
(-991,2343,l),
(-932,2165,l),
(-775,2183,l),
(-804,2272,l),
(-693,2309,l),
(-650,2318,l)
);
},
{
closed = 1;
nodes = (
(2259,1356,l),
(2281,1411,l),
(2250,1506,l),
(2109,1584,l),
(2010,1545,l),
(2015,1411,l),
(2061,1435,l),
(2123,1405,l),
(2132,1352,l)
);
},
{
closed = 1;
nodes = (
(-1159,52,l),
(-1247,54,l),
(-1219,104,l),
(-1346,115,l),
(-1344,94,l),
(-1411,31,l),
(-1526,-27,l),
(-1558,36,l),
(-1711,-6,l),
(-1535,-352,l),
(-1426,-225,l),
(-1470,-139,l),
(-1348,-77,l),
(-1246,-53,l),
(-1211,-81,l)
);
},
{
closed = 1;
nodes = (
(2442,-665,l),
(2558,-600,l),
(2579,-419,l),
(2506,-327,l),
(2467,-320,l),
(2396,-443,l),
(2422,-471,l),
(2411,-543,l),
(2334,-583,l)
);
},
{
closed = 1;
nodes = (
(91,-1496,l),
(89,-1502,l),
(17,-1631,l),
(-56,-1590,l),
(-75,-1757,l),
(50,-1828,l),
(203,-1554,l),
(227,-1484,l)
);
}
);
width = 711;
},
{
layerId = "56AAED68-C834-4DF9-BF24-1C0C08D215EB";
shapes = (
{
closed = 1;
nodes = (
(457,703,l),
(373,720,l),
(70,720,l),
(70,533,l),
(225,501,l),
(225,595,l),
(342,595,l),
(386,590,l)
);
},
{
closed = 1;
nodes = (
(558,408,l),
(606,440,l),
(634,537,l),
(561,681,l),
(457,703,l),
(386,590,l),
(437,584,l),
(472,525,l),
(450,475,l)
);
},
{
closed = 1;
nodes = (
(588,334,l),
(511,376,l),
(558,408,l),
(450,475,l),
(442,455,l),
(354,430,l),
(225,430,l),
(225,501,l),
(70,533,l),
(70,144,l),
(225,208,l),
(225,305,l),
(361,305,l),
(463,280,l),
(482,239,l)
);
},
{
closed = 1;
nodes = (
(456,14,l),
(587,40,l),
(663,205,l),
(623,315,l),
(588,334,l),
(482,239,l),
(498,205,l),
(465,140,l),
(379,126,l)
);
},
{
closed = 1;
nodes = (
(379,126,l),
(373,125,l),
(225,124,l),
(225,208,l),
(70,144,l),
(70,0,l),
(383,0,l),
(456,14,l)
);
}
);
width = 711;
}
);
note = B;
unicode = 66;
},
{
glyphname = C;
lastChange = "2024-02-26 18:53:56 +0000";
layers = (
{
layerId = m01;
shapes = (
{
closed = 1;
nodes = (
(1212,1935,l),
(1276,1934,l),
(1343,1881,l),
(1367,1767,l),
(1520,1799,l),
(1484,1951,l),
(1304,2078,l),
(1205,2074,l)
);
},
{
closed = 1;
nodes = (
(-1398,1337,l),
(-1366,1399,l),
(-1200,1497,l),
(-1114,1460,l),
(-1067,1590,l),
(-1237,1653,l),
(-1490,1514,l),
(-1554,1369,l)
);
},
{
closed = 1;
nodes = (
(1632,-990,l),
(1723,-938,l),
(1776,-796,l),
(1627,-744,l),
(1592,-852,l),
(1552,-875,l)
);
},
{
closed = 1;
nodes = (
(-492,-1529,l),
(-538,-1565,l),
(-687,-1556,l),
(-757,-1467,l),
(-853,-1594,l),
(-769,-1694,l),
(-485,-1698,l),
(-397,-1631,l)
);
}
);
width = 720;
},
{
layerId = "56AAED68-C834-4DF9-BF24-1C0C08D215EB";
shapes = (
{
closed = 1;
nodes = (
(344,576,l),
(405,597,l),
(486,570,l),
(547,471,l),
(680,554,l),
(594,684,l),
(382,742,l),
(290,704,l)
);
},
{
closed = 1;
nodes = (
(220,293,l),
(201,360,l),
(256,545,l),
(344,576,l),
(290,704,l),
(123,634,l),
(32,360,l),
(84,210,l)
);
},
{
closed = 1;
nodes = (
(495,8,l),
(596,37,l),
(680,163,l),
(547,248,l),
(488,151,l),
(444,138,l)
);
},
{
closed = 1;
nodes = (
(444,138,l),
(388,121,l),
(252,184,l),
(220,293,l),
(84,210,l),
(126,86,l),
(388,-22,l),
(495,8,l)
);
}
);
width = 720;
}
);
note = C;
unicode = 67;
},
{
glyphname = D;
lastChange = "2024-02-26 18:53:20 +0000";
layers = (
{
layerId = m01;
shapes = (
{
closed = 1;
nodes = (
(1042,1364,l),
(1066,1439,l),
(878,1685,l),
(700,1816,l),
(577,1650,l),
(686,1528,l),
(743,1605,l),
(793,1568,l),
(900,1447,l),
(881,1381,l)
);
},
{
closed = 1;
nodes = (
(2890,-227,l),
(3012,-75,l),
(3019,133,l),
(2859,107,l),
(2858,-15,l),
(2785,-104,l)
);
},
{
closed = 1;
nodes = (
(-934,47,l),
(-966,39,l),
(-1046,365,l),
(-1209,359,l),
(-1087,-139,l),
(-928,-100,l)
);
},
{
closed = 1;
nodes = (
(821,-1862,l),
(906,-1880,l),
(1194,-1848,l),
(1238,-1771,l),
(1115,-1665,l),
(1080,-1726,l),
(910,-1734,l),
(880,-1727,l)
);
}
);
width = 714;
},
{
layerId = "56AAED68-C834-4DF9-BF24-1C0C08D215EB";
shapes = (
{
closed = 1;
nodes = (
(614,559,l),
(589,633,l),
(292,720,l),
(70,720,l),
(70,513,l),
(230,480,l),
(230,575,l),
(292,575,l),
(450,541,l),
(474,477,l)
);
},
{
closed = 1;
nodes = (
(622,176,l),
(682,362,l),
(614,559,l),
(474,477,l),
(516,363,l),
(480,254,l)
);
},
{
closed = 1;
nodes = (
(263,144,l),
(230,144,l),
(230,480,l),
(70,513,l),
(70,0,l),
(233,0,l)
);
},
{
closed = 1;
nodes = (
(233,0,l),
(320,0,l),
(595,91,l),
(622,176,l),
(480,254,l),
(458,187,l),
(294,144,l),
(263,144,l)
);
}
);
width = 714;
}
);
note = D;
unicode = 68;
},
{
glyphname = E;
lastChange = "2024-02-26 18:54:11 +0000";
layers = (
{
layerId = m01;
shapes = (
{
closed = 1;
nodes = (
(-1325,1827,l),
(-1294,1908,l),
(-1183,1865,l),
(-1054,1971,l),
(-1391,2101,l),
(-1502,1814,l)
);
},
{
closed = 1;
nodes = (
(1809,1959,l),
(2037,1861,l),
(2094,1995,l),
(1941,2060,l)
);
},
{
closed = 1;
nodes = (
(2528,-66,l),
(2676,-151,l),
(2748,-25,l),
(2541,94,l)
);
},
{
closed = 1;
nodes = (
(-1597,-1463,l),
(-1705,-1555,l),
(-1803,-1441,l),
(-1691,-1346,l),
(-1837,-1280,l),
(-1897,-1331,l),
(-1928,-1294,l),
(-2001,-1455,l),
(-1733,-1769,l),
(-1570,-1631,l)
);
},
{
closed = 1;
nodes = (
(1729,-1130,l),
(2029,-1009,l),
(1975,-874,l),
(1756,-962,l)
);
}
);
width = 667;
},
{
layerId = "56AAED68-C834-4DF9-BF24-1C0C08D215EB";
shapes = (
{
closed = 1;
nodes = (
(230,488,l),
(230,575,l),
(349,575,l),
(431,720,l),
(70,720,l),
(70,413,l)
);
},
{
closed = 1;
nodes = (
(349,575,l),
(597,575,l),
(597,720,l),
(431,720,l)
);
},
{
closed = 1;
nodes = (
(376,295,l),
(547,295,l),
(547,440,l),
(308,440,l)
);
},
{
closed = 1;
nodes = (
(372,145,l),
(230,145,l),
(230,295,l),
(376,295,l),
(308,440,l),
(230,440,l),
(230,488,l),
(70,413,l),
(70,0,l),
(284,0,l)
);
},
{
closed = 1;
nodes = (
(284,0,l),
(607,0,l),
(607,145,l),
(372,145,l)
);
}
);
width = 667;
}
);
note = E;
unicode = 69;
},
{
glyphname = F;
lastChange = "2024-02-26 18:54:28 +0000";
layers = (
{
layerId = m01;
shapes = (
{
closed = 1;
nodes = (
(1666,1924,l),
(1831,1986,l),
(1780,2122,l),
(1553,2035,l)
);
},
{
closed = 1;
nodes = (
(-1086,-1356,l),
(-989,-1578,l),
(-842,-1514,l),
(-910,-1358,l)
);
},
{
closed = 1;
nodes = (
(1600,525,l),
(1508,335,l),
(1620,199,l),
(1675,312,l),
(1924,191,l),
(1987,321,l),
(1738,442,l),
(1758,483,l)
);
},
{
closed = 1;
nodes = (
(-550,1723,l),
(-808,1631,l),
(-718,1381,l),
(-578,1464,l),
(-608,1549,l),
(-439,1609,l)
);
}
);
width = 637;
},
{
layerId = "56AAED68-C834-4DF9-BF24-1C0C08D215EB";
shapes = (
{
closed = 1;
nodes = (
(410,575,l),
(587,575,l),
(587,720,l),
(344,720,l)
);
},
{
closed = 1;
nodes = (
(70,243,l),
(70,0,l),
(230,0,l),
(230,170,l)
);
},
{
closed = 1;
nodes = (
(70,454,l),
(70,243,l),
(230,170,l),
(230,295,l),
(507,295,l),
(507,440,l),
(230,440,l),
(230,485,l)
);
},
{
closed = 1;
nodes = (
(344,720,l),
(70,720,l),
(70,454,l),
(230,485,l),
(230,575,l),
(410,575,l)
);
}
);
width = 637;
}
);
note = F;
unicode = 70;
},
{
glyphname = G;
lastChange = "2024-02-26 18:53:39 +0000";
layers = (
{
layerId = m01;
shapes = (
{
closed = 1;
nodes = (
(-703,2522,l),
(-807,2503,l),
(-1003,2293,l),
(-987,2148,l),
(-834,2167,l),
(-849,2258,l),
(-747,2375,l),
(-696,2381,l)
);
},
{
closed = 1;
nodes = (
(-908,-1033,l),
(-946,-1024,l),
(-1029,-860,l),
(-1020,-768,l),
(-1173,-746,l),
(-1195,-889,l),
(-1054,-1142,l),
(-882,-1178,l)
);
},
{
closed = 1;
nodes = (
(2738,2298,l),
(2777,2262,l),
(2788,2152,l),
(2946,2168,l),
(2924,2328,l),
(2840,2396,l)
);
},
{
closed = 1;
nodes = (
(3114,-78,l),
(3172,-18,l),
(2952,193,l),
(2866,104,l),
(2972,1,l),
(2945,-27,l)
);
},
{
closed = 1;
nodes = (
(1574,-1394,l),
(1589,-1430,l),
(1480,-1544,l),
(1362,-1543,l),
(1419,-1679,l),
(1536,-1676,l),
(1763,-1434,l),
(1688,-1259,l)
);
}
);
width = 759;
},
{
layerId = "56AAED68-C834-4DF9-BF24-1C0C08D215EB";
shapes = (
{
closed = 1;
nodes = (
(493,715,l),
(391,742,l),
(124,635,l),
(77,497,l),
(224,449,l),
(249,537,l),
(391,600,l),
(440,584,l)
);
},
{
closed = 1;
nodes = (
(288,168,l),
(252,184,l),
(199,360,l),
(224,449,l),
(77,497,l),
(31,360,l),
(125,86,l),
(288,21,l)
);
},
{
closed = 1;
nodes = (
(440,584,l),
(490,567,l),
(545,471,l),
(683,551,l),
(597,688,l),
(493,715,l)
);
},
{
closed = 1;
nodes = (
(700,302,l),
(700,385,l),
(395,385,l),
(395,261,l),
(542,261,l),
(542,222,l)
);
},
{
closed = 1;
nodes = (
(542,222,l),
(542,183,l),
(397,121,l),
(288,168,l),
(288,21,l),
(397,-22,l),
(700,112,l),
(700,302,l)
);
}
);
width = 759;
}
);
note = G;
unicode = 71;
},
{
glyphname = H;
lastChange = "2024-02-26 18:51:36 +0000";
layers = (
{
layerId = m01;
shapes = (
{
closed = 1;
nodes = (
(1359,2566,l),
(1393,2619,l),
(1259,2706,l),
(1188,2597,l)
);
},
{
closed = 1;
nodes = (
(-180,2550,l),
(-277,2683,l),
(-407,2590,l),
(-330,2484,l)
);
},
{
closed = 1;
nodes = (
(3849,713,l),
(3651,1101,l),
(3539,969,l),
(3607,836,l),
(3446,754,l),
(3568,654,l),
(3673,707,l),
(3715,624,l)
);
},
{
closed = 1;
nodes = (
(-38,-1508,l),
(-84,-1612,l),
(62,-1677,l),
(138,-1504,l)
);
},
{
closed = 1;
nodes = (
(-2326,549,l),
(-2172,98,l),
(-2045,221,l),
(-2079,321,l),
(-1910,379,l),
(-2016,496,l),
(-2126,458,l),
(-2163,567,l)
);
},
{
closed = 1;
nodes = (
(2816,-510,l),
(2886,-699,l),
(3036,-644,l),
(2959,-437,l)
);
}
);
width = 757;
},
{
layerId = "56AAED68-C834-4DF9-BF24-1C0C08D215EB";
shapes = (
{
closed = 1;
nodes = (
(687,657,l),
(687,720,l),
(527,720,l),
(527,589,l)
);
},
{
closed = 1;
nodes = (
(230,555,l),
(230,720,l),
(70,720,l),
(70,590,l)
);
},
{
closed = 1;
nodes = (
(687,221,l),
(687,657,l),
(527,589,l),
(527,440,l),
(346,440,l),
(409,295,l),
(527,295,l),
(527,202,l)
);
},
{
closed = 1;
nodes = (
(70,114,l),
(70,0,l),
(230,0,l),
(230,189,l)
);
},
{
closed = 1;
nodes = (
(70,590,l),
(70,114,l),
(230,189,l),
(230,295,l),
(409,295,l),
(346,440,l),
(230,440,l),
(230,555,l)
);
},
{
closed = 1;
nodes = (
(527,202,l),
(527,0,l),
(687,0,l),
(687,221,l)
);
}
);
width = 757;
}
);
note = H;
unicode = 72;
},
{
glyphname = I;
lastChange = "2024-02-26 18:50:39 +0000";
layers = (
{
layerId = m01;
shapes = (
{
closed = 1;
nodes = (
(1390,1919,l),
(1523,2148,l),
(1384,2228,l),
(1311,2102,l)
);
},
{
closed = 1;
nodes = (
(-2261,227,l),
(-2377,363,l),
(-2576,350,l),
(-2336,68,l)
);
},
{
closed = 1;
nodes = (
(1253,-1000,l),
(1220,-1201,l),
(1378,-1227,l),
(1423,-954,l)
);
}
);
width = 300;
},
{
layerId = "56AAED68-C834-4DF9-BF24-1C0C08D215EB";
shapes = (
{
closed = 1;
nodes = (
(230,455,l),
(230,720,l),
(70,720,l),
(70,574,l)
);
},
{
closed = 1;
nodes = (
(230,276,l),
(230,455,l),
(70,574,l),
(70,204,l)
);
},
{
closed = 1;
nodes = (
(70,204,l),
(70,0,l),
(230,0,l),
(230,276,l)
);
}
);
width = 300;
}
);
note = I;
unicode = 73;
},
{
glyphname = J;
lastChange = "2024-02-26 18:54:44 +0000";
layers = (
{
layerId = m01;
shapes = (
{
closed = 1;
nodes = (
(63,2070,l),
(98,2207,l),
(-58,2248,l),
(-113,2028,l)
);
},
{
closed = 1;
nodes = (
(2434,-227,l),
(2486,-128,l),
(2534,208,l),
(2363,147,l),
(2331,-82,l),
(2312,-143,l)
);
},
{
closed = 1;
nodes = (
(-1865,-629,l),
(-1895,-603,l),
(-1892,-514,l),
(-2043,-511,l),
(-2021,-695,l),
(-1949,-739,l)
);
},
{
closed = 1;
nodes = (
(861,-1777,l),
(951,-1764,l),
(1084,-1637,l),
(1073,-1531,l),
(926,-1530,l),
(938,-1574,l),
(890,-1638,l),
(856,-1638,l)
);
}
);
width = 572;
},
{
layerId = "56AAED68-C834-4DF9-BF24-1C0C08D215EB";
shapes = (
{
closed = 1;
nodes = (
(503,579,l),
(503,720,l),
(342,720,l),
(342,494,l)
);
},
{
closed = 1;
nodes = (
(464,134,l),
(502,239,l),
(503,579,l),
(342,494,l),
(342,263,l),
(332,200,l)
);
},
{
closed = 1;
nodes = (
(222,133,l),
(187,151,l),
(169,238,l),
(21,206,l),
(85,32,l),
(166,6,l)
);
},
{
closed = 1;
nodes = (
(166,6,l),
(253,-22,l),
(428,34,l),
(464,134,l),
(332,200,l),
(324,155,l),
(253,118,l),
(222,133,l)
);
}
);
width = 572;
}
);
note = J;
unicode = 74;
},
{
glyphname = K;
lastChange = "2024-02-26 18:55:05 +0000";
layers = (
{
layerId = m01;
shapes = (
{
closed = 1;
nodes = (
(-844,2351,l),
(-793,2481,l),
(-942,2539,l),
(-1021,2337,l)
);
},
{
closed = 1;
nodes = (
(-495,-1279,l),
(-546,-1380,l),
(-404,-1453,l),
(-338,-1325,l)
);
},
{
closed = 1;
nodes = (
(1334,1494,l),
(1473,1586,l),
(1390,1702,l),
(1247,1600,l)
);
},
{
closed = 1;
nodes = (
(-1358,274,l),
(-1485,362,l),
(-1435,485,l),
(-1566,523,l),
(-1650,288,l),
(-1712,453,l),
(-1835,325,l),
(-1698,-40,l),
(-1559,45,l),
(-1585,114,l),
(-1542,222,l),
(-1415,128,l)
);
},
{
closed = 1;
nodes = (
(1580,-844,l),
(1759,-962,l),
(1846,-827,l),
(1629,-696,l)
);
}
);
width = 674;
},
{
layerId = "56AAED68-C834-4DF9-BF24-1C0C08D215EB";
shapes = (
{
closed = 1;
nodes = (
(230,580,l),
(230,720,l),
(70,720,l),
(70,503,l)
);
},
{
closed = 1;
nodes = (
(70,113,l),
(70,0,l),
(230,0,l),
(230,144,l)
);
},
{
closed = 1;
nodes = (
(501,513,l),
(613,636,l),
(505,728,l),
(391,594,l)
);
},
{
closed = 1;
nodes = (
(499,288,l),
(411,415,l),
(501,513,l),
(391,594,l),
(230,404,l),
(230,580,l),
(70,503,l),
(70,113,l),
(230,144,l),
(230,218,l),
(308,304,l),
(394,172,l)
);
},
{
closed = 1;
nodes = (
(394,172,l),
(510,-8,l),
(644,80,l),
(499,288,l)
);
}
);
width = 674;
}
);
note = K;
unicode = 75;
},
{
glyphname = L;
lastChange = "2024-02-26 18:55:15 +0000";
layers = (
{
layerId = m01;
shapes = (
{
closed = 1;
nodes = (
(554,1522,l),
(644,1832,l),
(491,1877,l),
(436,1691,l)
);
},
{
closed = 1;
nodes = (
(2039,223,l),
(2247,148,l),
(2297,284,l),
(2021,384,l)
);
},
{
closed = 1;
nodes = (
(-979,-535,l),
(-1061,-510,l),
(-986,-269,l),
(-1100,-98,l),
(-1257,-600,l),
(-954,-695,l)
);
}
);
width = 638;
},
{
layerId = "56AAED68-C834-4DF9-BF24-1C0C08D215EB";
shapes = (
{
closed = 1;
nodes = (
(230,397,l),
(230,720,l),
(70,720,l),
(70,526,l)
);
},
{
closed = 1;
nodes = (
(387,0,l),
(608,0,l),
(608,145,l),
(315,145,l)
);
},
{
closed = 1;
nodes = (
(315,145,l),
(230,145,l),
(230,397,l),
(70,526,l),
(70,0,l),
(387,0,l)
);
}
);
width = 638;
}
);
note = L;
unicode = 76;
},
{
glyphname = M;
lastChange = "2024-02-26 18:55:30 +0000";
layers = (
{
layerId = m01;
shapes = (
{
closed = 1;
nodes = (
(-495,1642,l),
(-600,1855,l),
(-494,1755,l),
(-473,1917,l),
(-686,2121,l),
(-865,2033,l),
(-713,1722,l)
);
},
{
closed = 1;
nodes = (
(1047,1926,l),
(1157,2179,l),
(973,2259,l),
(679,1946,l),
(718,1799,l),
(900,1989,l),
(846,1865,l)
);
},
{
closed = 1;
nodes = (
(-437,-740,l),
(-533,-1101,l),
(-379,-1142,l),
(-326,-943,l)
);
},
{
closed = 1;
nodes = (
(580,-1057,l),
(578,-1187,l),
(408,-983,l),
(369,-1141,l),
(580,-1392,l),
(707,-1345,l),
(709,-1136,l)
);
},
{
closed = 1;
nodes = (
(1482,-757,l),
(1552,-1056,l),
(1708,-1020,l),
(1607,-588,l)
);
}
);
width = 923;
},
{
layerId = "56AAED68-C834-4DF9-BF24-1C0C08D215EB";
shapes = (
{
closed = 1;
nodes = (
(230,206,l),
(230,443,l),
(281,307,l),
(371,443,l),
(270,720,l),
(70,720,l),
(70,374,l)
);
},
{
closed = 1;
nodes = (
(853,444,l),
(853,720,l),
(653,720,l),
(507,316,l),
(602,197,l),
(693,443,l),
(693,308,l)
);
},
{
closed = 1;
nodes = (
(70,374,l),
(70,0,l),
(230,0,l),
(230,206,l)
);
},
{
closed = 1;
nodes = (
(507,316,l),
(462,193,l),
(371,443,l),
(281,307,l),
(394,0,l),
(529,0,l),
(602,197,l)
);
},
{
closed = 1;
nodes = (
(693,308,l),
(693,0,l),
(853,0,l),
(853,444,l)
);
}
);
width = 923;
}
);
note = M;
unicode = 77;
},
{
glyphname = N;
lastChange = "2024-02-26 18:55:41 +0000";
layers = (
{
layerId = m01;
shapes = (
{
closed = 1;
nodes = (
(-396,1432,l),
(-487,1606,l),
(-335,1525,l),
(-338,1701,l),
(-604,1843,l),
(-747,1769,l),
(-594,1474,l)
);
},
{
closed = 1;
nodes = (
(1184,1872,l),
(1276,2151,l),
(1128,2200,l),
(1027,1894,l)
);
},
{
closed = 1;
nodes = (
(-282,-952,l),
(-366,-1331,l),
(-214,-1365,l),
(-158,-1112,l)
);
},
{
closed = 1;
nodes = (
(1129,-831,l),
(1231,-917,l),
(982,-891,l),
(1051,-1053,l),
(1429,-1092,l),
(1534,-968,l),
(1208,-693,l)
);
}
);
width = 769;
},
{
layerId = "56AAED68-C834-4DF9-BF24-1C0C08D215EB";
shapes = (
{
closed = 1;
nodes = (
(226,259,l),
(226,456,l),
(323,314,l),
(402,471,l),
(232,720,l),
(70,720,l),
(70,388,l)
);
},
{
closed = 1;
nodes = (
(699,426,l),
(699,720,l),
(543,720,l),
(543,398,l)
);
},
{
closed = 1;
nodes = (
(70,388,l),
(70,0,l),
(226,0,l),
(226,259,l)
);
},
{
closed = 1;
nodes = (
(543,398,l),
(543,264,l),
(402,471,l),
(323,314,l),
(537,0,l),
(699,0,l),
(699,426,l)
);
}
);
width = 769;
}
);
note = N;
unicode = 78;
},
{
glyphname = O;
lastChange = "2024-02-26 18:51:51 +0000";
layers = (
{
layerId = m01;
shapes = (
{
closed = 1;
nodes = (
(1739,2257,l),
(1771,2367,l),
(1622,2603,l),
(1502,2630,l),
(1469,2498,l),
(1540,2486,l),
(1612,2359,l),
(1581,2273,l)
);
},
{
closed = 1;
nodes = (
(2648,-1249,l),
(2813,-1294,l),
(3053,-1134,l),
(3112,-971,l),
(2956,-947,l),
(2920,-1031,l),
(2774,-1139,l),
(2690,-1120,l)
);
},
{
closed = 1;
nodes = (
(-2108,1485,l),
(-2079,1536,l),
(-1920,1624,l),
(-1849,1598,l),
(-1793,1722,l),
(-1938,1783,l),
(-2197,1655,l),
(-2280,1494,l)
);
},
{
closed = 1;
nodes = (
(-1536,-1909,l),
(-1556,-2014,l),
(-1381,-2234,l),
(-1273,-2246,l),
(-1252,-2112,l),
(-1312,-2109,l),
(-1398,-1989,l),
(-1369,-1868,l)
);
}
);
width = 764;
},
{
layerId = "56AAED68-C834-4DF9-BF24-1C0C08D215EB";
shapes = (
{
closed = 1;
nodes = (
(677,525,l),
(641,634,l),
(383,742,l),
(269,695,l),
(318,568,l),
(383,599,l),
(515,536,l),
(539,448,l)
);
},
{
closed = 1;
nodes = (
(483,20,l),
(641,86,l),
(731,360,l),
(677,525,l),
(539,448,l),
(563,360,l),
(515,184,l),
(437,147,l)
);
},
{
closed = 1;
nodes = (
(217,304,l),
(201,360,l),
(250,536,l),
(318,568,l),
(269,695,l),
(124,634,l),
(33,360,l),
(90,188,l)
);
},
{
closed = 1;
nodes = (
(90,188,l),
(124,86,l),
(383,-22,l),
(483,20,l),
(437,147,l),
(383,121,l),
(250,184,l),
(217,304,l)
);
}
);
width = 764;
}
);
note = O;
unicode = 79;
},
{
glyphname = P;
lastChange = "2024-02-26 18:55:56 +0000";
layers = (
{
layerId = m01;
shapes = (
{
closed = 1;
nodes = (
(-533,1504,l),
(-511,1573,l),
(-453,1555,l),
(-445,1699,l),
(-621,1754,l),
(-709,1477,l)
);
},
{
closed = 1;
nodes = (
(1857,1190,l),
(1947,1256,l),
(1961,1448,l),
(1820,1598,l),
(1614,1591,l),
(1519,1561,l),
(1596,1438,l),
(1651,1456,l),
(1756,1458,l),
(1807,1397,l),
(1803,1322,l),
(1745,1278,l)
);
},
{
closed = 1;
nodes = (
(-1939,33,l),
(-1961,152,l),
(-1830,176,l),
(-1737,228,l),
(-1838,329,l),
(-1869,311,l),
(-1987,289,l),
(-2012,425,l),
(-2155,318,l),
(-2109,72,l)
);
},
{
closed = 1;
nodes = (
(-621,-946,l),
(-677,-1116,l),
(-526,-1168,l),
(-491,-1065,l)
);
}
);
width = 672;
},
{
layerId = "56AAED68-C834-4DF9-BF24-1C0C08D215EB";
shapes = (
{
closed = 1;
nodes = (
(230,508,l),
(230,580,l),
(291,580,l),
(255,720,l),
(70,720,l),
(70,429,l)
);
},
{
closed = 1;
nodes = (
(464,264,l),
(570,300,l),
(642,479,l),
(553,665,l),
(355,720,l),
(255,720,l),
(291,580,l),
(349,580,l),
(450,550,l),
(480,476,l),
(453,406,l),
(384,382,l)
);
},
{
closed = 1;
nodes = (
(230,109,l),
(230,230,l),
(363,230,l),
(464,264,l),
(384,382,l),
(350,370,l),
(230,370,l),
(230,508,l),
(70,429,l),
(70,179,l)
);
},
{
closed = 1;
nodes = (
(70,179,l),
(70,0,l),
(230,0,l),
(230,109,l)
);
}
);
width = 672;
}
);
note = P;
unicode = 80;
},
{
glyphname = Q;
lastChange = "2024-02-26 18:56:12 +0000";
layers = (
{
layerId = m01;
shapes = (
{
closed = 1;
nodes = (
(-479,1509,l),
(-499,1626,l),
(-406,1739,l),
(-356,1739,l),
(-358,1875,l),
(-467,1870,l),
(-655,1661,l),
(-639,1523,l)
);
},
{
closed = 1;
nodes = (
(-1199,-729,l),
(-1228,-721,l),
(-1302,-554,l),
(-1294,-490,l),
(-1443,-430,l),
(-1468,-578,l),
(-1338,-836,l),
(-1187,-875,l)
);
},
{
closed = 1;
nodes = (
(1841,1092,l),
(1796,1273,l),
(1644,1351,l),
(1579,1231,l),
(1663,1184,l),
(1689,1051,l)
);
},
{
closed = 1;
nodes = (
(1433,-386,l),
(1460,-424,l),
(1473,-560,l),
(1388,-515,l),
(1327,-633,l),
(1411,-677,l),
(1378,-713,l),
(1260,-703,l),
(1304,-842,l),
(1429,-846,l),
(1537,-743,l),
(1649,-801,l),
(1710,-683,l),
(1630,-641,l),
(1617,-365,l),
(1553,-284,l)
);
}
);
width = 764;
},
{
layerId = "56AAED68-C834-4DF9-BF24-1C0C08D215EB";
shapes = (
{
closed = 1;
nodes = (
(218,422,l),
(250,536,l),
(383,599,l),
(428,577,l),
(484,701,l),
(383,743,l),
(124,635,l),
(80,503,l)
);
},
{
closed = 1;
nodes = (
(277,171,l),
(250,184,l),
(201,360,l),
(218,422,l),
(80,503,l),
(33,360,l),
(124,86,l),
(268,25,l)
);
},
{
closed = 1;
nodes = (
(699,458,l),
(641,635,l),
(484,701,l),
(428,577,l),
(515,536,l),
(551,405,l)
);
},
{
closed = 1;
nodes = (
(551,405,l),
(563,360,l),
(527,229,l),
(463,301,l),
(364,212,l),
(427,141,l),
(383,120,l),
(277,171,l),
(268,25,l),
(383,-23,l),
(521,35,l),
(605,-59,l),
(704,30,l),
(644,97,l),
(731,360,l),
(699,458,l)
);
}
);
width = 764;
}
);
note = Q;
unicode = 81;
},
{
glyphname = R;
lastChange = "2024-02-26 18:49:21 +0000";
layers = (
{
layerId = m01;
shapes = (
{
closed = 1;
nodes = (
(1152,1189,l),
(1217,1253,l),
(1205,1457,l),
(1187,1512,l),
(1055,1465,l),
(1070,1419,l),
(1075,1313,l),
(1049,1290,l)
);
},
{
closed = 1;
nodes = (
(-354,1588,l),
(-502,1417,l),
(-387,1317,l),
(-262,1420,l),
(-292,1446,l),
(-247,1498,l)
);
},
{
closed = 1;
nodes = (
(1735,649,l),
(1778,755,l),
(1728,859,l),
(1598,794,l),
(1615,752,l),
(1593,692,l)
);
},
{
closed = 1;
nodes = (
(-1477,301,l),
(-1376,368,l),
(-1346,323,l),
(-1230,401,l),
(-1260,446,l),
(-1118,541,l),
(-1185,689,l),
(-1459,505,l)
);
},
{
closed = 1;
nodes = (
(770,-1132,l),
(790,-1048,l),
(846,-1081,l),
(920,-1055,l),
(859,-920,l),
(849,-923,l),
(754,-869,l),
(711,-820,l),
(606,-912,l),
(657,-971,l),
(628,-1070,l)
);
},
{
closed = 1;
nodes = (
(-834,-1040,l),
(-668,-1209,l),
(-554,-1096,l),
(-630,-1019,l)
);
},
{
closed = 1;
nodes = (
(1523,-1013,l),
(1678,-921,l),
(1594,-784,l),
(1462,-871,l)
);
}
);
width = 679;
},
{
layerId = "56AAED68-C834-4DF9-BF24-1C0C08D215EB";
shapes = (
{
closed = 1;
nodes = (
(592,583,l),
(552,665,l),
(355,720,l),
(297,720,l),
(299,580,l),
(348,580,l),
(449,550,l),
(462,518,l)
);
},
{
closed = 1;
nodes = (
(297,720,l),
(70,720,l),
(70,567,l),
(230,540,l),
(230,580,l),
(299,580,l)
);
},
{
closed = 1;
nodes = (
(599,373,l),
(642,479,l),
(592,583,l),
(462,518,l),
(479,476,l),
(457,416,l)
);
},
{
closed = 1;
nodes = (
(230,109,l),
(230,230,l),
(284,230,l),
(284,370,l),
(230,370,l),
(230,540,l),
(70,567,l),
(70,237,l)
);
},
{
closed = 1;
nodes = (
(558,209,l),
(508,279,l),
(569,300,l),
(599,373,l),
(457,416,l),
(453,406,l),
(350,370,l),
(284,370,l),
(284,230,l),
(362,230,l),
(418,143,l)
);
},
{
closed = 1;
nodes = (
(70,237,l),
(70,0,l),
(230,0,l),
(230,109,l)
);
},
{
closed = 1;
nodes = (
(418,143,l),
(516,-9,l),
(650,80,l),
(558,209,l)
);
}
);
width = 679;
}
);
note = R;
unicode = 82;
},
{
glyphname = S;
lastChange = "2024-02-26 18:51:13 +0000";
layers = (
{
layerId = m01;
shapes = (
{
closed = 1;
nodes = (
(-587,2015,l),
(-585,2040,l),
(-523,2089,l),
(-487,2095,l),
(-504,2231,l),
(-589,2216,l),
(-727,2090,l),
(-725,1971,l)
);
},
{
closed = 1;
nodes = (
(1997,1962,l),
(2047,1971,l),
(2105,1927,l),
(2196,2042,l),
(2101,2122,l),
(1980,2098,l)
);
},
{
closed = 1;
nodes = (
(-2544,-456,l),
(-2554,-415,l),
(-2554,-372,l),
(-2530,-346,l),
(-2500,-344,l),
(-2559,-213,l),
(-2627,-221,l),
(-2701,-303,l),
(-2705,-451,l),
(-2691,-498,l)
);
},
{
closed = 1;
nodes = (
(2737,-431,l),
(2760,-350,l),
(2696,-214,l),
(2628,-132,l),
(2606,-102,l),
(2485,-199,l),
(2561,-294,l),
(2594,-355,l),
(2587,-381,l)
);
},
{
closed = 1;
nodes = (
(2131,-723,l),
(2222,-660,l),
(2250,-468,l),
(2207,-415,l),
(2078,-507,l),
(2093,-527,l),
(2080,-598,l),
(2038,-623,l)
);
},
{
closed = 1;
nodes = (
(-949,-1310,l),
(-986,-1309,l),
(-1077,-1265,l),
(-1098,-1167,l),
(-1242,-1200,l),
(-1210,-1351,l),
(-1012,-1450,l),
(-921,-1444,l)
);
}
);
width = 618;
},
{
layerId = "56AAED68-C834-4DF9-BF24-1C0C08D215EB";
shapes = (
{
closed = 1;
nodes = (
(202,560,l),
(215,582,l),
(292,599,l),
(327,589,l),
(371,719,l),
(288,742,l),
(109,688,l),
(59,580,l)
);
},
{
closed = 1;
nodes = (
(327,589,l),
(376,575,l),
(409,510,l),
(541,574,l),
(490,687,l),
(371,719,l)
);
},
{
closed = 1;
nodes = (
(272,463,l),
(232,476,l),
(196,499,l),
(187,533,l),
(202,560,l),
(59,580,l),
(30,519,l),
(58,412,l),
(182,329,l),
(229,315,l)
);
},
{
closed = 1;
nodes = (
(569,270,l),
(541,349,l),
(410,424,l),
(307,452,l),
(272,463,l),
(229,315,l),
(346,281,l),
(408,250,l),
(417,225,l)
);
},
{
closed = 1;
nodes = (
(398,3,l),
(504,34,l),
(592,206,l),
(569,270,l),
(417,225,l),
(425,201,l),
(390,138,l),
(342,128,l)
);
},
{
closed = 1;
nodes = (
(342,128,l),
(306,121,l),
(207,145,l),
(166,236,l),
(32,173,l),
(96,33,l),
(310,-22,l),
(398,3,l)
);
}
);
width = 618;
}
);
note = S;
unicode = 83;
},
{
glyphname = T;
lastChange = "2024-02-26 18:56:27 +0000";
layers = (
{
layerId = m01;
shapes = (
{
closed = 1;
nodes = (
(-1046,955,l),
(-1198,1093,l),
(-1296,986,l),
(-1210,908,l)
);
},
{
closed = 1;
nodes = (
(1395,1532,l),
(1355,1685,l),
(1569,1742,l),
(1532,1882,l),
(1146,1780,l),
(1097,1617,l),
(1200,1644,l),
(1227,1543,l)
);
},
{
closed = 1;
nodes = (
(-1674,-261,l),
(-1711,-56,l),
(-1878,-31,l),
(-1823,-338,l)
);
},
{
closed = 1;
nodes = (
(737,-1328,l),
(825,-1459,l),
(958,-1370,l),
(842,-1197,l)
);
}
);
width = 664;
},
{
layerId = "56AAED68-C834-4DF9-BF24-1C0C08D215EB";
shapes = (
{
closed = 1;
nodes = (
(235,720,l),
(30,720,l),
(30,575,l),
(146,575,l)
);
},
{
closed = 1;
nodes = (
(412,416,l),
(412,575,l),
(634,575,l),
(634,720,l),
(235,720,l),
(146,575,l),
(252,575,l),
(252,470,l)
);
},
{
closed = 1;
nodes = (
(412,208,l),
(412,416,l),
(252,470,l),
(252,158,l)
);
},
{
closed = 1;
nodes = (
(252,158,l),
(252,0,l),
(412,0,l),
(412,208,l)
);
}
);
width = 664;
}
);
note = T;
unicode = 84;
},
{
glyphname = U;
lastChange = "2024-02-26 18:56:41 +0000";
layers = (
{
layerId = m01;
shapes = (
{
closed = 1;
nodes = (
(-838,1953,l),
(-885,2098,l),
(-1038,2048,l),
(-961,1815,l)
);
},
{
closed = 1;
nodes = (
(-764,-391,l),
(-792,-387,l),
(-857,-259,l),
(-909,0,l),
(-1048,-122,l),
(-1011,-306,l),
(-888,-509,l),
(-769,-529,l)
);
},
{
closed = 1;
nodes = (
(1413,1571,l),
(1536,1731,l),
(1410,1828,l),
(1256,1628,l)
);
},
{
closed = 1;
nodes = (
(754,-903,l),
(758,-1004,l),
(670,-1077,l),
(582,-1073,l),
(594,-1210,l),
(716,-1215,l),
(904,-1062,l),
(905,-941,l)
);
},
{
closed = 1;
nodes = (
(2200,348,l),
(2178,185,l),
(2162,146,l),
(2281,46,l),
(2335,157,l),
(2364,377,l)
);
}
);
width = 752;
},
{
layerId = "56AAED68-C834-4DF9-BF24-1C0C08D215EB";
shapes = (
{
closed = 1;
nodes = (
(230,567,l),
(230,720,l),
(70,720,l),
(70,475,l)
);
},
{
closed = 1;
nodes = (
(295,155,l),
(268,165,l),
(230,303,l),
(230,567,l),
(70,475,l),
(70,288,l),
(150,64,l),
(263,21,l)
);
},
{
closed = 1;
nodes = (
(682,518,l),
(682,720,l),
(523,720,l),
(523,468,l)
);
},
{
closed = 1;
nodes = (
(512,262,l),
(484,165,l),
(377,124,l),
(295,155,l),
(263,21,l),
(377,-22,l),
(604,64,l),
(643,179,l)
);
},
{
closed = 1;
nodes = (
(523,468,l),
(523,303,l),
(512,262,l),
(643,179,l),
(682,296,l),
(682,518,l)
);
}
);
width = 752;
}
);
note = U;
unicode = 85;
},
{
glyphname = V;
lastChange = "2024-02-26 18:57:43 +0000";
layers = (
{
layerId = m01;
shapes = (
{
closed = 1;
nodes = (
(-438,1976,l),
(-414,2064,l),
(-562,2105,l),
(-606,1935,l)
);
},
{
closed = 1;
nodes = (
(1255,1935,l),
(1375,2054,l),
(1268,2161,l),
(1061,1946,l)
);
},
{
closed = 1;
nodes = (
(713,-843,l),
(746,-939,l),
(343,-700,l),
(338,-871,l),
(815,-1143,l),
(925,-1054,l),
(861,-842,l)
);
},
{
closed = 1;
nodes = (
(2049,297,l),
(2060,137,l),
(2202,100,l),
(2187,433,l)
);
}
);
width = 704;
},
{
layerId = "56AAED68-C834-4DF9-BF24-1C0C08D215EB";
shapes = (
{
closed = 1;
nodes = (
(191,642,l),
(160,728,l),
(15,675,l),
(78,512,l)
);
},
{
closed = 1;
nodes = (
(626,515,l),
(689,672,l),
(548,728,l),
(444,448,l)
);
},
{
closed = 1;
nodes = (
(388,297,l),
(352,202,l),
(191,642,l),
(78,512,l),
(278,0,l),
(420,0,l),
(502,205,l)
);
},
{
closed = 1;
nodes = (
(444,448,l),
(388,297,l),
(502,205,l),
(626,515,l)
);
}
);
width = 704;
}
);
note = V;
unicode = 86;
},
{
glyphname = W;
lastChange = "2024-02-26 18:52:12 +0000";
layers = (
{
layerId = m01;
shapes = (
{
closed = 1;
nodes = (
(874,2225,l),
(970,2415,l),
(980,2178,l),
(1108,2300,l),
(1101,2583,l),
(921,2622,l),
(793,2355,l)
);
},
{
closed = 1;
nodes = (
(2539,2237,l),
(2631,2304,l),
(2531,2431,l),
(2370,2305,l)
);
},
{
closed = 1;
nodes = (
(-1067,2289,l),
(-1168,2454,l),
(-1307,2371,l),
(-1147,2125,l)
);
},
{
closed = 1;
nodes = (
(-601,-1392,l),
(-687,-1806,l),
(-515,-1887,l),
(-303,-1632,l),
(-352,-1487,l),
(-516,-1694,l),
(-429,-1332,l)
);
},
{
closed = 1;
nodes = (
(1718,-1895,l),
(1740,-1986,l),
(1566,-1769,l),
(1539,-1944,l),
(1733,-2182,l),
(1906,-2103,l),
(1879,-1964,l)
);
},
{
closed = 1;
nodes = (
(3189,-109,l),
(3083,-353,l),
(3171,-504,l),
(3369,-88,l)
);
}
);
width = 1019;
},
{
layerId = "56AAED68-C834-4DF9-BF24-1C0C08D215EB";
shapes = (
{
closed = 1;
nodes = (
(455,322,l),
(509,528,l),
(569,298,l),
(668,445,l),
(601,720,l),
(417,720,l),
(349,432,l)
);
},
{
closed = 1;
nodes = (
(977,586,l),
(1004,697,l),
(845,728,l),
(805,528,l)
);
},
{
closed = 1;
nodes = (
(213,539,l),
(174,728,l),
(15,696,l),
(83,411,l)
);
},
{
closed = 1;
nodes = (
(83,411,l),
(182,0,l),
(372,0,l),
(455,322,l),
(349,432,l),
(289,175,l),
(213,539,l)
);
},
{
closed = 1;
nodes = (
(752,267,l),
(734,175,l),
(668,445,l),
(569,298,l),
(646,0,l),
(836,0,l),
(869,137,l)
);
},
{
closed = 1;
nodes = (
(805,528,l),
(752,267,l),
(869,137,l),
(977,586,l)
);
}
);
width = 1019;
}
);
note = W;
unicode = 87;
},
{
glyphname = X;
lastChange = "2024-02-26 18:57:01 +0000";
layers = (
{
layerId = m01;
shapes = (
{
closed = 1;
nodes = (
(-367,1993,l),
(-402,2103,l),
(-554,2044,l),
(-502,1908,l)
);
},
{
closed = 1;
nodes = (
(1820,1577,l),
(1967,1722,l),
(1856,1825,l),
(1722,1684,l)
);
},
{
closed = 1;
nodes = (
(-647,-930,l),
(-723,-1089,l),
(-586,-1151,l),
(-540,-1047,l)
);
},
{
closed = 1;
nodes = (
(1938,105,l),
(1919,356,l),
(2039,414,l),
(1980,548,l),
(1903,507,l),
(1897,669,l),
(1744,624,l),
(1759,452,l),
(1591,371,l),
(1602,212,l),
(1776,301,l),
(1779,225,l)
);
},
{
closed = 1;
nodes = (
(1041,-975,l),
(1206,-1131,l),
(1313,-1019,l),
(1238,-951,l)
);
}
);
width = 629;
},
{
layerId = "56AAED68-C834-4DF9-BF24-1C0C08D215EB";
shapes = (
{
closed = 1;
nodes = (
(239,630,l),
(178,728,l),
(45,634,l),
(128,515,l)
);
},
{
closed = 1;
nodes = (
(488,478,l),
(605,648,l),
(476,728,l),
(371,565,l)
);
},
{
closed = 1;
nodes = (
(120,220,l),
(20,75,l),
(146,-8,l),
(208,87,l)
);
},
{
closed = 1;
nodes = (
(553,159,l),
(413,368,l),
(488,478,l),
(371,565,l),
(324,492,l),
(239,630,l),
(128,515,l),
(226,373,l),
(120,220,l),
(208,87,l),
(316,250,l),
(356,185,l)
);
},
{
closed = 1;
nodes = (
(356,185,l),
(476,-8,l),
(609,74,l),
(553,159,l)
);
}
);
width = 629;
}
);
note = X;
unicode = 88;
},
{
glyphname = Y;
lastChange = "2024-02-26 18:57:16 +0000";
layers = (
{
layerId = m01;
shapes = (
{
closed = 1;
nodes = (
(-174,1486,l),
(-201,1647,l),
(-349,1622,l),
(-325,1476,l)
);
},
{
closed = 1;
nodes = (
(1052,1552,l),
(1137,1617,l),
(1047,1731,l),
(867,1591,l)
);
},
{
closed = 1;
nodes = (
(-1701,-254,l),
(-1616,-180,l),
(-1305,-127,l),
(-1449,-5,l),
(-1553,-24,l),
(-1502,141,l),
(-1642,200,l),
(-1722,-58,l),
(-1765,-96,l)
);
},
{
closed = 1;
nodes = (
(1187,-956,l),
(1309,-1156,l),
(1446,-1073,l),
(1353,-919,l)
);
}
);
width = 621;
},
{
layerId = "56AAED68-C834-4DF9-BF24-1C0C08D215EB";
shapes = (
{
closed = 1;
nodes = (
(223,589,l),
(137,728,l),
(10,649,l),
(87,523,l)
);
},
{
closed = 1;
nodes = (
(555,562,l),
(611,653,l),
(487,728,l),
(368,533,l)
);
},
{
closed = 1;
nodes = (
(390,180,l),
(390,293,l),
(555,562,l),
(368,533,l),
(314,443,l),
(223,589,l),
(87,523,l),
(229,293,l),
(229,235,l)
);
},
{
closed = 1;
nodes = (
(229,235,l),
(229,0,l),
(390,0,l),
(390,180,l)
);
}
);
width = 621;
}
);
note = Y;
unicode = 89;
},
{
glyphname = Z;
lastChange = "2024-02-26 18:57:30 +0000";
layers = (
{
layerId = m01;
shapes = (
{
closed = 1;
nodes = (
(-217,1767,l),
(-466,1896,l),
(-532,1767,l),
(-389,1693,l)
);
},
{
closed = 1;
nodes = (
(1607,1242,l),
(1697,1494,l),
(1643,1629,l),
(1409,1535,l),
(1352,1357,l),
(1530,1428,l),
(1406,1069,l)
);
},
{
closed = 1;
nodes = (
(1875,-341,l),
(2055,-413,l),
(2109,-279,l),
(1835,-168,l)
);
},
{
closed = 1;
nodes = (
(-1194,-735,l),
(-1284,-757,l),
(-1145,-486,l),
(-1367,-631,l),
(-1453,-798,l),
(-1418,-939,l),
(-1061,-850,l)
);
}
);
width = 662;
},
{
layerId = "56AAED68-C834-4DF9-BF24-1C0C08D215EB";
shapes = (
{
closed = 1;
nodes = (
(350,720,l),
(70,720,l),
(70,575,l),
(231,575,l)
);
},
{
closed = 1;
nodes = (
(425,374,l),
(602,575,l),
(602,720,l),
(350,720,l),
(231,575,l),
(423,575,l),
(174,288,l)
);
},
{
closed = 1;
nodes = (
(418,0,l),
(612,0,l),
(612,145,l),
(316,145,l)
);
},
{
closed = 1;
nodes = (
(316,145,l),
(224,145,l),
(425,374,l),
(174,288,l),
(50,145,l),
(50,0,l),
(418,0,l)
);
}
);
width = 662;
}
);
note = Z;
unicode = 90;
},
{
glyphname = bracketleft;
lastChange = "2024-02-26 18:48:38 +0000";
layers = (
{
layerId = m01;
shapes = (
{
closed = 1;
nodes = (
(215,-5,l),
(215,685,l),
(337,685,l),
(337,820,l),
(60,820,l),
(60,-140,l),
(337,-140,l),
(337,-5,l)
);
}
);
width = 357;
},
{
layerId = "56AAED68-C834-4DF9-BF24-1C0C08D215EB";
shapes = (
{
closed = 1;
nodes = (
(215,-5,l),
(215,685,l),
(337,685,l),
(337,820,l),
(60,820,l),
(60,-140,l),
(337,-140,l),
(337,-5,l)
);
}
);
width = 357;
}
);
note = bracketleft;
unicode = 91;
},
{
glyphname = backslash;
lastChange = "2024-02-26 18:48:38 +0000";
layers = (
{
layerId = m01;
shapes = (
{
closed = 1;
nodes = (
(237,-104,l),
(381,-66,l),
(144,820,l),
(0,782,l)
);
}
);
width = 381;
},
{
layerId = "56AAED68-C834-4DF9-BF24-1C0C08D215EB";
shapes = (
{
closed = 1;
nodes = (
(237,-104,l),
(381,-66,l),
(144,820,l),
(0,782,l)
);
}
);
width = 381;
}
);
note = backslash;
unicode = 92;
},
{
glyphname = bracketright;
lastChange = "2024-02-26 18:48:38 +0000";
layers = (
{
layerId = m01;
shapes = (
{
closed = 1;
nodes = (
(20,820,l),
(20,685,l),
(142,685,l),
(142,-5,l),
(20,-5,l),
(20,-140,l),
(297,-140,l),
(297,820,l)
);
}
);
width = 357;
},
{
layerId = "56AAED68-C834-4DF9-BF24-1C0C08D215EB";
shapes = (
{
closed = 1;
nodes = (
(20,820,l),
(20,685,l),
(142,685,l),
(142,-5,l),
(20,-5,l),
(20,-140,l),
(297,-140,l),
(297,820,l)
);
}
);
width = 357;
}
);
note = bracketright;
unicode = 93;
},
{
glyphname = asciicircum;
lastChange = "2024-02-26 18:48:38 +0000";
layers = (
{
layerId = m01;
shapes = (
{
closed = 1;
nodes = (
(184,470,l),
(263,641,l),
(340,470,l),
(447,527,l),
(316,781,l),
(210,781,l),
(80,528,l)
);
}
);
width = 527;
},
{
layerId = "56AAED68-C834-4DF9-BF24-1C0C08D215EB";
shapes = (
{
closed = 1;
nodes = (
(184,470,l),
(263,641,l),
(340,470,l),
(447,527,l),
(316,781,l),
(210,781,l),
(80,528,l)
);
}
);
width = 527;
}
);
note = asciicircum;
unicode = 94;
},
{
glyphname = underscore;
lastChange = "2024-02-26 18:48:38 +0000";
layers = (
{
layerId = m01;
shapes = (
{
closed = 1;
nodes = (
(50,125,l),
(50,0,l),
(606,0,l),
(606,125,l)
);
}
);
width = 656;
},
{
layerId = "56AAED68-C834-4DF9-BF24-1C0C08D215EB";
shapes = (
{
closed = 1;
nodes = (
(50,125,l),
(50,0,l),
(606,0,l),
(606,125,l)
);
}
);
width = 656;
}
);
note = underscore;
unicode = 95;
},
{
glyphname = grave;
lastChange = "2024-02-26 18:48:38 +0000";
layers = (
{
layerId = m01;
shapes = (
{
closed = 1;
nodes = (
(170,533,l),
(267,597,l),
(170,838,l),
(30,745,l)
);
}
);
width = 306;
},
{
layerId = "56AAED68-C834-4DF9-BF24-1C0C08D215EB";
shapes = (
{
closed = 1;
nodes = (
(170,533,l),
(267,597,l),
(170,838,l),
(30,745,l)
);
}
);
width = 306;
}
);
note = grave;
unicode = 96;
},
{
glyphname = a;
lastChange = "2024-02-26 18:48:38 +0000";
layers = (
{
layerId = m01;
shapes = (
{
closed = 1;
nodes = (
(24,129,l),
(76,18,l),
(200,-20,l),
(283,-6,l),
(352,54,l),
(352,0,l),
(496,0,l),
(496,325,l),
(435,489,l),
(269,540,l),
(127,506,l),
(52,398,l),
(169,338,l),
(197,391,l),
(262,416,l),
(328,390,l),
(346,339,l),
(346,326,l),
(80,253,l)
);
},
{
closed = 1;
nodes = (
(345,163,l),
(302,114,l),
(236,94,l),
(190,108,l),
(176,139,l),
(196,186,l),
(346,234,l)
);
}
);
width = 550;
},
{
layerId = "56AAED68-C834-4DF9-BF24-1C0C08D215EB";
shapes = (
{
closed = 1;
nodes = (
(24,129,l),
(76,18,l),
(200,-20,l),
(283,-6,l),
(352,54,l),
(352,0,l),
(496,0,l),
(496,325,l),
(435,489,l),
(269,540,l),
(127,506,l),
(52,398,l),
(169,338,l),
(197,391,l),
(262,416,l),
(328,390,l),
(346,339,l),
(346,326,l),
(80,253,l)
);
},
{
closed = 1;
nodes = (
(345,163,l),
(302,114,l),
(236,94,l),
(190,108,l),
(176,139,l),
(196,186,l),
(346,234,l)
);
}
);
width = 550;
}
);
note = a;
unicode = 97;
},
{
glyphname = b;
lastChange = "2024-02-26 18:48:38 +0000";
layers = (
{
layerId = m01;
shapes = (
{
closed = 1;
nodes = (
(55,0,l),
(195,0,l),
(195,61,l),
(253,-3,l),
(334,-22,l),
(495,48,l),
(563,258,l),
(494,468,l),
(329,539,l),
(263,526,l),
(206,477,l),
(206,720,l),
(55,720,l)
);
},
{
closed = 1;
nodes = (
(194,258,l),
(223,373,l),
(301,411,l),
(379,373,l),
(409,258,l),
(379,142,l),
(303,105,l),
(226,142,l)
);
}
);
width = 580;
},
{
layerId = "56AAED68-C834-4DF9-BF24-1C0C08D215EB";
shapes = (
{
closed = 1;
nodes = (
(55,0,l),
(195,0,l),
(195,61,l),
(253,-3,l),
(334,-22,l),
(495,48,l),
(563,258,l),
(494,468,l),
(329,539,l),
(263,526,l),
(206,477,l),
(206,720,l),
(55,720,l)
);
},
{
closed = 1;
nodes = (
(194,258,l),
(223,373,l),
(301,411,l),
(379,373,l),
(409,258,l),
(379,142,l),
(303,105,l),
(226,142,l)
);
}
);
width = 580;
}
);
note = b;
unicode = 98;
},
{
glyphname = c;
lastChange = "2024-02-26 18:48:38 +0000";
layers = (
{
layerId = m01;
shapes = (
{
closed = 1;
nodes = (
(173,260,l),
(200,373,l),
(273,413,l),
(335,392,l),
(368,324,l),
(495,384,l),
(428,497,l),
(273,540,l),
(95,474,l),
(20,260,l),
(96,46,l),
(273,-20,l),
(428,23,l),
(494,133,l),
(367,195,l),
(334,127,l),
(273,107,l),
(199,146,l)
);
}
);
width = 519;
},
{
layerId = "56AAED68-C834-4DF9-BF24-1C0C08D215EB";
shapes = (
{
closed = 1;
nodes = (
(173,260,l),
(200,373,l),
(273,413,l),
(335,392,l),
(368,324,l),
(495,384,l),
(428,497,l),
(273,540,l),
(95,474,l),
(20,260,l),
(96,46,l),
(273,-20,l),
(428,23,l),
(494,133,l),
(367,195,l),
(334,127,l),
(273,107,l),
(199,146,l)
);
}
);
width = 519;
}
);
note = c;
unicode = 99;
},
{
glyphname = d;
lastChange = "2024-02-26 18:48:38 +0000";
layers = (
{
layerId = m01;
shapes = (
{
closed = 1;
nodes = (
(318,526,l),
(252,539,l),
(87,468,l),
(18,258,l),
(85,48,l),
(247,-22,l),
(327,-3,l),
(385,61,l),
(385,0,l),
(526,0,l),
(526,720,l),
(375,720,l),
(375,477,l)
);
},
{
closed = 1;
nodes = (
(171,258,l),
(201,373,l),
(280,411,l),
(357,373,l),
(386,258,l),
(355,142,l),
(278,105,l),
(202,142,l)
);
}
);
width = 580;
},
{
layerId = "56AAED68-C834-4DF9-BF24-1C0C08D215EB";
shapes = (
{
closed = 1;
nodes = (
(318,526,l),
(252,539,l),
(87,468,l),
(18,258,l),
(85,48,l),
(247,-22,l),
(327,-3,l),
(385,61,l),
(385,0,l),
(526,0,l),
(526,720,l),
(375,720,l),
(375,477,l)
);
},
{
closed = 1;
nodes = (
(171,258,l),
(201,373,l),
(280,411,l),
(357,373,l),
(386,258,l),
(355,142,l),
(278,105,l),
(202,142,l)
);
}
);
width = 580;
}
);
note = d;
unicode = 100;
},
{
glyphname = e;
lastChange = "2024-02-26 18:48:38 +0000";
layers = (
{
layerId = m01;
shapes = (
{
closed = 1;
nodes = (
(526,217,l),
(533,239,l),
(533,282,l),
(456,478,l),
(278,540,l),
(96,474,l),
(16,260,l),
(96,46,l),
(278,-20,l),
(434,20,l),
(487,89,l),
(381,168,l),
(348,125,l),
(289,107,l),
(204,134,l),
(168,217,l)
);
},
{
closed = 1;
nodes = (
(274,413,l),
(347,388,l),
(378,319,l),
(171,319,l),
(205,388,l)
);
}
);
width = 557;
},
{
layerId = "56AAED68-C834-4DF9-BF24-1C0C08D215EB";
shapes = (
{
closed = 1;
nodes = (
(526,217,l),
(533,239,l),
(533,282,l),
(456,478,l),
(278,540,l),
(96,474,l),
(16,260,l),
(96,46,l),
(278,-20,l),
(434,20,l),
(487,89,l),
(381,168,l),
(348,125,l),
(289,107,l),
(204,134,l),
(168,217,l)
);
},
{
closed = 1;
nodes = (
(274,413,l),
(347,388,l),
(378,319,l),
(171,319,l),
(205,388,l)
);
}
);
width = 557;
}
);
note = e;
unicode = 101;
},
{
glyphname = f;
lastChange = "2024-02-26 18:48:38 +0000";
layers = (
{
layerId = m01;
shapes = (
{
closed = 1;
nodes = (
(245,401,l),
(356,401,l),
(356,520,l),
(245,520,l),
(245,547,l),
(259,594,l),
(300,608,l),
(354,598,l),
(375,722,l),
(258,738,l),
(134,684,l),
(98,545,l),
(98,520,l),
(20,520,l),
(20,401,l),
(98,401,l),
(98,0,l),
(245,0,l)
);
}
);
width = 385;
},
{
layerId = "56AAED68-C834-4DF9-BF24-1C0C08D215EB";
shapes = (
{
closed = 1;
nodes = (
(245,401,l),
(356,401,l),
(356,520,l),
(245,520,l),
(245,547,l),
(259,594,l),
(300,608,l),
(354,598,l),
(375,722,l),
(258,738,l),
(134,684,l),
(98,545,l),
(98,520,l),
(20,520,l),
(20,401,l),
(98,401,l),
(98,0,l),
(245,0,l)
);
}
);
width = 385;
}
);
note = f;
unicode = 102;
},
{
glyphname = g;
lastChange = "2024-02-26 18:48:38 +0000";
layers = (
{
layerId = m01;
shapes = (
{
closed = 1;
nodes = (
(526,17,l),
(526,520,l),
(385,520,l),
(385,459,l),
(327,523,l),
(247,543,l),
(84,474,l),
(18,267,l),
(87,60,l),
(252,-8,l),
(318,2,l),
(375,45,l),
(375,15,l),
(350,-68,l),
(267,-99,l),
(205,-88,l),
(155,-22,l),
(56,-97,l),
(107,-175,l),
(267,-218,l),
(468,-149,l)
);
},
{
closed = 1;
nodes = (
(386,267,l),
(357,155,l),
(279,119,l),
(200,155,l),
(171,267,l),
(202,380,l),
(278,415,l),
(355,380,l)
);
}
);
width = 580;
},
{
layerId = "56AAED68-C834-4DF9-BF24-1C0C08D215EB";
shapes = (
{
closed = 1;
nodes = (
(526,17,l),
(526,520,l),
(385,520,l),
(385,459,l),
(327,523,l),
(247,543,l),
(84,474,l),
(18,267,l),
(87,60,l),
(252,-8,l),
(318,2,l),
(375,45,l),
(375,15,l),
(350,-68,l),
(267,-99,l),
(205,-88,l),
(155,-22,l),
(56,-97,l),
(107,-175,l),
(267,-218,l),
(468,-149,l)
);
},
{
closed = 1;
nodes = (
(386,267,l),
(357,155,l),
(279,119,l),
(200,155,l),
(171,267,l),
(202,380,l),
(278,415,l),
(355,380,l)
);
}
);
width = 580;
}
);
note = g;
unicode = 103;
},
{
glyphname = h;
lastChange = "2024-02-26 18:48:38 +0000";
layers = (
{
layerId = m01;
shapes = (
{
closed = 1;
nodes = (
(205,281,l),
(234,378,l),
(302,410,l),
(364,385,l),
(383,314,l),
(383,0,l),
(534,0,l),
(534,318,l),
(495,476,l),
(343,539,l),
(264,520,l),
(205,455,l),
(205,720,l),
(55,720,l),
(55,0,l),
(205,0,l)
);
}
);
width = 583;
},
{
layerId = "56AAED68-C834-4DF9-BF24-1C0C08D215EB";
shapes = (
{
closed = 1;
nodes = (
(205,281,l),
(234,378,l),
(302,410,l),
(364,385,l),
(383,314,l),
(383,0,l),
(534,0,l),
(534,318,l),
(495,476,l),
(343,539,l),
(264,520,l),
(205,455,l),
(205,720,l),
(55,720,l),
(55,0,l),
(205,0,l)
);
}
);
width = 583;
}
);
note = h;
unicode = 104;
},
{
glyphname = i;
lastChange = "2024-02-26 18:59:52 +0000";
layers = (
{
layerId = m01;
shapes = (
{
closed = 1;
nodes = (
(205,0,l),
(205,520,l),
(55,520,l),
(55,0,l)
);
},
{
closed = 1;
nodes = (
(165,572,l),
(212,619,l),
(212,686,l),
(165,733,l),
(97,733,l),
(50,686,l),
(50,619,l),
(97,572,l)
);
}
);
width = 261;
},
{
layerId = "56AAED68-C834-4DF9-BF24-1C0C08D215EB";
shapes = (
{
closed = 1;
nodes = (
(205,0,l),
(205,520,l),
(55,520,l),
(55,0,l)
);
},
{
closed = 1;
nodes = (
(165,572,l),
(212,619,l),
(212,686,l),
(165,733,l),
(97,733,l),
(50,686,l),
(50,619,l),
(97,572,l)
);
}
);
width = 261;
}
);
note = i;
unicode = 105;
},
{
glyphname = j;
lastChange = "2024-02-26 18:59:59 +0000";
layers = (
{
layerId = m01;
shapes = (
{
closed = 1;
nodes = (
(161,-161,l),
(205,-27,l),
(205,520,l),
(55,520,l),
(55,29,l),
(45,-45,l),
(-9,-79,l),
(-45,-72,l),
(-67,-198,l),
(-19,-209,l),
(27,-212,l)
);
},
{
closed = 1;
nodes = (
(165,572,l),
(212,619,l),
(212,686,l),
(165,733,l),
(97,733,l),
(50,686,l),
(50,619,l),
(97,572,l)
);
}
);
width = 247;
},
{
layerId = "56AAED68-C834-4DF9-BF24-1C0C08D215EB";
shapes = (
{
closed = 1;
nodes = (
(161,-161,l),
(205,-27,l),
(205,520,l),
(55,520,l),
(55,29,l),
(45,-45,l),
(-9,-79,l),
(-45,-72,l),
(-67,-198,l),
(-19,-209,l),
(27,-212,l)
);
},
{
closed = 1;
nodes = (
(165,572,l),
(212,619,l),
(212,686,l),
(165,733,l),
(97,733,l),
(50,686,l),
(50,619,l),
(97,572,l)
);
}
);
width = 247;
}
);
note = j;
unicode = 106;
},
{
glyphname = k;
lastChange = "2024-02-26 18:48:38 +0000";
layers = (
{
layerId = m01;
shapes = (
{
closed = 1;
nodes = (
(56,721,l),
(55,0,l),
(206,0,l),
(206,200,l),
(288,200,l),
(385,-8,l),
(520,55,l),
(426,240,l),
(353,269,l),
(353,273,l),
(409,301,l),
(456,382,l),
(490,391,l),
(509,391,l),
(508,524,l),
(490,524,l),
(406,513,l),
(348,457,l),
(307,363,l),
(282,335,l),
(254,325,l),
(206,325,l),
(206,721,l)
);
}
);
width = 561;
},
{
layerId = "56AAED68-C834-4DF9-BF24-1C0C08D215EB";
shapes = (
{
closed = 1;
nodes = (
(56,721,l),
(55,0,l),
(206,0,l),
(206,200,l),
(288,200,l),
(385,-8,l),
(520,55,l),
(426,240,l),
(353,269,l),
(353,273,l),
(409,301,l),
(456,382,l),
(490,391,l),
(509,391,l),
(508,524,l),
(490,524,l),
(406,513,l),
(348,457,l),
(307,363,l),
(282,335,l),
(254,325,l),
(206,325,l),
(206,721,l)
);
}
);
width = 561;
}
);
note = k;
unicode = 107;
},
{
glyphname = l;
lastChange = "2024-02-26 18:48:38 +0000";
layers = (
{
layerId = m01;
shapes = (
{
closed = 1;
nodes = (
(55,720,l),
(55,0,l),
(206,0,l),
(206,720,l)
);
}
);
width = 261;
},
{
layerId = "56AAED68-C834-4DF9-BF24-1C0C08D215EB";
shapes = (
{
closed = 1;
nodes = (
(55,720,l),
(55,0,l),
(206,0,l),
(206,720,l)
);
}
);
width = 261;
}
);
note = l;
unicode = 108;
},
{
glyphname = m;
lastChange = "2024-02-26 18:48:38 +0000";
layers = (
{
layerId = m01;
shapes = (
{
closed = 1;
nodes = (
(206,269,l),
(229,373,l),
(295,412,l),
(341,391,l),
(359,318,l),
(359,0,l),
(508,0,l),
(508,292,l),
(537,380,l),
(600,412,l),
(650,386,l),
(664,318,l),
(664,0,l),
(814,0,l),
(814,358,l),
(771,493,l),
(651,540,l),
(562,518,l),
(494,439,l),
(443,515,l),
(347,540,l),
(259,520,l),
(196,446,l),
(196,521,l),
(55,521,l),
(55,0,l),
(206,0,l)
);
}
);
width = 869;
},
{
layerId = "56AAED68-C834-4DF9-BF24-1C0C08D215EB";
shapes = (
{
closed = 1;
nodes = (
(206,269,l),
(229,373,l),
(295,412,l),
(341,391,l),
(359,318,l),
(359,0,l),
(508,0,l),
(508,292,l),
(537,380,l),
(600,412,l),
(650,386,l),
(664,318,l),
(664,0,l),
(814,0,l),
(814,358,l),
(771,493,l),
(651,540,l),
(562,518,l),
(494,439,l),
(443,515,l),
(347,540,l),
(259,520,l),
(196,446,l),
(196,521,l),
(55,521,l),
(55,0,l),
(206,0,l)
);
}
);
width = 869;
}
);
note = m;
unicode = 109;
},
{
glyphname = n;
lastChange = "2024-02-26 18:48:38 +0000";
layers = (
{
layerId = m01;
shapes = (
{
closed = 1;
nodes = (
(205,283,l),
(234,379,l),
(302,412,l),
(364,387,l),
(383,316,l),
(383,0,l),
(534,0,l),
(534,320,l),
(495,478,l),
(343,540,l),
(260,519,l),
(195,445,l),
(195,520,l),
(55,520,l),
(55,0,l),
(205,0,l)
);
}
);
width = 588;
},
{
layerId = "56AAED68-C834-4DF9-BF24-1C0C08D215EB";
shapes = (
{
closed = 1;
nodes = (
(205,283,l),
(234,379,l),
(302,412,l),
(364,387,l),
(383,316,l),
(383,0,l),
(534,0,l),
(534,320,l),
(495,478,l),
(343,540,l),
(260,519,l),
(195,445,l),
(195,520,l),
(55,520,l),
(55,0,l),
(205,0,l)
);
}
);
width = 588;
}
);
note = n;
unicode = 110;
},
{
glyphname = o;
lastChange = "2024-02-26 18:48:38 +0000";
layers = (
{
layerId = m01;
shapes = (
{
closed = 1;
nodes = (
(20,260,l),
(99,46,l),
(284,-20,l),
(468,46,l),
(546,260,l),
(468,474,l),
(284,540,l),
(99,474,l)
);
},
{
closed = 1;
nodes = (
(173,260,l),
(201,373,l),
(284,413,l),
(365,373,l),
(393,260,l),
(365,146,l),
(284,107,l),
(201,146,l)
);
}
);
width = 566;
},
{
layerId = "56AAED68-C834-4DF9-BF24-1C0C08D215EB";
shapes = (
{
closed = 1;
nodes = (
(20,260,l),
(99,46,l),
(284,-20,l),
(468,46,l),
(546,260,l),
(468,474,l),
(284,540,l),
(99,474,l)
);
},
{
closed = 1;
nodes = (
(173,260,l),
(201,373,l),
(284,413,l),
(365,373,l),
(393,260,l),
(365,146,l),
(284,107,l),
(201,146,l)
);
}
);
width = 566;
}
);
note = o;
unicode = 111;
},
{
glyphname = p;
lastChange = "2024-02-26 18:48:38 +0000";
layers = (
{
layerId = m01;
shapes = (
{
closed = 1;
nodes = (
(206,-200,l),
(206,45,l),
(263,-7,l),
(329,-19,l),
(493,51,l),
(563,262,l),
(495,472,l),
(334,542,l),
(253,523,l),
(195,459,l),
(195,520,l),
(55,520,l),
(55,-200,l)
);
},
{
closed = 1;
nodes = (
(193,262,l),
(225,378,l),
(302,415,l),
(379,378,l),
(409,262,l),
(379,146,l),
(301,108,l),
(223,146,l)
);
}
);
width = 582;
},
{
layerId = "56AAED68-C834-4DF9-BF24-1C0C08D215EB";
shapes = (
{
closed = 1;
nodes = (
(206,-200,l),
(206,45,l),
(263,-7,l),
(329,-19,l),
(493,51,l),
(563,262,l),
(495,472,l),
(334,542,l),
(253,523,l),
(195,459,l),
(195,520,l),
(55,520,l),
(55,-200,l)
);
},
{
closed = 1;
nodes = (
(193,262,l),
(225,378,l),
(302,415,l),
(379,378,l),
(409,262,l),
(379,146,l),
(301,108,l),
(223,146,l)
);
}
);
width = 582;
}
);
note = p;
unicode = 112;
},
{
glyphname = q;
lastChange = "2024-02-26 18:48:38 +0000";
layers = (
{
layerId = m01;
shapes = (
{
closed = 1;
nodes = (
(387,459,l),
(329,523,l),
(249,542,l),
(87,472,l),
(20,262,l),
(90,51,l),
(254,-19,l),
(320,-7,l),
(377,45,l),
(377,-200,l),
(528,-200,l),
(528,520,l),
(387,520,l)
);
},
{
closed = 1;
nodes = (
(173,262,l),
(204,378,l),
(281,415,l),
(358,378,l),
(389,262,l),
(359,146,l),
(282,108,l),
(203,146,l)
);
}
);
width = 582;
},
{
layerId = "56AAED68-C834-4DF9-BF24-1C0C08D215EB";
shapes = (
{
closed = 1;
nodes = (
(387,459,l),
(329,523,l),
(249,542,l),
(87,472,l),
(20,262,l),
(90,51,l),
(254,-19,l),
(320,-7,l),
(377,45,l),
(377,-200,l),
(528,-200,l),
(528,520,l),
(387,520,l)
);
},
{
closed = 1;
nodes = (
(173,262,l),
(204,378,l),
(281,415,l),
(358,378,l),
(389,262,l),
(359,146,l),
(282,108,l),
(203,146,l)
);
}
);
width = 582;
}
);
note = q;
unicode = 113;
},
{
glyphname = r;
lastChange = "2024-02-26 18:48:38 +0000";
layers = (
{
layerId = m01;
shapes = (
{
closed = 1;
nodes = (
(205,230,l),
(237,352,l),
(336,397,l),
(399,389,l),
(435,514,l),
(340,540,l),
(252,514,l),
(196,430,l),
(196,520,l),
(55,520,l),
(55,0,l),
(205,0,l)
);
}
);
width = 444;
},
{
layerId = "56AAED68-C834-4DF9-BF24-1C0C08D215EB";
shapes = (
{
closed = 1;
nodes = (
(205,230,l),
(237,352,l),
(336,397,l),
(399,389,l),
(435,514,l),
(340,540,l),
(252,514,l),
(196,430,l),
(196,520,l),
(55,520,l),
(55,0,l),
(205,0,l)
);
}
);
width = 444;
}
);
note = r;
unicode = 114;
},
{
glyphname = s;
lastChange = "2024-02-26 18:48:38 +0000";
layers = (
{
layerId = m01;
shapes = (
{
closed = 1;
nodes = (
(77,29,l),
(229,-20,l),
(387,23,l),
(449,154,l),
(401,270,l),
(309,313,l),
(187,339,l),
(158,353,l),
(149,376,l),
(171,412,l),
(226,424,l),
(278,411,l),
(308,365,l),
(412,433,l),
(380,495,l),
(230,540,l),
(85,501,l),
(20,371,l),
(59,268,l),
(150,220,l),
(275,192,l),
(303,179,l),
(316,150,l),
(289,108,l),
(231,97,l),
(164,116,l),
(134,169,l),
(28,110,l)
);
}
);
width = 469;
},
{
layerId = "56AAED68-C834-4DF9-BF24-1C0C08D215EB";
shapes = (
{
closed = 1;
nodes = (
(77,29,l),
(229,-20,l),
(387,23,l),
(449,154,l),
(401,270,l),
(309,313,l),
(187,339,l),
(158,353,l),
(149,376,l),
(171,412,l),
(226,424,l),
(278,411,l),
(308,365,l),
(412,433,l),
(380,495,l),
(230,540,l),
(85,501,l),
(20,371,l),
(59,268,l),
(150,220,l),
(275,192,l),
(303,179,l),
(316,150,l),
(289,108,l),
(231,97,l),
(164,116,l),
(134,169,l),
(28,110,l)
);
}
);
width = 469;
}
);
note = s;
unicode = 115;
},
{
glyphname = t;
lastChange = "2024-02-26 18:48:38 +0000";
layers = (
{
layerId = m01;
shapes = (
{
closed = 1;
nodes = (
(292,116,l),
(250,138,l),
(244,194,l),
(244,401,l),
(344,401,l),
(344,521,l),
(244,521,l),
(244,670,l),
(94,670,l),
(94,521,l),
(20,521,l),
(20,401,l),
(94,401,l),
(94,148,l),
(128,27,l),
(246,-17,l),
(358,3,l),
(334,122,l)
);
}
);
width = 395;
},
{
layerId = "56AAED68-C834-4DF9-BF24-1C0C08D215EB";
shapes = (
{
closed = 1;
nodes = (
(292,116,l),
(250,138,l),
(244,194,l),
(244,401,l),
(344,401,l),
(344,521,l),
(244,521,l),
(244,670,l),
(94,670,l),
(94,521,l),
(20,521,l),
(20,401,l),
(94,401,l),
(94,148,l),
(128,27,l),
(246,-17,l),
(358,3,l),
(334,122,l)
);
}
);
width = 395;
}
);
note = t;
unicode = 116;
},
{
glyphname = u;
lastChange = "2024-02-26 18:48:38 +0000";
layers = (
{
layerId = m01;
shapes = (
{
closed = 1;
nodes = (
(379,237,l),
(350,141,l),
(282,108,l),
(219,133,l),
(201,204,l),
(201,520,l),
(50,520,l),
(50,200,l),
(88,42,l),
(241,-20,l),
(323,1,l),
(388,75,l),
(388,-1,l),
(530,-1,l),
(530,520,l),
(379,520,l)
);
}
);
width = 584;
},
{
layerId = "56AAED68-C834-4DF9-BF24-1C0C08D215EB";
shapes = (
{
closed = 1;
nodes = (
(379,237,l),
(350,141,l),
(282,108,l),
(219,133,l),
(201,204,l),
(201,520,l),
(50,520,l),
(50,200,l),
(88,42,l),
(241,-20,l),
(323,1,l),
(388,75,l),
(388,-1,l),
(530,-1,l),
(530,520,l),
(379,520,l)
);
}
);
width = 584;
}
);
note = u;
unicode = 117;
},
{
glyphname = v;
lastChange = "2024-02-26 18:48:38 +0000";
layers = (
{
layerId = m01;
shapes = (
{
closed = 1;
nodes = (
(401,528,l),
(270,184,l),
(142,528,l),
(10,479,l),
(205,0,l),
(337,0,l),
(531,478,l)
);
}
);
width = 541;
},
{
layerId = "56AAED68-C834-4DF9-BF24-1C0C08D215EB";
shapes = (
{
closed = 1;
nodes = (
(401,528,l),
(270,184,l),
(142,528,l),
(10,479,l),
(205,0,l),
(337,0,l),
(531,478,l)
);
}
);
width = 541;
}
);
note = v;
unicode = 118;
},
{
glyphname = w;
lastChange = "2024-02-26 18:48:38 +0000";
layers = (
{
layerId = m01;
shapes = (
{
closed = 1;
nodes = (
(480,0,l),
(611,0,l),
(765,494,l),
(630,528,l),
(539,179,l),
(454,520,l),
(323,520,l),
(236,168,l),
(151,528,l),
(10,495,l),
(159,0,l),
(292,0,l),
(390,349,l)
);
}
);
width = 775;
},
{
layerId = "56AAED68-C834-4DF9-BF24-1C0C08D215EB";
shapes = (
{
closed = 1;
nodes = (
(480,0,l),
(611,0,l),
(765,494,l),
(630,528,l),
(539,179,l),
(454,520,l),
(323,520,l),
(236,168,l),
(151,528,l),
(10,495,l),
(159,0,l),
(292,0,l),
(390,349,l)
);
}
);
width = 775;
}
);
note = w;
unicode = 119;
},
{
glyphname = x;
lastChange = "2024-02-26 18:48:38 +0000";
layers = (
{
layerId = m01;
shapes = (
{
closed = 1;
nodes = (
(343,-8,l),
(470,70,l),
(341,269,l),
(462,458,l),
(338,528,l),
(248,372,l),
(160,528,l),
(27,453,l),
(151,266,l),
(15,65,l),
(138,-8,l),
(240,160,l)
);
}
);
width = 485;
},
{
layerId = "56AAED68-C834-4DF9-BF24-1C0C08D215EB";
shapes = (
{
closed = 1;
nodes = (
(343,-8,l),
(470,70,l),
(341,269,l),
(462,458,l),
(338,528,l),
(248,372,l),
(160,528,l),
(27,453,l),
(151,266,l),
(15,65,l),
(138,-8,l),
(240,160,l)
);
}
);
width = 485;
}
);
note = x;
unicode = 120;
},
{
glyphname = y;
lastChange = "2024-02-26 18:48:38 +0000";
layers = (
{
layerId = m01;
shapes = (
{
closed = 1;
nodes = (
(15,-189,l),
(132,-218,l),
(253,-171,l),
(334,-33,l),
(524,482,l),
(392,528,l),
(270,178,l),
(147,528,l),
(12,480,l),
(201,2,l),
(157,-67,l),
(105,-81,l),
(44,-66,l)
);
}
);
width = 536;
},
{
layerId = "56AAED68-C834-4DF9-BF24-1C0C08D215EB";
shapes = (
{
closed = 1;
nodes = (
(15,-189,l),
(132,-218,l),
(253,-171,l),
(334,-33,l),
(524,482,l),
(392,528,l),
(270,178,l),
(147,528,l),
(12,480,l),
(201,2,l),
(157,-67,l),
(105,-81,l),
(44,-66,l)
);
}
);
width = 536;
}
);
note = y;
unicode = 121;
},
{
glyphname = z;
lastChange = "2024-02-26 18:48:38 +0000";
layers = (
{
layerId = m01;
shapes = (
{
closed = 1;
nodes = (
(211,125,l),
(232,147,l),
(463,395,l),
(463,520,l),
(54,520,l),
(54,395,l),
(282,395,l),
(35,125,l),
(35,0,l),
(469,0,l),
(469,125,l)
);
}
);
width = 504;
},
{
layerId = "56AAED68-C834-4DF9-BF24-1C0C08D215EB";
shapes = (
{
closed = 1;
nodes = (
(211,125,l),
(232,147,l),
(463,395,l),
(463,520,l),
(54,520,l),
(54,395,l),
(282,395,l),
(35,125,l),
(35,0,l),
(469,0,l),
(469,125,l)
);
}
);
width = 504;
}
);
note = z;
unicode = 122;
},
{
glyphname = braceleft;
lastChange = "2024-02-26 18:48:38 +0000";
layers = (
{
layerId = m01;
shapes = (
{
closed = 1;
nodes = (
(242,824,l),
(124,773,l),
(90,642,l),
(90,507,l),
(68,437,l),
(20,417,l),
(20,297,l),
(68,277,l),
(90,207,l),
(90,72,l),
(124,-59,l),
(242,-110,l),
(319,-100,l),
(319,19,l),
(283,19,l),
(243,51,l),
(240,124,l),
(240,257,l),
(216,326,l),
(170,357,l),
(216,388,l),
(240,457,l),
(240,590,l),
(243,662,l),
(283,695,l),
(319,695,l),
(319,814,l)
);
}
);
width = 349;
},
{
layerId = "56AAED68-C834-4DF9-BF24-1C0C08D215EB";
shapes = (
{
closed = 1;
nodes = (
(242,824,l),
(124,773,l),
(90,642,l),
(90,507,l),
(68,437,l),
(20,417,l),
(20,297,l),
(68,277,l),
(90,207,l),
(90,72,l),
(124,-59,l),
(242,-110,l),
(319,-100,l),
(319,19,l),
(283,19,l),
(243,51,l),
(240,124,l),
(240,257,l),
(216,326,l),
(170,357,l),
(216,388,l),
(240,457,l),
(240,590,l),
(243,662,l),
(283,695,l),
(319,695,l),
(319,814,l)
);
}
);
width = 349;
}
);
note = braceleft;
unicode = 123;
},
{
glyphname = bar;
lastChange = "2024-02-26 18:48:38 +0000";
layers = (
{
layerId = m01;
shapes = (
{
closed = 1;
nodes = (
(60,820,l),
(60,-100,l),
(220,-100,l),
(220,820,l)
);
}
);
width = 280;
},
{
layerId = "56AAED68-C834-4DF9-BF24-1C0C08D215EB";
shapes = (
{
closed = 1;
nodes = (
(60,820,l),
(60,-100,l),
(220,-100,l),
(220,820,l)
);
}
);
width = 280;
}
);
note = bar;
unicode = 124;
},
{
glyphname = braceright;
lastChange = "2024-02-26 18:48:38 +0000";
layers = (
{
layerId = m01;
shapes = (
{
closed = 1;
nodes = (
(59,695,l),
(99,663,l),
(102,590,l),
(102,457,l),
(126,388,l),
(172,357,l),
(126,326,l),
(102,257,l),
(102,124,l),
(99,52,l),
(59,19,l),
(23,19,l),
(23,-100,l),
(100,-110,l),
(218,-59,l),
(252,72,l),
(252,207,l),
(274,277,l),
(322,297,l),
(322,417,l),
(274,437,l),
(252,507,l),
(252,642,l),
(218,773,l),
(100,824,l),
(23,814,l),
(23,695,l)
);
}
);
width = 341;
},
{
layerId = "56AAED68-C834-4DF9-BF24-1C0C08D215EB";
shapes = (
{
closed = 1;
nodes = (
(59,695,l),
(99,663,l),
(102,590,l),
(102,457,l),
(126,388,l),
(172,357,l),
(126,326,l),
(102,257,l),
(102,124,l),
(99,52,l),
(59,19,l),
(23,19,l),
(23,-100,l),
(100,-110,l),
(218,-59,l),
(252,72,l),
(252,207,l),
(274,277,l),
(322,297,l),
(322,417,l),
(274,437,l),
(252,507,l),
(252,642,l),
(218,773,l),
(100,824,l),
(23,814,l),
(23,695,l)
);
}
);
width = 341;
}
);
note = braceright;
unicode = 125;
},
{
glyphname = asciitilde;
lastChange = "2024-02-26 18:48:38 +0000";
layers = (
{
layerId = m01;
shapes = (
{
closed = 1;
nodes = (
(161,314,l),
(237,334,l),
(330,289,l),
(437,243,l),
(510,258,l),
(656,360,l),
(575,457,l),
(514,406,l),
(437,385,l),
(345,431,l),
(237,477,l),
(165,462,l),
(20,360,l),
(100,263,l)
);
}
);
width = 675;
},
{
layerId = "56AAED68-C834-4DF9-BF24-1C0C08D215EB";
shapes = (
{
closed = 1;
nodes = (
(161,314,l),
(237,334,l),
(330,289,l),
(437,243,l),
(510,258,l),
(656,360,l),
(575,457,l),
(514,406,l),
(437,385,l),
(345,431,l),
(237,477,l),
(165,462,l),
(20,360,l),
(100,263,l)
);
}
);
width = 675;
}
);
note = asciitilde;
unicode = 126;
},
{
glyphname = exclamdown;
lastChange = "2024-02-26 18:48:38 +0000";
layers = (
{
layerId = m01;
shapes = (
{
closed = 1;
nodes = (
(50,412,l)
);
},
{
closed = 1;
nodes = (
(212,478,l),
(165,525,l),
(97,525,l),
(50,478,l),
(50,412,l),
(97,365,l),
(165,365,l),
(212,412,l)
);
},
{
closed = 1;
nodes = (
(210,-200,l),
(188,292,l),
(72,292,l),
(51,-200,l)
);
}
);
width = 261;
},
{
layerId = "56AAED68-C834-4DF9-BF24-1C0C08D215EB";
shapes = (
{
closed = 1;
nodes = (
(50,412,l)
);
},
{
closed = 1;
nodes = (
(212,478,l),
(165,525,l),
(97,525,l),
(50,478,l),
(50,412,l),
(97,365,l),
(165,365,l),
(212,412,l)
);
},
{
closed = 1;
nodes = (
(210,-200,l),
(188,292,l),
(72,292,l),
(51,-200,l)
);
}
);
width = 261;
}
);
note = exclamdown;
unicode = 161;
},
{
glyphname = cent;
lastChange = "2024-02-26 18:48:38 +0000";
layers = (
{
layerId = m01;
shapes = (
{
closed = 1;
nodes = (
(235,-115,l),
(311,-115,l),
(311,-18,l),
(442,35,l),
(502,144,l),
(367,195,l),
(346,142,l),
(311,113,l),
(311,406,l),
(347,377,l),
(368,323,l),
(502,374,l),
(442,485,l),
(311,539,l),
(311,635,l),
(235,635,l),
(235,539,l),
(82,460,l),
(20,260,l),
(82,60,l),
(235,-18,l)
);
},
{
closed = 1;
nodes = (
(173,260,l),
(189,355,l),
(235,405,l),
(235,114,l),
(188,165,l)
);
}
);
width = 526;
},
{
layerId = "56AAED68-C834-4DF9-BF24-1C0C08D215EB";
shapes = (
{
closed = 1;
nodes = (
(235,-115,l),
(311,-115,l),
(311,-18,l),
(442,35,l),
(502,144,l),
(367,195,l),
(346,142,l),
(311,113,l),
(311,406,l),
(347,377,l),
(368,323,l),
(502,374,l),
(442,485,l),
(311,539,l),
(311,635,l),
(235,635,l),
(235,539,l),
(82,460,l),
(20,260,l),
(82,60,l),
(235,-18,l)
);
},
{
closed = 1;
nodes = (
(173,260,l),
(189,355,l),
(235,405,l),
(235,114,l),
(188,165,l)
);
}
);
width = 526;
}
);
note = cent;
unicode = 162;
},
{
glyphname = currency;
lastChange = "2024-02-26 18:48:38 +0000";
layers = (
{
layerId = m01;
shapes = (
{
closed = 1;
nodes = (
(560,190,l),
(493,258,l),
(513,360,l),
(492,462,l),
(560,531,l),
(469,624,l),
(405,559,l),
(298,586,l),
(191,559,l),
(127,624,l),
(35,531,l),
(103,462,l),
(83,360,l),
(103,258,l),
(35,190,l),
(127,98,l),
(190,161,l),
(298,134,l),
(405,161,l),
(468,97,l)
);
},
{
closed = 1;
nodes = (
(217,360,l),
(242,428,l),
(298,450,l),
(355,428,l),
(378,360,l),
(355,293,l),
(298,270,l),
(241,293,l)
);
}
);
width = 595;
},
{
layerId = "56AAED68-C834-4DF9-BF24-1C0C08D215EB";
shapes = (
{
closed = 1;
nodes = (
(560,190,l),
(493,258,l),
(513,360,l),
(492,462,l),
(560,531,l),
(469,624,l),
(405,559,l),
(298,586,l),
(191,559,l),
(127,624,l),
(35,531,l),
(103,462,l),
(83,360,l),
(103,258,l),
(35,190,l),
(127,98,l),
(190,161,l),
(298,134,l),
(405,161,l),
(468,97,l)
);
},
{
closed = 1;
nodes = (
(217,360,l),
(242,428,l),
(298,450,l),
(355,428,l),
(378,360,l),
(355,293,l),
(298,270,l),
(241,293,l)
);
}
);
width = 595;
}
);
note = currency;
unicode = 164;
},
{
glyphname = yen;
lastChange = "2024-02-26 18:48:38 +0000";
layers = (
{
layerId = m01;
shapes = (
{
closed = 1;
nodes = (
(540,108,l),
(540,183,l),
(390,183,l),
(390,228,l),
(540,228,l),
(540,303,l),
(396,303,l),
(611,653,l),
(487,728,l),
(314,443,l),
(137,728,l),
(10,650,l),
(223,303,l),
(79,303,l),
(79,228,l),
(229,228,l),
(229,183,l),
(79,183,l),
(79,108,l),
(229,108,l),
(229,0,l),
(390,0,l),
(390,108,l)
);
}
);
width = 621;
},
{
layerId = "56AAED68-C834-4DF9-BF24-1C0C08D215EB";
shapes = (
{
closed = 1;
nodes = (
(540,108,l),
(540,183,l),
(390,183,l),
(390,228,l),
(540,228,l),
(540,303,l),
(396,303,l),
(611,653,l),
(487,728,l),
(314,443,l),
(137,728,l),
(10,650,l),
(223,303,l),
(79,303,l),
(79,228,l),
(229,228,l),
(229,183,l),
(79,183,l),
(79,108,l),
(229,108,l),
(229,0,l),
(390,0,l),
(390,108,l)
);
}
);
width = 621;
}
);
note = yen;
unicode = 165;
},
{
glyphname = brokenbar;
lastChange = "2024-02-26 18:48:38 +0000";
layers = (
{
layerId = m01;
shapes = (
{
closed = 1;
nodes = (
(60,325,l),
(60,-100,l),
(220,-100,l),
(220,325,l)
);
},
{
closed = 1;
nodes = (
(220,820,l),
(60,820,l),
(60,410,l),
(220,410,l)
);
}
);
width = 280;
},
{
layerId = "56AAED68-C834-4DF9-BF24-1C0C08D215EB";
shapes = (
{
closed = 1;
nodes = (
(60,325,l),
(60,-100,l),
(220,-100,l),
(220,325,l)
);
},
{
closed = 1;
nodes = (
(220,820,l),
(60,820,l),
(60,410,l),
(220,410,l)
);
}
);
width = 280;
}
);
note = brokenbar;
unicode = 166;
},
{
glyphname = section;
lastChange = "2024-02-26 18:48:38 +0000";
layers = (
{
layerId = m01;
shapes = (
{
closed = 1;
nodes = (
(90,21,l),
(262,-23,l),
(427,14,l),
(497,139,l),
(484,207,l),
(441,258,l),
(478,300,l),
(497,362,l),
(457,462,l),
(361,512,l),
(233,550,l),
(194,564,l),
(178,591,l),
(195,616,l),
(253,625,l),
(305,612,l),
(327,577,l),
(443,652,l),
(418,700,l),
(255,743,l),
(101,706,l),
(30,586,l),
(44,515,l),
(92,464,l),
(53,430,l),
(30,356,l),
(63,267,l),
(138,224,l),
(326,166,l),
(344,139,l),
(324,106,l),
(265,95,l),
(197,110,l),
(175,159,l),
(47,103,l)
);
},
{
closed = 1;
nodes = (
(178,379,l),
(191,411,l),
(214,422,l),
(301,399,l),
(332,382,l),
(344,350,l),
(332,321,l),
(306,307,l),
(214,332,l),
(188,349,l)
);
}
);
width = 526;
},
{
layerId = "56AAED68-C834-4DF9-BF24-1C0C08D215EB";
shapes = (
{
closed = 1;
nodes = (
(90,21,l),
(262,-23,l),
(427,14,l),
(497,139,l),
(484,207,l),
(441,258,l),
(478,300,l),
(497,362,l),
(457,462,l),
(361,512,l),
(233,550,l),
(194,564,l),
(178,591,l),
(195,616,l),
(253,625,l),
(305,612,l),
(327,577,l),
(443,652,l),
(418,700,l),
(255,743,l),
(101,706,l),
(30,586,l),
(44,515,l),
(92,464,l),
(53,430,l),
(30,356,l),
(63,267,l),
(138,224,l),
(326,166,l),
(344,139,l),
(324,106,l),
(265,95,l),
(197,110,l),
(175,159,l),
(47,103,l)
);
},
{
closed = 1;
nodes = (
(178,379,l),
(191,411,l),
(214,422,l),
(301,399,l),
(332,382,l),
(344,350,l),
(332,321,l),
(306,307,l),
(214,332,l),
(188,349,l)
);
}
);
width = 526;
}
);
note = section;
unicode = 167;
},
{
glyphname = copyright;
lastChange = "2024-02-26 18:48:38 +0000";
layers = (
{
layerId = m01;
shapes = (
{
closed = 1;
nodes = (
(30,260,l),
(104,58,l),
(295,-21,l),
(486,58,l),
(560,260,l),
(486,462,l),
(295,540,l),
(104,462,l)
);
},
{
closed = 1;
nodes = (
(130,260,l),
(172,390,l),
(295,445,l),
(418,390,l),
(460,260,l),
(418,129,l),
(295,75,l),
(172,129,l)
);
},
{
closed = 1;
nodes = (
(252,260,l),
(264,298,l),
(295,313,l),
(321,305,l),
(335,282,l),
(400,317,l),
(370,373,l),
(295,396,l),
(207,355,l),
(176,260,l),
(207,164,l),
(295,123,l),
(370,146,l),
(403,206,l),
(335,238,l),
(321,214,l),
(295,205,l),
(264,220,l)
);
}
);
width = 590;
},
{
layerId = "56AAED68-C834-4DF9-BF24-1C0C08D215EB";
shapes = (
{
closed = 1;
nodes = (
(30,260,l),
(104,58,l),
(295,-21,l),
(486,58,l),
(560,260,l),
(486,462,l),
(295,540,l),
(104,462,l)
);
},
{
closed = 1;
nodes = (
(130,260,l),
(172,390,l),
(295,445,l),
(418,390,l),
(460,260,l),
(418,129,l),
(295,75,l),
(172,129,l)
);
},
{
closed = 1;
nodes = (
(252,260,l),
(264,298,l),
(295,313,l),
(321,305,l),
(335,282,l),
(400,317,l),
(370,373,l),
(295,396,l),
(207,355,l),
(176,260,l),
(207,164,l),
(295,123,l),
(370,146,l),
(403,206,l),
(335,238,l),
(321,214,l),
(295,205,l),
(264,220,l)
);
}
);
width = 590;
}
);
note = copyright;
unicode = 169;
},
{
glyphname = guillemotleft;
lastChange = "2024-02-26 18:48:38 +0000";
layers = (
{
layerId = m01;
shapes = (
{
closed = 1;
nodes = (
(451,94,l),
(357,263,l),
(451,432,l),
(359,483,l),
(210,263,l),
(360,43,l)
);
},
{
closed = 1;
nodes = (
(261,94,l),
(167,263,l),
(261,432,l),
(169,483,l),
(20,263,l),
(170,43,l)
);
}
);
width = 471;
},
{
layerId = "56AAED68-C834-4DF9-BF24-1C0C08D215EB";
shapes = (
{
closed = 1;
nodes = (
(451,94,l),
(357,263,l),
(451,432,l),
(359,483,l),
(210,263,l),
(360,43,l)
);
},
{
closed = 1;
nodes = (
(261,94,l),
(167,263,l),
(261,432,l),
(169,483,l),
(20,263,l),
(170,43,l)
);
}
);
width = 471;
}
);
note = guillemotleft;
unicode = 171;
},
{
glyphname = registered;
lastChange = "2024-02-26 18:48:38 +0000";
layers = (
{
layerId = m01;
shapes = (
{
closed = 1;
nodes = (
(309,349,l),
(349,338,l),
(360,311,l),
(350,285,l),
(310,272,l),
(263,272,l),
(263,349,l)
);
},
{
closed = 1;
nodes = (
(263,220,l),
(315,220,l),
(375,133,l),
(427,165,l),
(371,238,l),
(396,246,l),
(424,312,l),
(389,380,l),
(312,400,l),
(201,400,l),
(201,136,l),
(263,136,l)
);
},
{
closed = 1;
nodes = (
(30,260,l),
(104,58,l),
(295,-21,l),
(486,58,l),
(560,260,l),
(486,462,l),
(295,540,l),
(104,462,l)
);
},
{
closed = 1;
nodes = (
(130,260,l),
(172,390,l),
(295,444,l),
(418,390,l),
(460,260,l),
(418,129,l),
(295,75,l),
(172,129,l)
);
}
);
width = 590;
},
{
layerId = "56AAED68-C834-4DF9-BF24-1C0C08D215EB";
shapes = (
{
closed = 1;
nodes = (
(309,349,l),
(349,338,l),
(360,311,l),
(350,285,l),
(310,272,l),
(263,272,l),
(263,349,l)
);
},
{
closed = 1;
nodes = (
(263,220,l),
(315,220,l),
(375,133,l),
(427,165,l),
(371,238,l),
(396,246,l),
(424,312,l),
(389,380,l),
(312,400,l),
(201,400,l),
(201,136,l),
(263,136,l)
);
},
{
closed = 1;
nodes = (
(30,260,l),
(104,58,l),
(295,-21,l),
(486,58,l),
(560,260,l),
(486,462,l),
(295,540,l),
(104,462,l)
);
},
{
closed = 1;
nodes = (
(130,260,l),
(172,390,l),
(295,444,l),
(418,390,l),
(460,260,l),
(418,129,l),
(295,75,l),
(172,129,l)
);
}
);
width = 590;
}
);
note = registered;
unicode = 174;
},
{
glyphname = degree;
lastChange = "2024-02-26 18:48:38 +0000";
layers = (
{
layerId = m01;
shapes = (
{
closed = 1;
nodes = (
(37,592,l),
(80,489,l),
(183,446,l),
(286,489,l),
(329,592,l),
(286,695,l),
(183,738,l),
(80,695,l)
);
},
{
closed = 1;
nodes = (
(132,592,l),
(147,627,l),
(183,641,l),
(218,627,l),
(232,592,l),
(218,556,l),
(183,541,l),
(147,556,l)
);
}
);
width = 366;
},
{
layerId = "56AAED68-C834-4DF9-BF24-1C0C08D215EB";
shapes = (
{
closed = 1;
nodes = (
(37,592,l),
(80,489,l),
(183,446,l),
(286,489,l),
(329,592,l),
(286,695,l),
(183,738,l),
(80,695,l)
);
},
{
closed = 1;
nodes = (
(132,592,l),
(147,627,l),
(183,641,l),
(218,627,l),
(232,592,l),
(218,556,l),
(183,541,l),
(147,556,l)
);
}
);
width = 366;
}
);
note = degree;
unicode = 176;
},
{
glyphname = plusminus;
lastChange = "2024-02-26 18:48:38 +0000";
layers = (
{
layerId = m01;
shapes = (
{
closed = 1;
nodes = (
(536,520,l),
(365,520,l),
(365,680,l),
(230,680,l),
(230,520,l),
(60,520,l),
(60,385,l),
(230,385,l),
(230,254,l),
(365,254,l),
(365,385,l),
(536,385,l)
);
},
{
closed = 1;
nodes = (
(60,190,l),
(60,55,l),
(536,55,l),
(536,190,l)
);
}
);
width = 596;
},
{
layerId = "56AAED68-C834-4DF9-BF24-1C0C08D215EB";
shapes = (
{
closed = 1;
nodes = (
(536,520,l),
(365,520,l),
(365,680,l),
(230,680,l),
(230,520,l),
(60,520,l),
(60,385,l),
(230,385,l),
(230,254,l),
(365,254,l),
(365,385,l),
(536,385,l)
);
},
{
closed = 1;
nodes = (
(60,190,l),
(60,55,l),
(536,55,l),
(536,190,l)
);
}
);
width = 596;
}
);
note = plusminus;
unicode = 177;
},
{
glyphname = acute;
lastChange = "2024-02-26 18:48:38 +0000";
layers = (
{
layerId = m01;
shapes = (
{
closed = 1;
nodes = (
(137,533,l),
(277,745,l),
(137,838,l),
(40,597,l)
);
}
);
width = 306;
},
{
layerId = "56AAED68-C834-4DF9-BF24-1C0C08D215EB";
shapes = (
{
closed = 1;
nodes = (
(137,533,l),
(277,745,l),
(137,838,l),
(40,597,l)
);
}
);
width = 306;
}
);
note = acute;
unicode = 180;
},
{
glyphname = paragraph;
lastChange = "2024-02-26 18:48:38 +0000";
layers = (
{
layerId = m01;
shapes = (
{
closed = 1;
nodes = (
(291,735,l),
(380,735,l),
(380,-100,l),
(543,-100,l),
(543,735,l),
(624,735,l),
(624,820,l),
(244,820,l),
(75,769,l),
(10,614,l),
(65,473,l),
(211,416,l),
(211,-100,l),
(291,-100,l)
);
}
);
width = 636;
},
{
layerId = "56AAED68-C834-4DF9-BF24-1C0C08D215EB";
shapes = (
{
closed = 1;
nodes = (
(291,735,l),
(380,735,l),
(380,-100,l),
(543,-100,l),
(543,735,l),
(624,735,l),
(624,820,l),
(244,820,l),
(75,769,l),
(10,614,l),
(65,473,l),
(211,416,l),
(211,-100,l),
(291,-100,l)
);
}
);
width = 636;
}
);
note = paragraph;
unicode = 182;
},
{
glyphname = periodcentered;
lastChange = "2024-02-26 18:48:38 +0000";
layers = (
{
layerId = m01;
shapes = (
{
closed = 1;
nodes = (
(43,228,l)
);
},
{
closed = 1;
nodes = (
(208,296,l),
(160,344,l),
(91,344,l),
(43,296,l),
(43,228,l),
(91,180,l),
(160,180,l),
(208,228,l)
);
}
);
width = 251;
},
{
layerId = "56AAED68-C834-4DF9-BF24-1C0C08D215EB";
shapes = (
{
closed = 1;
nodes = (
(43,228,l)
);
},
{
closed = 1;
nodes = (
(208,296,l),
(160,344,l),
(91,344,l),
(43,296,l),
(43,228,l),
(91,180,l),
(160,180,l),
(208,228,l)
);
}
);
width = 251;
}
);
note = periodcentered;
unicode = 183;
},
{
glyphname = guillemotright;
lastChange = "2024-02-26 18:48:38 +0000";
layers = (
{
layerId = m01;
shapes = (
{
closed = 1;
nodes = (
(20,432,l),
(114,263,l),
(20,94,l),
(111,43,l),
(261,263,l),
(112,483,l)
);
},
{
closed = 1;
nodes = (
(210,432,l),
(304,263,l),
(210,94,l),
(301,43,l),
(451,263,l),
(302,483,l)
);
}
);
width = 471;
},
{
layerId = "56AAED68-C834-4DF9-BF24-1C0C08D215EB";
shapes = (
{
closed = 1;
nodes = (
(20,432,l),
(114,263,l),
(20,94,l),
(111,43,l),
(261,263,l),
(112,483,l)
);
},
{
closed = 1;
nodes = (
(210,432,l),
(304,263,l),
(210,94,l),
(301,43,l),
(451,263,l),
(302,483,l)
);
}
);
width = 471;
}
);
note = guillemotright;
unicode = 187;
},
{
glyphname = questiondown;
lastChange = "2024-02-26 18:48:38 +0000";
layers = (
{
layerId = m01;
shapes = (
{
closed = 1;
nodes = (
(215,412,l)
);
},
{
closed = 1;
nodes = (
(376,478,l),
(329,525,l),
(261,525,l),
(214,478,l),
(215,412,l),
(262,365,l),
(329,365,l),
(376,412,l)
);
},
{
closed = 1;
nodes = (
(225,282,l),
(209,221,l),
(90,100,l),
(54,-14,l),
(124,-164,l),
(299,-220,l),
(457,-163,l),
(524,-24,l),
(384,26,l),
(356,-52,l),
(298,-78,l),
(235,-60,l),
(212,-8,l),
(228,45,l),
(279,93,l),
(348,168,l),
(370,271,l),
(370,312,l),
(225,312,l)
);
}
);
width = 596;
},
{
layerId = "56AAED68-C834-4DF9-BF24-1C0C08D215EB";
shapes = (
{
closed = 1;
nodes = (
(215,412,l)
);
},
{
closed = 1;
nodes = (
(376,478,l),
(329,525,l),
(261,525,l),
(214,478,l),
(215,412,l),
(262,365,l),
(329,365,l),
(376,412,l)
);
},
{
closed = 1;
nodes = (
(225,282,l),
(209,221,l),
(90,100,l),
(54,-14,l),
(124,-164,l),
(299,-220,l),
(457,-163,l),
(524,-24,l),
(384,26,l),
(356,-52,l),
(298,-78,l),
(235,-60,l),
(212,-8,l),
(228,45,l),
(279,93,l),
(348,168,l),
(370,271,l),
(370,312,l),
(225,312,l)
);
}
);
width = 596;
}
);
note = questiondown;
unicode = 191;
},
{
glyphname = Agrave;
lastChange = "2024-02-26 18:48:38 +0000";
layers = (
{
layerId = m01;
shapes = (
{
closed = 1;
nodes = (
(151,-8,l),
(201,130,l),
(488,130,l),
(539,-8,l),
(682,48,l),
(421,720,l),
(277,720,l),
(10,48,l)
);
},
{
closed = 1;
nodes = (
(250,262,l),
(345,521,l),
(440,262,l)
);
},
{
closed = 1;
nodes = (
(301,780,l),
(412,853,l),
(340,1027,l),
(200,934,l)
);
}
);
width = 692;
},
{
layerId = "56AAED68-C834-4DF9-BF24-1C0C08D215EB";
shapes = (
{
closed = 1;
nodes = (
(151,-8,l),
(201,130,l),
(488,130,l),
(539,-8,l),
(682,48,l),
(421,720,l),
(277,720,l),
(10,48,l)
);
},
{
closed = 1;
nodes = (
(250,262,l),
(345,521,l),
(440,262,l)
);
},
{
closed = 1;
nodes = (
(301,780,l),
(412,853,l),
(340,1027,l),
(200,934,l)
);
}
);
width = 692;
}
);
note = Agrave;
unicode = 192;
},
{
glyphname = Aacute;
lastChange = "2024-02-26 18:48:38 +0000";
layers = (
{
layerId = m01;
shapes = (
{
closed = 1;
nodes = (
(394,782,l),
(495,937,l),
(355,1030,l),
(283,856,l)
);
},
{
closed = 1;
nodes = (
(151,-8,l),
(201,130,l),
(488,130,l),
(539,-8,l),
(682,48,l),
(421,720,l),
(277,720,l),
(10,48,l)
);
},
{
closed = 1;
nodes = (
(250,262,l),
(345,521,l),
(440,262,l)
);
}
);
width = 692;
},
{
layerId = "56AAED68-C834-4DF9-BF24-1C0C08D215EB";
shapes = (
{
closed = 1;
nodes = (
(394,782,l),
(495,937,l),
(355,1030,l),
(283,856,l)
);
},
{
closed = 1;
nodes = (
(151,-8,l),
(201,130,l),
(488,130,l),
(539,-8,l),
(682,48,l),
(421,720,l),
(277,720,l),
(10,48,l)
);
},
{
closed = 1;
nodes = (
(250,262,l),
(345,521,l),
(440,262,l)
);
}
);
width = 692;
}
);
note = Aacute;
unicode = 193;
},
{
glyphname = Acircumflex;
lastChange = "2024-02-26 18:48:38 +0000";
layers = (
{
layerId = m01;
shapes = (
{
closed = 1;
nodes = (
(271,760,l),
(350,901,l),
(427,760,l),
(534,817,l),
(422,991,l),
(279,991,l),
(167,818,l)
);
},
{
closed = 1;
nodes = (
(151,-10,l),
(201,128,l),
(488,128,l),
(539,-10,l),
(682,46,l),
(421,719,l),
(277,719,l),
(10,46,l)
);
},
{
closed = 1;
nodes = (
(250,260,l),
(345,520,l),
(440,260,l)
);
}
);
width = 692;
},
{
layerId = "56AAED68-C834-4DF9-BF24-1C0C08D215EB";
shapes = (
{
closed = 1;
nodes = (
(271,760,l),
(350,901,l),
(427,760,l),
(534,817,l),
(422,991,l),
(279,991,l),
(167,818,l)
);
},
{
closed = 1;
nodes = (
(151,-10,l),
(201,128,l),
(488,128,l),
(539,-10,l),
(682,46,l),
(421,719,l),
(277,719,l),
(10,46,l)
);
},
{
closed = 1;
nodes = (
(250,260,l),
(345,520,l),
(440,260,l)
);
}
);
width = 692;
}
);
note = Acircumflex;
unicode = 194;
},
{
glyphname = Adieresis;
lastChange = "2024-02-26 18:48:38 +0000";
layers = (
{
layerId = m01;
shapes = (
{
closed = 1;
nodes = (
(372,817,l)
);
},
{
closed = 1;
nodes = (
(534,883,l),
(487,930,l),
(419,930,l),
(372,883,l),
(372,817,l),
(419,770,l),
(487,770,l),
(534,817,l)
);
},
{
closed = 1;
nodes = (
(158,817,l)
);
},
{
closed = 1;
nodes = (
(319,883,l),
(272,930,l),
(204,930,l),
(157,883,l),
(158,817,l),
(205,770,l),
(272,770,l),
(319,817,l)
);
},
{
closed = 1;
nodes = (
(151,-8,l),
(201,130,l),
(488,130,l),
(539,-8,l),
(682,48,l),
(421,720,l),
(277,720,l),
(10,48,l)
);
},
{
closed = 1;
nodes = (
(250,262,l),
(345,521,l),
(440,262,l)
);
}
);
width = 692;
},
{
layerId = "56AAED68-C834-4DF9-BF24-1C0C08D215EB";
shapes = (
{
closed = 1;
nodes = (
(372,817,l)
);
},
{
closed = 1;
nodes = (
(534,883,l),
(487,930,l),
(419,930,l),
(372,883,l),
(372,817,l),
(419,770,l),
(487,770,l),
(534,817,l)
);
},
{
closed = 1;
nodes = (
(158,817,l)
);
},
{
closed = 1;
nodes = (
(319,883,l),
(272,930,l),
(204,930,l),
(157,883,l),
(158,817,l),
(205,770,l),
(272,770,l),
(319,817,l)
);
},
{
closed = 1;
nodes = (
(151,-8,l),
(201,130,l),
(488,130,l),
(539,-8,l),
(682,48,l),
(421,720,l),
(277,720,l),
(10,48,l)
);
},
{
closed = 1;
nodes = (
(250,262,l),
(345,521,l),
(440,262,l)
);
}
);
width = 692;
}
);
note = Adieresis;
unicode = 196;
},
{
glyphname = AE;
lastChange = "2024-02-26 18:48:38 +0000";
layers = (
{
layerId = m01;
shapes = (
{
closed = 1;
nodes = (
(477,125,l),
(477,0,l),
(1014,0,l),
(1014,145,l),
(637,145,l),
(637,295,l),
(954,295,l),
(954,440,l),
(637,440,l),
(637,575,l),
(1004,575,l),
(1004,720,l),
(467,720,l),
(52,66,l),
(175,-8,l),
(256,125,l)
);
},
{
closed = 1;
nodes = (
(477,490,l),
(477,270,l),
(344,270,l)
);
}
);
width = 1074;
},
{
layerId = "56AAED68-C834-4DF9-BF24-1C0C08D215EB";
shapes = (
{
closed = 1;
nodes = (
(477,125,l),
(477,0,l),
(1014,0,l),
(1014,145,l),
(637,145,l),
(637,295,l),
(954,295,l),
(954,440,l),
(637,440,l),
(637,575,l),
(1004,575,l),
(1004,720,l),
(467,720,l),
(52,66,l),
(175,-8,l),
(256,125,l)
);
},
{
closed = 1;
nodes = (
(477,490,l),
(477,270,l),
(344,270,l)
);
}
);
width = 1074;
}
);
note = AE;
unicode = 198;
},
{
glyphname = Ccedilla;
lastChange = "2024-02-26 18:48:38 +0000";
layers = (
{
layerId = m01;
shapes = (
{
closed = 1;
nodes = (
(388,-20,l),
(597,40,l),
(684,171,l),
(548,250,l),
(488,154,l),
(388,122,l),
(253,186,l),
(202,362,l),
(251,538,l),
(383,602,l),
(487,572,l),
(548,473,l),
(684,559,l),
(594,687,l),
(384,745,l),
(124,636,l),
(34,362,l),
(111,107,l),
(329,-16,l),
(298,-119,l),
(358,-132,l),
(367,-112,l),
(386,-106,l),
(405,-117,l),
(413,-150,l),
(406,-182,l),
(385,-194,l),
(367,-188,l),
(358,-168,l),
(305,-193,l),
(330,-235,l),
(387,-252,l),
(450,-228,l),
(477,-150,l),
(450,-73,l),
(387,-50,l),
(375,-50,l),
(382,-20,l)
);
}
);
width = 741;
},
{
layerId = "56AAED68-C834-4DF9-BF24-1C0C08D215EB";
shapes = (
{
closed = 1;
nodes = (
(388,-20,l),
(597,40,l),
(684,171,l),
(548,250,l),
(488,154,l),
(388,122,l),
(253,186,l),
(202,362,l),
(251,538,l),
(383,602,l),
(487,572,l),
(548,473,l),
(684,559,l),
(594,687,l),
(384,745,l),
(124,636,l),
(34,362,l),
(111,107,l),
(329,-16,l),
(298,-119,l),
(358,-132,l),
(367,-112,l),
(386,-106,l),
(405,-117,l),
(413,-150,l),
(406,-182,l),
(385,-194,l),
(367,-188,l),
(358,-168,l),
(305,-193,l),
(330,-235,l),
(387,-252,l),
(450,-228,l),
(477,-150,l),
(450,-73,l),
(387,-50,l),
(375,-50,l),
(382,-20,l)
);
}
);
width = 741;
}
);
note = Ccedilla;
unicode = 199;
},
{
glyphname = Egrave;
lastChange = "2024-02-26 18:48:38 +0000";
layers = (
{
layerId = m01;
shapes = (
{
closed = 1;
nodes = (
(291,779,l),
(402,853,l),
(330,1027,l),
(190,934,l)
);
},
{
closed = 1;
nodes = (
(230,145,l),
(230,295,l),
(547,295,l),
(547,440,l),
(230,440,l),
(230,575,l),
(597,575,l),
(597,720,l),
(70,720,l),
(70,0,l),
(607,0,l),
(607,145,l)
);
}
);
width = 667;
},
{
layerId = "56AAED68-C834-4DF9-BF24-1C0C08D215EB";
shapes = (
{
closed = 1;
nodes = (
(291,779,l),
(402,853,l),
(330,1027,l),
(190,934,l)
);
},
{
closed = 1;
nodes = (
(230,145,l),
(230,295,l),
(547,295,l),
(547,440,l),
(230,440,l),
(230,575,l),
(597,575,l),
(597,720,l),
(70,720,l),
(70,0,l),
(607,0,l),
(607,145,l)
);
}
);
width = 667;
}
);
note = Egrave;
unicode = 200;
},
{
glyphname = Eacute;
lastChange = "2024-02-26 18:48:38 +0000";
layers = (
{
layerId = m01;
shapes = (
{
closed = 1;
nodes = (
(373,778,l),
(474,933,l),
(334,1026,l),
(262,852,l)
);
},
{
closed = 1;
nodes = (
(230,145,l),
(230,295,l),
(547,295,l),
(547,440,l),
(230,440,l),
(230,575,l),
(597,575,l),
(597,720,l),
(70,720,l),
(70,0,l),
(607,0,l),
(607,145,l)
);
}
);
width = 667;
},
{
layerId = "56AAED68-C834-4DF9-BF24-1C0C08D215EB";
shapes = (
{
closed = 1;
nodes = (
(373,778,l),
(474,933,l),
(334,1026,l),
(262,852,l)
);
},
{
closed = 1;
nodes = (
(230,145,l),
(230,295,l),
(547,295,l),
(547,440,l),
(230,440,l),
(230,575,l),
(597,575,l),
(597,720,l),
(70,720,l),
(70,0,l),
(607,0,l),
(607,145,l)
);
}
);
width = 667;
}
);
note = Eacute;
unicode = 201;
},
{
glyphname = Ecircumflex;
lastChange = "2024-02-26 18:48:38 +0000";
layers = (
{
layerId = m01;
shapes = (
{
closed = 1;
nodes = (
(259,760,l),
(338,901,l),
(416,760,l),
(523,817,l),
(410,991,l),
(267,991,l),
(155,818,l)
);
},
{
closed = 1;
nodes = (
(230,145,l),
(230,295,l),
(547,295,l),
(547,440,l),
(230,440,l),
(230,575,l),
(597,575,l),
(597,720,l),
(70,720,l),
(70,0,l),
(607,0,l),
(607,145,l)
);
}
);
width = 667;
},
{
layerId = "56AAED68-C834-4DF9-BF24-1C0C08D215EB";
shapes = (
{
closed = 1;
nodes = (
(259,760,l),
(338,901,l),
(416,760,l),
(523,817,l),
(410,991,l),
(267,991,l),
(155,818,l)
);
},
{
closed = 1;
nodes = (
(230,145,l),
(230,295,l),
(547,295,l),
(547,440,l),
(230,440,l),
(230,575,l),
(597,575,l),
(597,720,l),
(70,720,l),
(70,0,l),
(607,0,l),
(607,145,l)
);
}
);
width = 667;
}
);
note = Ecircumflex;
unicode = 202;
},
{
glyphname = Edieresis;
lastChange = "2024-02-26 18:48:38 +0000";
layers = (
{
layerId = m01;
shapes = (
{
closed = 1;
nodes = (
(375,817,l)
);
},
{
closed = 1;
nodes = (
(536,883,l),
(489,930,l),
(422,930,l),
(375,883,l),
(375,817,l),
(422,770,l),
(489,770,l),
(536,817,l)
);
},
{
closed = 1;
nodes = (
(134,817,l)
);
},
{
closed = 1;
nodes = (
(295,883,l),
(248,930,l),
(181,930,l),
(134,883,l),
(134,817,l),
(181,770,l),
(248,770,l),
(296,817,l)
);
},
{
closed = 1;
nodes = (
(230,145,l),
(230,295,l),
(547,295,l),
(547,440,l),
(230,440,l),
(230,575,l),
(597,575,l),
(597,720,l),
(70,720,l),
(70,0,l),
(607,0,l),
(607,145,l)
);
}
);
width = 667;
},
{
layerId = "56AAED68-C834-4DF9-BF24-1C0C08D215EB";
shapes = (
{
closed = 1;
nodes = (
(375,817,l)
);
},
{
closed = 1;
nodes = (
(536,883,l),
(489,930,l),
(422,930,l),
(375,883,l),
(375,817,l),
(422,770,l),
(489,770,l),
(536,817,l)
);
},
{
closed = 1;
nodes = (
(134,817,l)
);
},
{
closed = 1;
nodes = (
(295,883,l),
(248,930,l),
(181,930,l),
(134,883,l),
(134,817,l),
(181,770,l),
(248,770,l),
(296,817,l)
);
},
{
closed = 1;
nodes = (
(230,145,l),
(230,295,l),
(547,295,l),
(547,440,l),
(230,440,l),
(230,575,l),
(597,575,l),
(597,720,l),
(70,720,l),
(70,0,l),
(607,0,l),
(607,145,l)
);
}
);
width = 667;
}
);
note = Edieresis;
unicode = 203;
},
{
glyphname = Igrave;
lastChange = "2024-02-26 18:48:38 +0000";
layers = (
{
layerId = m01;
shapes = (
{
closed = 1;
nodes = (
(120,779,l),
(231,853,l),
(160,1027,l),
(19,934,l)
);
},
{
closed = 1;
nodes = (
(70,720,l),
(70,0,l),
(230,0,l),
(230,720,l)
);
}
);
width = 300;
},
{
layerId = "56AAED68-C834-4DF9-BF24-1C0C08D215EB";
shapes = (
{
closed = 1;
nodes = (
(120,779,l),
(231,853,l),
(160,1027,l),
(19,934,l)
);
},
{
closed = 1;
nodes = (
(70,720,l),
(70,0,l),
(230,0,l),
(230,720,l)
);
}
);
width = 300;
}
);
note = Igrave;
unicode = 204;
},
{
glyphname = Iacute;
lastChange = "2024-02-26 18:48:38 +0000";
layers = (
{
layerId = m01;
shapes = (
{
closed = 1;
nodes = (
(185,782,l),
(286,937,l),
(146,1030,l),
(74,855,l)
);
},
{
closed = 1;
nodes = (
(70,720,l),
(70,0,l),
(230,0,l),
(230,720,l)
);
}
);
width = 300;
},
{
layerId = "56AAED68-C834-4DF9-BF24-1C0C08D215EB";
shapes = (
{
closed = 1;
nodes = (
(185,782,l),
(286,937,l),
(146,1030,l),
(74,855,l)
);
},
{
closed = 1;
nodes = (
(70,720,l),
(70,0,l),
(230,0,l),
(230,720,l)
);
}
);
width = 300;
}
);
note = Iacute;
unicode = 205;
},
{
glyphname = Icircumflex;
lastChange = "2024-02-26 18:48:38 +0000";
layers = (
{
layerId = m01;
shapes = (
{
closed = 1;
nodes = (
(73,760,l),
(152,901,l),
(229,760,l),
(336,817,l),
(224,991,l),
(81,991,l),
(-31,818,l)
);
},
{
closed = 1;
nodes = (
(70,720,l),
(70,0,l),
(230,0,l),
(230,720,l)
);
}
);
width = 300;
},
{
layerId = "56AAED68-C834-4DF9-BF24-1C0C08D215EB";
shapes = (
{
closed = 1;
nodes = (
(73,760,l),
(152,901,l),
(229,760,l),
(336,817,l),
(224,991,l),
(81,991,l),
(-31,818,l)
);
},
{
closed = 1;
nodes = (
(70,720,l),
(70,0,l),
(230,0,l),
(230,720,l)
);
}
);
width = 300;
}
);
note = Icircumflex;
unicode = 206;
},
{
glyphname = Idieresis;
lastChange = "2024-02-26 18:48:38 +0000";
layers = (
{
layerId = m01;
shapes = (
{
closed = 1;
nodes = (
(177,817,l)
);
},
{
closed = 1;
nodes = (
(338,883,l),
(291,930,l),
(224,930,l),
(177,883,l),
(177,817,l),
(224,770,l),
(291,770,l),
(338,817,l)
);
},
{
closed = 1;
nodes = (
(-39,817,l)
);
},
{
closed = 1;
nodes = (
(123,883,l),
(76,930,l),
(8,930,l),
(-39,883,l),
(-39,817,l),
(8,770,l),
(76,770,l),
(123,817,l)
);
},
{
closed = 1;
nodes = (
(70,720,l),
(70,0,l),
(230,0,l),
(230,720,l)
);
}
);
width = 300;
},
{
layerId = "56AAED68-C834-4DF9-BF24-1C0C08D215EB";
shapes = (
{
closed = 1;
nodes = (
(177,817,l)
);
},
{
closed = 1;
nodes = (
(338,883,l),
(291,930,l),
(224,930,l),
(177,883,l),
(177,817,l),
(224,770,l),
(291,770,l),
(338,817,l)
);
},
{
closed = 1;
nodes = (
(-39,817,l)
);
},
{
closed = 1;
nodes = (
(123,883,l),
(76,930,l),
(8,930,l),
(-39,883,l),
(-39,817,l),
(8,770,l),
(76,770,l),
(123,817,l)
);
},
{
closed = 1;
nodes = (
(70,720,l),
(70,0,l),
(230,0,l),
(230,720,l)
);
}
);
width = 300;
}
);
note = Idieresis;
unicode = 207;
},
{
glyphname = Eth;
lastChange = "2024-02-26 18:48:38 +0000";
layers = (
{
layerId = m01;
shapes = (
{
closed = 1;
nodes = (
(665,91,l),
(753,362,l),
(659,633,l),
(381,720,l),
(139,720,l),
(139,425,l),
(10,425,l),
(10,300,l),
(139,300,l),
(139,-1,l),
(392,-1,l)
);
},
{
closed = 1;
nodes = (
(426,300,l),
(426,425,l),
(300,425,l),
(300,575,l),
(363,575,l),
(520,541,l),
(586,363,l),
(528,187,l),
(366,144,l),
(300,144,l),
(300,300,l)
);
}
);
width = 784;
},
{
layerId = "56AAED68-C834-4DF9-BF24-1C0C08D215EB";
shapes = (
{
closed = 1;
nodes = (
(665,91,l),
(753,362,l),
(659,633,l),
(381,720,l),
(139,720,l),
(139,425,l),
(10,425,l),
(10,300,l),
(139,300,l),
(139,-1,l),
(392,-1,l)
);
},
{
closed = 1;
nodes = (
(426,300,l),
(426,425,l),
(300,425,l),
(300,575,l),
(363,575,l),
(520,541,l),
(586,363,l),
(528,187,l),
(366,144,l),
(300,144,l),
(300,300,l)
);
}
);
width = 784;
}
);
note = Eth;
unicode = 208;
},
{
glyphname = Ograve;
lastChange = "2024-02-26 18:48:38 +0000";
layers = (
{
layerId = m01;
shapes = (
{
closed = 1;
nodes = (
(339,781,l),
(450,854,l),
(379,1029,l),
(239,936,l)
);
},
{
closed = 1;
nodes = (
(33,360,l),
(124,86,l),
(383,-22,l),
(641,86,l),
(731,360,l),
(641,634,l),
(383,742,l),
(124,634,l)
);
},
{
closed = 1;
nodes = (
(201,360,l),
(250,536,l),
(383,599,l),
(515,536,l),
(563,360,l),
(515,184,l),
(383,121,l),
(250,184,l)
);
}
);
width = 764;
},
{
layerId = "56AAED68-C834-4DF9-BF24-1C0C08D215EB";
shapes = (
{
closed = 1;
nodes = (
(339,781,l),
(450,854,l),
(379,1029,l),
(239,936,l)
);
},
{
closed = 1;
nodes = (
(33,360,l),
(124,86,l),
(383,-22,l),
(641,86,l),
(731,360,l),
(641,634,l),
(383,742,l),
(124,634,l)
);
},
{
closed = 1;
nodes = (
(201,360,l),
(250,536,l),
(383,599,l),
(515,536,l),
(563,360,l),
(515,184,l),
(383,121,l),
(250,184,l)
);
}
);
width = 764;
}
);
note = Ograve;
unicode = 210;
},
{
glyphname = Oacute;
lastChange = "2024-02-26 18:48:38 +0000";
layers = (
{
layerId = m01;
shapes = (
{
closed = 1;
nodes = (
(422,795,l),
(523,949,l),
(382,1042,l),
(311,868,l)
);
},
{
closed = 1;
nodes = (
(33,360,l),
(124,86,l),
(383,-22,l),
(641,86,l),
(731,360,l),
(641,634,l),
(383,742,l),
(124,634,l)
);
},
{
closed = 1;
nodes = (
(201,360,l),
(250,536,l),
(383,599,l),
(515,536,l),
(563,360,l),
(515,184,l),
(383,121,l),
(250,184,l)
);
}
);
width = 764;
},
{
layerId = "56AAED68-C834-4DF9-BF24-1C0C08D215EB";
shapes = (
{
closed = 1;
nodes = (
(422,795,l),
(523,949,l),
(382,1042,l),
(311,868,l)
);
},
{
closed = 1;
nodes = (
(33,360,l),
(124,86,l),
(383,-22,l),
(641,86,l),
(731,360,l),
(641,634,l),
(383,742,l),
(124,634,l)
);
},
{
closed = 1;
nodes = (
(201,360,l),
(250,536,l),
(383,599,l),
(515,536,l),
(563,360,l),
(515,184,l),
(383,121,l),
(250,184,l)
);
}
);
width = 764;
}
);
note = Oacute;
unicode = 211;
},
{
glyphname = Ocircumflex;
lastChange = "2024-02-26 18:48:38 +0000";
layers = (
{
layerId = m01;
shapes = (
{
closed = 1;
nodes = (
(304,760,l),
(383,901,l),
(460,760,l),
(567,817,l),
(455,991,l),
(312,991,l),
(200,818,l)
);
},
{
closed = 1;
nodes = (
(33,360,l),
(124,86,l),
(383,-22,l),
(641,86,l),
(731,360,l),
(641,634,l),
(383,742,l),
(124,634,l)
);
},
{
closed = 1;
nodes = (
(201,360,l),
(250,536,l),
(383,599,l),
(515,536,l),
(563,360,l),
(515,184,l),
(383,121,l),
(250,184,l)
);
}
);
width = 764;
},
{
layerId = "56AAED68-C834-4DF9-BF24-1C0C08D215EB";
shapes = (
{
closed = 1;
nodes = (
(304,760,l),
(383,901,l),
(460,760,l),
(567,817,l),
(455,991,l),
(312,991,l),
(200,818,l)
);
},
{
closed = 1;
nodes = (
(33,360,l),
(124,86,l),
(383,-22,l),
(641,86,l),
(731,360,l),
(641,634,l),
(383,742,l),
(124,634,l)
);
},
{
closed = 1;
nodes = (
(201,360,l),
(250,536,l),
(383,599,l),
(515,536,l),
(563,360,l),
(515,184,l),
(383,121,l),
(250,184,l)
);
}
);
width = 764;
}
);
note = Ocircumflex;
unicode = 212;
},
{
glyphname = Odieresis;
lastChange = "2024-02-26 18:48:38 +0000";
layers = (
{
layerId = m01;
shapes = (
{
closed = 1;
nodes = (
(425,817,l)
);
},
{
closed = 1;
nodes = (
(587,883,l),
(540,930,l),
(472,930,l),
(425,883,l),
(425,817,l),
(472,770,l),
(540,770,l),
(587,817,l)
);
},
{
closed = 1;
nodes = (
(185,817,l)
);
},
{
closed = 1;
nodes = (
(347,883,l),
(300,930,l),
(232,930,l),
(185,883,l),
(185,817,l),
(232,770,l),
(300,770,l),
(347,817,l)
);
},
{
closed = 1;
nodes = (
(33,360,l),
(124,86,l),
(383,-22,l),
(641,86,l),
(731,360,l),
(641,634,l),
(383,742,l),
(124,634,l)
);
},
{
closed = 1;
nodes = (
(201,360,l),
(250,536,l),
(383,599,l),
(515,536,l),
(563,360,l),
(515,184,l),
(383,121,l),
(250,184,l)
);
}
);
width = 764;
},
{
layerId = "56AAED68-C834-4DF9-BF24-1C0C08D215EB";
shapes = (
{
closed = 1;
nodes = (
(425,817,l)
);
},
{
closed = 1;
nodes = (
(587,883,l),
(540,930,l),
(472,930,l),
(425,883,l),
(425,817,l),
(472,770,l),
(540,770,l),
(587,817,l)
);
},
{
closed = 1;
nodes = (
(185,817,l)
);
},
{
closed = 1;
nodes = (
(347,883,l),
(300,930,l),
(232,930,l),
(185,883,l),
(185,817,l),
(232,770,l),
(300,770,l),
(347,817,l)
);
},
{
closed = 1;
nodes = (
(33,360,l),
(124,86,l),
(383,-22,l),
(641,86,l),
(731,360,l),
(641,634,l),
(383,742,l),
(124,634,l)
);
},
{
closed = 1;
nodes = (
(201,360,l),
(250,536,l),
(383,599,l),
(515,536,l),
(563,360,l),
(515,184,l),
(383,121,l),
(250,184,l)
);
}
);
width = 764;
}
);
note = Odieresis;
unicode = 214;
},
{
glyphname = multiply;
lastChange = "2024-02-26 18:48:38 +0000";
layers = (
{
layerId = m01;
shapes = (
{
closed = 1;
nodes = (
(489,260,l),
(366,382,l),
(489,505,l),
(400,593,l),
(278,471,l),
(156,593,l),
(67,505,l),
(189,382,l),
(67,260,l),
(156,172,l),
(278,294,l),
(400,172,l)
);
}
);
width = 556;
},
{
layerId = "56AAED68-C834-4DF9-BF24-1C0C08D215EB";
shapes = (
{
closed = 1;
nodes = (
(489,260,l),
(366,382,l),
(489,505,l),
(400,593,l),
(278,471,l),
(156,593,l),
(67,505,l),
(189,382,l),
(67,260,l),
(156,172,l),
(278,294,l),
(400,172,l)
);
}
);
width = 556;
}
);
note = multiply;
unicode = 215;
},
{
glyphname = Oslash;
lastChange = "2024-02-26 18:48:38 +0000";
layers = (
{
layerId = m01;
shapes = (
{
closed = 1;
nodes = (
(613,735,l),
(576,690,l),
(488,729,l),
(383,743,l),
(124,634,l),
(33,360,l),
(49,230,l),
(97,120,l),
(52,66,l),
(148,-15,l),
(186,31,l),
(276,-9,l),
(383,-23,l),
(641,86,l),
(732,360,l),
(715,491,l),
(666,602,l),
(709,654,l)
);
},
{
closed = 1;
nodes = (
(201,360,l),
(250,536,l),
(383,600,l),
(432,593,l),
(477,572,l),
(214,259,l),
(204,307,l)
);
},
{
closed = 1;
nodes = (
(564,360,l),
(515,184,l),
(383,120,l),
(331,127,l),
(285,150,l),
(550,464,l),
(560,414,l)
);
}
);
width = 765;
},
{
layerId = "56AAED68-C834-4DF9-BF24-1C0C08D215EB";
shapes = (
{
closed = 1;
nodes = (
(613,735,l),
(576,690,l),
(488,729,l),
(383,743,l),
(124,634,l),
(33,360,l),
(49,230,l),
(97,120,l),
(52,66,l),
(148,-15,l),
(186,31,l),
(276,-9,l),
(383,-23,l),
(641,86,l),
(732,360,l),
(715,491,l),
(666,602,l),
(709,654,l)
);
},
{
closed = 1;
nodes = (
(201,360,l),
(250,536,l),
(383,600,l),
(432,593,l),
(477,572,l),
(214,259,l),
(204,307,l)
);
},
{
closed = 1;
nodes = (
(564,360,l),
(515,184,l),
(383,120,l),
(331,127,l),
(285,150,l),
(550,464,l),
(560,414,l)
);
}
);
width = 765;
}
);
note = Oslash;
unicode = 216;
},
{
glyphname = Ugrave;
lastChange = "2024-02-26 18:48:38 +0000";
layers = (
{
layerId = m01;
shapes = (
{
closed = 1;
nodes = (
(330,780,l),
(441,853,l),
(369,1028,l),
(229,935,l)
);
},
{
closed = 1;
nodes = (
(484,162,l),
(377,121,l),
(268,162,l),
(230,300,l),
(230,717,l),
(70,717,l),
(70,285,l),
(150,61,l),
(377,-25,l),
(604,61,l),
(682,293,l),
(682,717,l),
(523,717,l),
(523,300,l)
);
}
);
width = 752;
},
{
layerId = "56AAED68-C834-4DF9-BF24-1C0C08D215EB";
shapes = (
{
closed = 1;
nodes = (
(330,780,l),
(441,853,l),
(369,1028,l),
(229,935,l)
);
},
{
closed = 1;
nodes = (
(484,162,l),
(377,121,l),
(268,162,l),
(230,300,l),
(230,717,l),
(70,717,l),
(70,285,l),
(150,61,l),
(377,-25,l),
(604,61,l),
(682,293,l),
(682,717,l),
(523,717,l),
(523,300,l)
);
}
);
width = 752;
}
);
note = Ugrave;
unicode = 217;
},
{
glyphname = Uacute;
lastChange = "2024-02-26 18:48:38 +0000";
layers = (
{
layerId = m01;
shapes = (
{
closed = 1;
nodes = (
(424,779,l),
(525,933,l),
(384,1026,l),
(313,852,l)
);
},
{
closed = 1;
nodes = (
(484,165,l),
(377,124,l),
(268,165,l),
(230,303,l),
(230,720,l),
(70,720,l),
(70,288,l),
(150,64,l),
(377,-22,l),
(604,64,l),
(682,296,l),
(682,720,l),
(523,720,l),
(523,303,l)
);
}
);
width = 752;
},
{
layerId = "56AAED68-C834-4DF9-BF24-1C0C08D215EB";
shapes = (
{
closed = 1;
nodes = (
(424,779,l),
(525,933,l),
(384,1026,l),
(313,852,l)
);
},
{
closed = 1;
nodes = (
(484,165,l),
(377,124,l),
(268,165,l),
(230,303,l),
(230,720,l),
(70,720,l),
(70,288,l),
(150,64,l),
(377,-22,l),
(604,64,l),
(682,296,l),
(682,720,l),
(523,720,l),
(523,303,l)
);
}
);
width = 752;
}
);
note = Uacute;
unicode = 218;
},
{
glyphname = Ucircumflex;
lastChange = "2024-02-26 18:48:38 +0000";
layers = (
{
layerId = m01;
shapes = (
{
closed = 1;
nodes = (
(294,753,l),
(378,904,l),
(461,753,l),
(575,814,l),
(456,1000,l),
(303,1000,l),
(183,815,l)
);
},
{
closed = 1;
nodes = (
(484,165,l),
(377,124,l),
(268,165,l),
(230,303,l),
(230,720,l),
(70,720,l),
(70,288,l),
(150,64,l),
(377,-22,l),
(604,64,l),
(682,296,l),
(682,720,l),
(523,720,l),
(523,303,l)
);
}
);
width = 752;
},
{
layerId = "56AAED68-C834-4DF9-BF24-1C0C08D215EB";
shapes = (
{
closed = 1;
nodes = (
(294,753,l),
(378,904,l),
(461,753,l),
(575,814,l),
(456,1000,l),
(303,1000,l),
(183,815,l)
);
},
{
closed = 1;
nodes = (
(484,165,l),
(377,124,l),
(268,165,l),
(230,303,l),
(230,720,l),
(70,720,l),
(70,288,l),
(150,64,l),
(377,-22,l),
(604,64,l),
(682,296,l),
(682,720,l),
(523,720,l),
(523,303,l)
);
}
);
width = 752;
}
);
note = Ucircumflex;
unicode = 219;
},
{
glyphname = Udieresis;
lastChange = "2024-02-26 18:48:38 +0000";
layers = (
{
layerId = m01;
shapes = (
{
closed = 1;
nodes = (
(416,817,l)
);
},
{
closed = 1;
nodes = (
(578,883,l),
(531,930,l),
(463,930,l),
(416,883,l),
(416,817,l),
(463,770,l),
(531,770,l),
(578,817,l)
);
},
{
closed = 1;
nodes = (
(175,817,l)
);
},
{
closed = 1;
nodes = (
(337,883,l),
(290,930,l),
(222,930,l),
(175,883,l),
(175,817,l),
(222,770,l),
(290,770,l),
(337,817,l)
);
},
{
closed = 1;
nodes = (
(484,165,l),
(377,124,l),
(268,165,l),
(230,303,l),
(230,720,l),
(70,720,l),
(70,288,l),
(150,64,l),
(377,-22,l),
(604,64,l),
(682,296,l),
(682,720,l),
(523,720,l),
(523,303,l)
);
}
);
width = 752;
},
{
layerId = "56AAED68-C834-4DF9-BF24-1C0C08D215EB";
shapes = (
{
closed = 1;
nodes = (
(416,817,l)
);
},
{
closed = 1;
nodes = (
(578,883,l),
(531,930,l),
(463,930,l),
(416,883,l),
(416,817,l),
(463,770,l),
(531,770,l),
(578,817,l)
);
},
{
closed = 1;
nodes = (
(175,817,l)
);
},
{
closed = 1;
nodes = (
(337,883,l),
(290,930,l),
(222,930,l),
(175,883,l),
(175,817,l),
(222,770,l),
(290,770,l),
(337,817,l)
);
},
{
closed = 1;
nodes = (
(484,165,l),
(377,124,l),
(268,165,l),
(230,303,l),
(230,720,l),
(70,720,l),
(70,288,l),
(150,64,l),
(377,-22,l),
(604,64,l),
(682,296,l),
(682,720,l),
(523,720,l),
(523,303,l)
);
}
);
width = 752;
}
);
note = Udieresis;
unicode = 220;
},
{
glyphname = Yacute;
lastChange = "2024-02-26 18:48:38 +0000";
layers = (
{
layerId = m01;
shapes = (
{
closed = 1;
nodes = (
(351,780,l),
(452,934,l),
(312,1027,l),
(240,853,l)
);
},
{
closed = 1;
nodes = (
(611,653,l),
(487,728,l),
(314,443,l),
(137,728,l),
(10,649,l),
(229,293,l),
(229,0,l),
(390,0,l),
(390,293,l)
);
}
);
width = 621;
},
{
layerId = "56AAED68-C834-4DF9-BF24-1C0C08D215EB";
shapes = (
{
closed = 1;
nodes = (
(351,780,l),
(452,934,l),
(312,1027,l),
(240,853,l)
);
},
{
closed = 1;
nodes = (
(611,653,l),
(487,728,l),
(314,443,l),
(137,728,l),
(10,649,l),
(229,293,l),
(229,0,l),
(390,0,l),
(390,293,l)
);
}
);
width = 621;
}
);
note = Yacute;
unicode = 221;
},
{
glyphname = Thorn;
lastChange = "2024-02-26 18:48:38 +0000";
layers = (
{
layerId = m01;
shapes = (
{
closed = 1;
nodes = (
(230,125,l),
(355,125,l),
(566,197,l),
(640,379,l),
(549,569,l),
(347,625,l),
(230,625,l),
(230,735,l),
(70,735,l),
(70,0,l),
(230,0,l)
);
},
{
closed = 1;
nodes = (
(340,482,l),
(443,451,l),
(473,376,l),
(447,304,l),
(342,268,l),
(230,268,l),
(230,482,l)
);
}
);
width = 672;
},
{
layerId = "56AAED68-C834-4DF9-BF24-1C0C08D215EB";
shapes = (
{
closed = 1;
nodes = (
(230,125,l),
(355,125,l),
(566,197,l),
(640,379,l),
(549,569,l),
(347,625,l),
(230,625,l),
(230,735,l),
(70,735,l),
(70,0,l),
(230,0,l)
);
},
{
closed = 1;
nodes = (
(340,482,l),
(443,451,l),
(473,376,l),
(447,304,l),
(342,268,l),
(230,268,l),
(230,482,l)
);
}
);
width = 672;
}
);
note = Thorn;
unicode = 222;
},
{
glyphname = germandbls;
lastChange = "2024-02-26 18:48:38 +0000";
layers = (
{
layerId = m01;
shapes = (
{
closed = 1;
nodes = (
(351,25,l),
(488,-23,l),
(626,21,l),
(677,152,l),
(629,269,l),
(537,316,l),
(477,331,l),
(448,348,l),
(438,373,l),
(517,452,l),
(596,571,l),
(537,690,l),
(351,738,l),
(169,671,l),
(98,474,l),
(98,0,l),
(245,0,l),
(245,496,l),
(279,580,l),
(362,608,l),
(439,590,l),
(454,561,l),
(382,503,l),
(310,369,l),
(349,264,l),
(439,212,l),
(504,195,l),
(532,178,l),
(544,148,l),
(529,109,l),
(490,95,l),
(442,114,l),
(424,167,l),
(305,128,l)
);
}
);
width = 693;
},
{
layerId = "56AAED68-C834-4DF9-BF24-1C0C08D215EB";
shapes = (
{
closed = 1;
nodes = (
(351,25,l),
(488,-23,l),
(626,21,l),
(677,152,l),
(629,269,l),
(537,316,l),
(477,331,l),
(448,348,l),
(438,373,l),
(517,452,l),
(596,571,l),
(537,690,l),
(351,738,l),
(169,671,l),
(98,474,l),
(98,0,l),
(245,0,l),
(245,496,l),
(279,580,l),
(362,608,l),
(439,590,l),
(454,561,l),
(382,503,l),
(310,369,l),
(349,264,l),
(439,212,l),
(504,195,l),
(532,178,l),
(544,148,l),
(529,109,l),
(490,95,l),
(442,114,l),
(424,167,l),
(305,128,l)
);
}
);
width = 693;
}
);
note = germandbls;
unicode = 223;
},
{
glyphname = adieresis;
lastChange = "2024-02-26 18:48:38 +0000";
layers = (
{
layerId = m01;
shapes = (
{
closed = 1;
nodes = (
(294,616,l)
);
},
{
closed = 1;
nodes = (
(455,682,l),
(408,729,l),
(341,729,l),
(294,682,l),
(294,616,l),
(341,569,l),
(408,569,l),
(455,616,l)
);
},
{
closed = 1;
nodes = (
(87,616,l)
);
},
{
closed = 1;
nodes = (
(249,682,l),
(202,729,l),
(134,729,l),
(87,682,l),
(87,616,l),
(134,569,l),
(202,569,l),
(249,616,l)
);
},
{
closed = 1;
nodes = (
(24,129,l),
(76,18,l),
(200,-20,l),
(284,-6,l),
(352,54,l),
(352,0,l),
(496,0,l),
(496,325,l),
(435,489,l),
(270,540,l),
(128,506,l),
(53,398,l),
(170,338,l),
(198,391,l),
(262,416,l),
(329,390,l),
(346,339,l),
(346,326,l),
(80,253,l)
);
},
{
closed = 1;
nodes = (
(345,163,l),
(302,114,l),
(236,94,l),
(190,108,l),
(176,139,l),
(196,186,l),
(346,234,l)
);
}
);
width = 550;
},
{
layerId = "56AAED68-C834-4DF9-BF24-1C0C08D215EB";
shapes = (
{
closed = 1;
nodes = (
(294,616,l)
);
},
{
closed = 1;
nodes = (
(455,682,l),
(408,729,l),
(341,729,l),
(294,682,l),
(294,616,l),
(341,569,l),
(408,569,l),
(455,616,l)
);
},
{
closed = 1;
nodes = (
(87,616,l)
);
},
{
closed = 1;
nodes = (
(249,682,l),
(202,729,l),
(134,729,l),
(87,682,l),
(87,616,l),
(134,569,l),
(202,569,l),
(249,616,l)
);
},
{
closed = 1;
nodes = (
(24,129,l),
(76,18,l),
(200,-20,l),
(284,-6,l),
(352,54,l),
(352,0,l),
(496,0,l),
(496,325,l),
(435,489,l),
(270,540,l),
(128,506,l),
(53,398,l),
(170,338,l),
(198,391,l),
(262,416,l),
(329,390,l),
(346,339,l),
(346,326,l),
(80,253,l)
);
},
{
closed = 1;
nodes = (
(345,163,l),
(302,114,l),
(236,94,l),
(190,108,l),
(176,139,l),
(196,186,l),
(346,234,l)
);
}
);
width = 550;
}
);
note = adieresis;
unicode = 228;
},
{
glyphname = ae;
lastChange = "2024-02-26 18:48:38 +0000";
layers = (
{
layerId = m01;
shapes = (
{
closed = 1;
nodes = (
(23,129,l),
(78,18,l),
(220,-21,l),
(323,-10,l),
(431,40,l),
(512,-6,l),
(607,-21,l),
(763,20,l),
(815,89,l),
(710,168,l),
(678,125,l),
(617,107,l),
(533,134,l),
(498,216,l),
(851,216,l),
(862,238,l),
(863,281,l),
(785,477,l),
(607,540,l),
(517,527,l),
(438,486,l),
(365,527,l),
(269,540,l),
(127,506,l),
(52,398,l),
(169,337,l),
(197,391,l),
(262,416,l),
(328,390,l),
(345,339,l),
(345,326,l),
(79,253,l)
);
},
{
closed = 1;
nodes = (
(352,179,l),
(367,130,l),
(312,104,l),
(245,94,l),
(192,108,l),
(176,140,l),
(195,186,l),
(345,234,l)
);
},
{
closed = 1;
nodes = (
(603,413,l),
(676,388,l),
(707,319,l),
(499,319,l),
(534,388,l)
);
}
);
width = 887;
},
{
layerId = "56AAED68-C834-4DF9-BF24-1C0C08D215EB";
shapes = (
{
closed = 1;
nodes = (
(23,129,l),
(78,18,l),
(220,-21,l),
(323,-10,l),
(431,40,l),
(512,-6,l),
(607,-21,l),
(763,20,l),
(815,89,l),
(710,168,l),
(678,125,l),
(617,107,l),
(533,134,l),
(498,216,l),
(851,216,l),
(862,238,l),
(863,281,l),
(785,477,l),
(607,540,l),
(517,527,l),
(438,486,l),
(365,527,l),
(269,540,l),
(127,506,l),
(52,398,l),
(169,337,l),
(197,391,l),
(262,416,l),
(328,390,l),
(345,339,l),
(345,326,l),
(79,253,l)
);
},
{
closed = 1;
nodes = (
(352,179,l),
(367,130,l),
(312,104,l),
(245,94,l),
(192,108,l),
(176,140,l),
(195,186,l),
(345,234,l)
);
},
{
closed = 1;
nodes = (
(603,413,l),
(676,388,l),
(707,319,l),
(499,319,l),
(534,388,l)
);
}
);
width = 887;
}
);
note = ae;
unicode = 230;
},
{
glyphname = ccedilla;
lastChange = "2024-02-26 18:48:38 +0000";
layers = (
{
layerId = m01;
shapes = (
{
closed = 1;
nodes = (
(273,-19,l),
(428,25,l),
(494,135,l),
(367,197,l),
(334,129,l),
(273,109,l),
(198,148,l),
(173,262,l),
(200,376,l),
(273,415,l),
(335,394,l),
(368,325,l),
(496,387,l),
(428,498,l),
(273,543,l),
(95,476,l),
(20,262,l),
(77,69,l),
(217,-14,l),
(193,-97,l),
(243,-107,l),
(250,-91,l),
(265,-86,l),
(282,-95,l),
(289,-122,l),
(283,-150,l),
(265,-159,l),
(250,-154,l),
(243,-138,l),
(198,-158,l),
(220,-194,l),
(266,-207,l),
(319,-187,l),
(342,-123,l),
(319,-59,l),
(266,-39,l),
(257,-39,l),
(263,-19,l)
);
}
);
width = 520;
},
{
layerId = "56AAED68-C834-4DF9-BF24-1C0C08D215EB";
shapes = (
{
closed = 1;
nodes = (
(273,-19,l),
(428,25,l),
(494,135,l),
(367,197,l),
(334,129,l),
(273,109,l),
(198,148,l),
(173,262,l),
(200,376,l),
(273,415,l),
(335,394,l),
(368,325,l),
(496,387,l),
(428,498,l),
(273,543,l),
(95,476,l),
(20,262,l),
(77,69,l),
(217,-14,l),
(193,-97,l),
(243,-107,l),
(250,-91,l),
(265,-86,l),
(282,-95,l),
(289,-122,l),
(283,-150,l),
(265,-159,l),
(250,-154,l),
(243,-138,l),
(198,-158,l),
(220,-194,l),
(266,-207,l),
(319,-187,l),
(342,-123,l),
(319,-59,l),
(266,-39,l),
(257,-39,l),
(263,-19,l)
);
}
);
width = 520;
}
);
note = ccedilla;
unicode = 231;
},
{
glyphname = edieresis;
lastChange = "2024-02-26 18:48:38 +0000";
layers = (
{
layerId = m01;
shapes = (
{
closed = 1;
nodes = (
(318,616,l)
);
},
{
closed = 1;
nodes = (
(480,682,l),
(433,729,l),
(365,729,l),
(318,682,l),
(318,616,l),
(365,569,l),
(433,569,l),
(480,616,l)
);
},
{
closed = 1;
nodes = (
(92,616,l)
);
},
{
closed = 1;
nodes = (
(253,682,l),
(206,729,l),
(139,729,l),
(92,682,l),
(92,616,l),
(139,569,l),
(206,569,l),
(254,616,l)
);
},
{
closed = 1;
nodes = (
(525,217,l),
(532,239,l),
(533,282,l),
(455,478,l),
(278,540,l),
(95,474,l),
(15,260,l),
(95,46,l),
(278,-20,l),
(434,20,l),
(486,89,l),
(381,168,l),
(348,125,l),
(288,107,l),
(204,134,l),
(167,217,l)
);
},
{
closed = 1;
nodes = (
(274,413,l),
(347,388,l),
(378,319,l),
(170,319,l),
(205,388,l)
);
}
);
width = 557;
},
{
layerId = "56AAED68-C834-4DF9-BF24-1C0C08D215EB";
shapes = (
{
closed = 1;
nodes = (
(318,616,l)
);
},
{
closed = 1;
nodes = (
(480,682,l),
(433,729,l),
(365,729,l),
(318,682,l),
(318,616,l),
(365,569,l),
(433,569,l),
(480,616,l)
);
},
{
closed = 1;
nodes = (
(92,616,l)
);
},
{
closed = 1;
nodes = (
(253,682,l),
(206,729,l),
(139,729,l),
(92,682,l),
(92,616,l),
(139,569,l),
(206,569,l),
(254,616,l)
);
},
{
closed = 1;
nodes = (
(525,217,l),
(532,239,l),
(533,282,l),
(455,478,l),
(278,540,l),
(95,474,l),
(15,260,l),
(95,46,l),
(278,-20,l),
(434,20,l),
(486,89,l),
(381,168,l),
(348,125,l),
(288,107,l),
(204,134,l),
(167,217,l)
);
},
{
closed = 1;
nodes = (
(274,413,l),
(347,388,l),
(378,319,l),
(170,319,l),
(205,388,l)
);
}
);
width = 557;
}
);
note = edieresis;
unicode = 235;
},
{
glyphname = igrave;
lastChange = "2024-02-26 18:48:38 +0000";
layers = (
{
layerId = m01;
shapes = (
{
closed = 1;
nodes = (
(55,520,l),
(55,0,l),
(205,0,l),
(205,520,l)
);
},
{
closed = 1;
nodes = (
(103,592,l),
(200,656,l),
(103,897,l),
(-37,804,l)
);
}
);
width = 260;
},
{
layerId = "56AAED68-C834-4DF9-BF24-1C0C08D215EB";
shapes = (
{
closed = 1;
nodes = (
(55,520,l),
(55,0,l),
(205,0,l),
(205,520,l)
);
},
{
closed = 1;
nodes = (
(103,592,l),
(200,656,l),
(103,897,l),
(-37,804,l)
);
}
);
width = 260;
}
);
note = igrave;
unicode = 236;
},
{
glyphname = iacute;
lastChange = "2024-02-26 18:48:38 +0000";
layers = (
{
layerId = m01;
shapes = (
{
closed = 1;
nodes = (
(55,520,l),
(55,0,l),
(205,0,l),
(205,520,l)
);
},
{
closed = 1;
nodes = (
(161,592,l),
(301,804,l),
(161,897,l),
(64,656,l)
);
}
);
width = 260;
},
{
layerId = "56AAED68-C834-4DF9-BF24-1C0C08D215EB";
shapes = (
{
closed = 1;
nodes = (
(55,520,l),
(55,0,l),
(205,0,l),
(205,520,l)
);
},
{
closed = 1;
nodes = (
(161,592,l),
(301,804,l),
(161,897,l),
(64,656,l)
);
}
);
width = 260;
}
);
note = iacute;
unicode = 237;
},
{
glyphname = icircumflex;
lastChange = "2024-02-26 18:48:38 +0000";
layers = (
{
layerId = m01;
shapes = (
{
closed = 1;
nodes = (
(55,520,l),
(55,0,l),
(205,0,l),
(205,520,l)
);
},
{
closed = 1;
nodes = (
(52,592,l),
(131,763,l),
(208,592,l),
(315,649,l),
(184,903,l),
(78,903,l),
(-52,650,l)
);
}
);
width = 260;
},
{
layerId = "56AAED68-C834-4DF9-BF24-1C0C08D215EB";
shapes = (
{
closed = 1;
nodes = (
(55,520,l),
(55,0,l),
(205,0,l),
(205,520,l)
);
},
{
closed = 1;
nodes = (
(52,592,l),
(131,763,l),
(208,592,l),
(315,649,l),
(184,903,l),
(78,903,l),
(-52,650,l)
);
}
);
width = 260;
}
);
note = icircumflex;
unicode = 238;
},
{
glyphname = idieresis;
lastChange = "2024-02-26 18:48:38 +0000";
layers = (
{
layerId = m01;
shapes = (
{
closed = 1;
nodes = (
(150,619,l)
);
},
{
closed = 1;
nodes = (
(311,685,l),
(264,732,l),
(197,732,l),
(150,685,l),
(150,619,l),
(197,572,l),
(264,572,l),
(312,619,l)
);
},
{
closed = 1;
nodes = (
(-51,619,l)
);
},
{
closed = 1;
nodes = (
(111,685,l),
(64,732,l),
(-4,732,l),
(-51,685,l),
(-51,619,l),
(-4,572,l),
(64,572,l),
(111,619,l)
);
},
{
closed = 1;
nodes = (
(55,520,l),
(55,0,l),
(205,0,l),
(205,520,l)
);
}
);
width = 260;
},
{
layerId = "56AAED68-C834-4DF9-BF24-1C0C08D215EB";
shapes = (
{
closed = 1;
nodes = (
(150,619,l)
);
},
{
closed = 1;
nodes = (
(311,685,l),
(264,732,l),
(197,732,l),
(150,685,l),
(150,619,l),
(197,572,l),
(264,572,l),
(312,619,l)
);
},
{
closed = 1;
nodes = (
(-51,619,l)
);
},
{
closed = 1;
nodes = (
(111,685,l),
(64,732,l),
(-4,732,l),
(-51,685,l),
(-51,619,l),
(-4,572,l),
(64,572,l),
(111,619,l)
);
},
{
closed = 1;
nodes = (
(55,520,l),
(55,0,l),
(205,0,l),
(205,520,l)
);
}
);
width = 260;
}
);
note = idieresis;
unicode = 239;
},
{
glyphname = eth;
lastChange = "2024-02-26 18:48:38 +0000";
layers = (
{
layerId = m01;
shapes = (
{
closed = 1;
nodes = (
(334,802,l),
(304,750,l),
(232,767,l),
(155,773,l),
(143,631,l),
(187,629,l),
(230,621,l),
(199,567,l),
(294,511,l),
(328,568,l),
(374,500,l),
(395,436,l),
(342,475,l),
(245,497,l),
(100,443,l),
(21,242,l),
(110,36,l),
(282,-23,l),
(460,49,l),
(547,268,l),
(519,517,l),
(401,695,l),
(429,744,l)
);
},
{
closed = 1;
nodes = (
(173,237,l),
(211,341,l),
(286,370,l),
(359,341,l),
(394,237,l),
(357,134,l),
(282,104,l),
(209,134,l)
);
}
);
width = 568;
},
{
layerId = "56AAED68-C834-4DF9-BF24-1C0C08D215EB";
shapes = (
{
closed = 1;
nodes = (
(334,802,l),
(304,750,l),
(232,767,l),
(155,773,l),
(143,631,l),
(187,629,l),
(230,621,l),
(199,567,l),
(294,511,l),
(328,568,l),
(374,500,l),
(395,436,l),
(342,475,l),
(245,497,l),
(100,443,l),
(21,242,l),
(110,36,l),
(282,-23,l),
(460,49,l),
(547,268,l),
(519,517,l),
(401,695,l),
(429,744,l)
);
},
{
closed = 1;
nodes = (
(173,237,l),
(211,341,l),
(286,370,l),
(359,341,l),
(394,237,l),
(357,134,l),
(282,104,l),
(209,134,l)
);
}
);
width = 568;
}
);
note = eth;
unicode = 240;
},
{
glyphname = odieresis;
lastChange = "2024-02-26 18:48:38 +0000";
layers = (
{
layerId = m01;
shapes = (
{
closed = 1;
nodes = (
(305,619,l)
);
},
{
closed = 1;
nodes = (
(466,685,l),
(419,732,l),
(352,732,l),
(305,685,l),
(305,619,l),
(352,572,l),
(419,572,l),
(466,619,l)
);
},
{
closed = 1;
nodes = (
(98,619,l)
);
},
{
closed = 1;
nodes = (
(260,685,l),
(213,732,l),
(145,732,l),
(98,685,l),
(98,619,l),
(145,572,l),
(213,572,l),
(260,619,l)
);
},
{
closed = 1;
nodes = (
(20,263,l),
(98,49,l),
(283,-18,l),
(468,49,l),
(546,263,l),
(468,477,l),
(283,544,l),
(98,477,l)
);
},
{
closed = 1;
nodes = (
(173,263,l),
(201,376,l),
(283,416,l),
(365,376,l),
(393,263,l),
(365,149,l),
(283,110,l),
(201,149,l)
);
}
);
width = 566;
},
{
layerId = "56AAED68-C834-4DF9-BF24-1C0C08D215EB";
shapes = (
{
closed = 1;
nodes = (
(305,619,l)
);
},
{
closed = 1;
nodes = (
(466,685,l),
(419,732,l),
(352,732,l),
(305,685,l),
(305,619,l),
(352,572,l),
(419,572,l),
(466,619,l)
);
},
{
closed = 1;
nodes = (
(98,619,l)
);
},
{
closed = 1;
nodes = (
(260,685,l),
(213,732,l),
(145,732,l),
(98,685,l),
(98,619,l),
(145,572,l),
(213,572,l),
(260,619,l)
);
},
{
closed = 1;
nodes = (
(20,263,l),
(98,49,l),
(283,-18,l),
(468,49,l),
(546,263,l),
(468,477,l),
(283,544,l),
(98,477,l)
);
},
{
closed = 1;
nodes = (
(173,263,l),
(201,376,l),
(283,416,l),
(365,376,l),
(393,263,l),
(365,149,l),
(283,110,l),
(201,149,l)
);
}
);
width = 566;
}
);
note = odieresis;
unicode = 246;
},
{
glyphname = divide;
lastChange = "2024-02-26 18:48:38 +0000";
layers = (
{
layerId = m01;
shapes = (
{
closed = 1;
nodes = (
(196,144,l)
);
},
{
closed = 1;
nodes = (
(358,210,l),
(311,257,l),
(243,257,l),
(196,210,l),
(196,144,l),
(243,97,l),
(311,97,l),
(358,144,l)
);
},
{
closed = 1;
nodes = (
(196,514,l)
);
},
{
closed = 1;
nodes = (
(358,580,l),
(311,628,l),
(243,628,l),
(196,581,l),
(196,514,l),
(243,467,l),
(311,467,l),
(358,514,l)
);
},
{
closed = 1;
nodes = (
(50,425,l),
(50,300,l),
(506,300,l),
(506,425,l)
);
}
);
width = 556;
},
{
layerId = "56AAED68-C834-4DF9-BF24-1C0C08D215EB";
shapes = (
{
closed = 1;
nodes = (
(196,144,l)
);
},
{
closed = 1;
nodes = (
(358,210,l),
(311,257,l),
(243,257,l),
(196,210,l),
(196,144,l),
(243,97,l),
(311,97,l),
(358,144,l)
);
},
{
closed = 1;
nodes = (
(196,514,l)
);
},
{
closed = 1;
nodes = (
(358,580,l),
(311,628,l),
(243,628,l),
(196,581,l),
(196,514,l),
(243,467,l),
(311,467,l),
(358,514,l)
);
},
{
closed = 1;
nodes = (
(50,425,l),
(50,300,l),
(506,300,l),
(506,425,l)
);
}
);
width = 556;
}
);
note = divide;
unicode = 247;
},
{
glyphname = oslash;
lastChange = "2024-02-26 18:48:38 +0000";
layers = (
{
layerId = m01;
shapes = (
{
closed = 1;
nodes = (
(432,534,l),
(413,512,l),
(350,534,l),
(283,540,l),
(98,474,l),
(20,260,l),
(32,160,l),
(67,81,l),
(46,55,l),
(132,-15,l),
(150,8,l),
(214,-14,l),
(283,-21,l),
(468,46,l),
(546,260,l),
(533,361,l),
(497,440,l),
(517,465,l)
);
},
{
closed = 1;
nodes = (
(173,260,l),
(202,374,l),
(283,413,l),
(305,411,l),
(326,404,l),
(175,216,l),
(173,238,l)
);
},
{
closed = 1;
nodes = (
(393,283,l),
(393,260,l),
(365,146,l),
(283,107,l),
(260,109,l),
(237,117,l),
(390,307,l),
(390,305,l)
);
}
);
width = 566;
},
{
layerId = "56AAED68-C834-4DF9-BF24-1C0C08D215EB";
shapes = (
{
closed = 1;
nodes = (
(432,534,l),
(413,512,l),
(350,534,l),
(283,540,l),
(98,474,l),
(20,260,l),
(32,160,l),
(67,81,l),
(46,55,l),
(132,-15,l),
(150,8,l),
(214,-14,l),
(283,-21,l),
(468,46,l),
(546,260,l),
(533,361,l),
(497,440,l),
(517,465,l)
);
},
{
closed = 1;
nodes = (
(173,260,l),
(202,374,l),
(283,413,l),
(305,411,l),
(326,404,l),
(175,216,l),
(173,238,l)
);
},
{
closed = 1;
nodes = (
(393,283,l),
(393,260,l),
(365,146,l),
(283,107,l),
(260,109,l),
(237,117,l),
(390,307,l),
(390,305,l)
);
}
);
width = 566;
}
);
note = oslash;
unicode = 248;
},
{
glyphname = udieresis;
lastChange = "2024-02-26 18:48:38 +0000";
layers = (
{
layerId = m01;
shapes = (
{
closed = 1;
nodes = (
(379,237,l),
(350,141,l),
(282,108,l),
(219,133,l),
(201,204,l),
(201,520,l),
(50,520,l),
(50,200,l),
(88,42,l),
(241,-20,l),
(323,1,l),
(388,75,l),
(388,-1,l),
(530,-1,l),
(530,520,l),
(379,520,l)
);
},
{
closed = 1;
nodes = (
(310,619,l)
);
},
{
closed = 1;
nodes = (
(472,685,l),
(425,732,l),
(357,732,l),
(310,685,l),
(310,619,l),
(357,572,l),
(425,572,l),
(472,619,l)
);
},
{
closed = 1;
nodes = (
(103,619,l)
);
},
{
closed = 1;
nodes = (
(265,685,l),
(218,732,l),
(150,732,l),
(103,685,l),
(103,619,l),
(150,572,l),
(218,572,l),
(265,619,l)
);
}
);
width = 585;
},
{
layerId = "56AAED68-C834-4DF9-BF24-1C0C08D215EB";
shapes = (
{
closed = 1;
nodes = (
(379,237,l),
(350,141,l),
(282,108,l),
(219,133,l),
(201,204,l),
(201,520,l),
(50,520,l),
(50,200,l),
(88,42,l),
(241,-20,l),
(323,1,l),
(388,75,l),
(388,-1,l),
(530,-1,l),
(530,520,l),
(379,520,l)
);
},
{
closed = 1;
nodes = (
(310,619,l)
);
},
{
closed = 1;
nodes = (
(472,685,l),
(425,732,l),
(357,732,l),
(310,685,l),
(310,619,l),
(357,572,l),
(425,572,l),
(472,619,l)
);
},
{
closed = 1;
nodes = (
(103,619,l)
);
},
{
closed = 1;
nodes = (
(265,685,l),
(218,732,l),
(150,732,l),
(103,685,l),
(103,619,l),
(150,572,l),
(218,572,l),
(265,619,l)
);
}
);
width = 585;
}
);
note = udieresis;
unicode = 252;
},
{
glyphname = thorn;
lastChange = "2024-02-26 18:48:38 +0000";
layers = (
{
layerId = m01;
shapes = (
{
closed = 1;
nodes = (
(262,-8,l),
(328,-20,l),
(493,50,l),
(562,260,l),
(495,470,l),
(333,541,l),
(257,523,l),
(205,469,l),
(205,720,l),
(55,720,l),
(55,-200,l),
(205,-200,l),
(205,45,l)
);
},
{
closed = 1;
nodes = (
(194,260,l),
(225,376,l),
(302,413,l),
(378,376,l),
(409,260,l),
(379,145,l),
(301,107,l),
(223,145,l)
);
}
);
width = 582;
},
{
layerId = "56AAED68-C834-4DF9-BF24-1C0C08D215EB";
shapes = (
{
closed = 1;
nodes = (
(262,-8,l),
(328,-20,l),
(493,50,l),
(562,260,l),
(495,470,l),
(333,541,l),
(257,523,l),
(205,469,l),
(205,720,l),
(55,720,l),
(55,-200,l),
(205,-200,l),
(205,45,l)
);
},
{
closed = 1;
nodes = (
(194,260,l),
(225,376,l),
(302,413,l),
(378,376,l),
(409,260,l),
(379,145,l),
(301,107,l),
(223,145,l)
);
}
);
width = 582;
}
);
note = thorn;
unicode = 254;
},
{
glyphname = ydieresis;
lastChange = "2024-02-26 18:48:38 +0000";
layers = (
{
layerId = m01;
shapes = (
{
closed = 1;
nodes = (
(291,619,l)
);
},
{
closed = 1;
nodes = (
(452,685,l),
(405,732,l),
(338,732,l),
(291,685,l),
(291,619,l),
(338,572,l),
(405,572,l),
(452,619,l)
);
},
{
closed = 1;
nodes = (
(84,619,l)
);
},
{
closed = 1;
nodes = (
(246,685,l),
(199,732,l),
(131,732,l),
(84,685,l),
(84,619,l),
(131,572,l),
(199,572,l),
(246,619,l)
);
},
{
closed = 1;
nodes = (
(15,-186,l),
(132,-215,l),
(253,-168,l),
(333,-30,l),
(524,485,l),
(392,531,l),
(270,181,l),
(147,531,l),
(12,483,l),
(201,5,l),
(157,-64,l),
(105,-78,l),
(44,-63,l)
);
}
);
width = 536;
},
{
layerId = "56AAED68-C834-4DF9-BF24-1C0C08D215EB";
shapes = (
{
closed = 1;
nodes = (
(291,619,l)
);
},
{
closed = 1;
nodes = (
(452,685,l),
(405,732,l),
(338,732,l),
(291,685,l),
(291,619,l),
(338,572,l),
(405,572,l),
(452,619,l)
);
},
{
closed = 1;
nodes = (
(84,619,l)
);
},
{
closed = 1;
nodes = (
(246,685,l),
(199,732,l),
(131,732,l),
(84,685,l),
(84,619,l),
(131,572,l),
(199,572,l),
(246,619,l)
);
},
{
closed = 1;
nodes = (
(15,-186,l),
(132,-215,l),
(253,-168,l),
(333,-30,l),
(524,485,l),
(392,531,l),
(270,181,l),
(147,531,l),
(12,483,l),
(201,5,l),
(157,-64,l),
(105,-78,l),
(44,-63,l)
);
}
);
width = 536;
}
);
note = ydieresis;
unicode = 255;
},
{
glyphname = Abreve;
lastChange = "2024-02-26 18:48:38 +0000";
layers = (
{
layerId = m01;
shapes = (
{
closed = 1;
nodes = (
(397,865,l),
(350,847,l),
(304,865,l),
(288,920,l),
(179,888,l),
(210,801,l),
(350,753,l),
(491,801,l),
(522,884,l),
(416,920,l)
);
},
{
closed = 1;
nodes = (
(151,-8,l),
(201,130,l),
(488,130,l),
(539,-8,l),
(682,48,l),
(421,720,l),
(277,720,l),
(10,48,l)
);
},
{
closed = 1;
nodes = (
(250,262,l),
(345,521,l),
(440,262,l)
);
}
);
width = 692;
},
{
layerId = "56AAED68-C834-4DF9-BF24-1C0C08D215EB";
shapes = (
{
closed = 1;
nodes = (
(397,865,l),
(350,847,l),
(304,865,l),
(288,920,l),
(179,888,l),
(210,801,l),
(350,753,l),
(491,801,l),
(522,884,l),
(416,920,l)
);
},
{
closed = 1;
nodes = (
(151,-8,l),
(201,130,l),
(488,130,l),
(539,-8,l),
(682,48,l),
(421,720,l),
(277,720,l),
(10,48,l)
);
},
{
closed = 1;
nodes = (
(250,262,l),
(345,521,l),
(440,262,l)
);
}
);
width = 692;
}
);
note = Abreve;
unicode = 258;
},
{
glyphname = abreve;
lastChange = "2024-02-26 18:48:38 +0000";
layers = (
{
layerId = m01;
shapes = (
{
closed = 1;
nodes = (
(310,677,l),
(269,664,l),
(228,677,l),
(205,720,l),
(120,674,l),
(147,611,l),
(269,573,l),
(391,611,l),
(418,674,l),
(333,720,l)
);
},
{
closed = 1;
nodes = (
(22,129,l),
(75,18,l),
(199,-20,l),
(282,-6,l),
(351,54,l),
(351,0,l),
(495,0,l),
(495,325,l),
(434,489,l),
(268,540,l),
(126,506,l),
(51,398,l),
(168,338,l),
(196,391,l),
(261,416,l),
(327,390,l),
(345,339,l),
(345,326,l),
(79,253,l)
);
},
{
closed = 1;
nodes = (
(344,163,l),
(301,114,l),
(235,94,l),
(189,108,l),
(175,139,l),
(195,186,l),
(345,234,l)
);
}
);
width = 550;
},
{
layerId = "56AAED68-C834-4DF9-BF24-1C0C08D215EB";
shapes = (
{
closed = 1;
nodes = (
(310,677,l),
(269,664,l),
(228,677,l),
(205,720,l),
(120,674,l),
(147,611,l),
(269,573,l),
(391,611,l),
(418,674,l),
(333,720,l)
);
},
{
closed = 1;
nodes = (
(22,129,l),
(75,18,l),
(199,-20,l),
(282,-6,l),
(351,54,l),
(351,0,l),
(495,0,l),
(495,325,l),
(434,489,l),
(268,540,l),
(126,506,l),
(51,398,l),
(168,338,l),
(196,391,l),
(261,416,l),
(327,390,l),
(345,339,l),
(345,326,l),
(79,253,l)
);
},
{
closed = 1;
nodes = (
(344,163,l),
(301,114,l),
(235,94,l),
(189,108,l),
(175,139,l),
(195,186,l),
(345,234,l)
);
}
);
width = 550;
}
);
note = abreve;
unicode = 259;
},
{
glyphname = Aogonek;
lastChange = "2024-02-26 18:48:38 +0000";
layers = (
{
layerId = m01;
shapes = (
{
closed = 1;
nodes = (
(440,720,l),
(296,720,l),
(29,48,l),
(170,-8,l),
(220,130,l),
(507,130,l),
(550,12,l),
(510,-29,l),
(494,-98,l),
(538,-203,l),
(651,-241,l),
(741,-213,l),
(786,-158,l),
(713,-100,l),
(692,-127,l),
(654,-139,l),
(612,-124,l),
(595,-79,l),
(619,-25,l),
(715,13,l)
);
},
{
closed = 1;
nodes = (
(459,262,l),
(269,262,l),
(364,521,l)
);
}
);
width = 732;
},
{
layerId = "56AAED68-C834-4DF9-BF24-1C0C08D215EB";
shapes = (
{
closed = 1;
nodes = (
(440,720,l),
(296,720,l),
(29,48,l),
(170,-8,l),
(220,130,l),
(507,130,l),
(550,12,l),
(510,-29,l),
(494,-98,l),
(538,-203,l),
(651,-241,l),
(741,-213,l),
(786,-158,l),
(713,-100,l),
(692,-127,l),
(654,-139,l),
(612,-124,l),
(595,-79,l),
(619,-25,l),
(715,13,l)
);
},
{
closed = 1;
nodes = (
(459,262,l),
(269,262,l),
(364,521,l)
);
}
);
width = 732;
}
);
note = Aogonek;
unicode = 260;
},
{
glyphname = aogonek;
lastChange = "2024-02-26 18:48:38 +0000";
layers = (
{
layerId = m01;
shapes = (
{
closed = 1;
nodes = (
(436,491,l),
(271,542,l),
(129,508,l),
(58,395,l),
(173,336,l),
(199,393,l),
(263,418,l),
(329,392,l),
(346,337,l),
(346,325,l),
(301,314,l),
(233,304,l),
(81,255,l),
(25,132,l),
(77,20,l),
(201,-18,l),
(284,-3,l),
(352,54,l),
(363,34,l),
(380,19,l),
(331,-25,l),
(306,-104,l),
(351,-209,l),
(463,-247,l),
(554,-219,l),
(596,-158,l),
(518,-109,l),
(504,-133,l),
(466,-145,l),
(425,-129,l),
(408,-85,l),
(440,0,l),
(495,0,l),
(496,314,l)
);
},
{
closed = 1;
nodes = (
(346,165,l),
(303,117,l),
(237,96,l),
(191,110,l),
(178,142,l),
(197,188,l),
(253,210,l),
(312,224,l),
(346,235,l)
);
}
);
width = 550;
},
{
layerId = "56AAED68-C834-4DF9-BF24-1C0C08D215EB";
shapes = (
{
closed = 1;
nodes = (
(436,491,l),
(271,542,l),
(129,508,l),
(58,395,l),
(173,336,l),
(199,393,l),
(263,418,l),
(329,392,l),
(346,337,l),
(346,325,l),
(301,314,l),
(233,304,l),
(81,255,l),
(25,132,l),
(77,20,l),
(201,-18,l),
(284,-3,l),
(352,54,l),
(363,34,l),
(380,19,l),
(331,-25,l),
(306,-104,l),
(351,-209,l),
(463,-247,l),
(554,-219,l),
(596,-158,l),
(518,-109,l),
(504,-133,l),
(466,-145,l),
(425,-129,l),
(408,-85,l),
(440,0,l),
(495,0,l),
(496,314,l)
);
},
{
closed = 1;
nodes = (
(346,165,l),
(303,117,l),
(237,96,l),
(191,110,l),
(178,142,l),
(197,188,l),
(253,210,l),
(312,224,l),
(346,235,l)
);
}
);
width = 550;
}
);
note = aogonek;
unicode = 261;
},
{
glyphname = Cacute;
lastChange = "2024-02-26 18:48:38 +0000";
layers = (
{
layerId = m01;
shapes = (
{
closed = 1;
nodes = (
(413,778,l),
(514,933,l),
(374,1026,l),
(302,852,l)
);
},
{
closed = 1;
nodes = (
(201,360,l),
(256,545,l),
(405,597,l),
(486,570,l),
(547,471,l),
(680,554,l),
(594,684,l),
(382,742,l),
(123,634,l),
(32,360,l),
(126,86,l),
(388,-22,l),
(596,37,l),
(680,163,l),
(547,248,l),
(488,151,l),
(388,121,l),
(252,184,l)
);
}
);
width = 720;
},
{
layerId = "56AAED68-C834-4DF9-BF24-1C0C08D215EB";
shapes = (
{
closed = 1;
nodes = (
(413,778,l),
(514,933,l),
(374,1026,l),
(302,852,l)
);
},
{
closed = 1;
nodes = (
(201,360,l),
(256,545,l),
(405,597,l),
(486,570,l),
(547,471,l),
(680,554,l),
(594,684,l),
(382,742,l),
(123,634,l),
(32,360,l),
(126,86,l),
(388,-22,l),
(596,37,l),
(680,163,l),
(547,248,l),
(488,151,l),
(388,121,l),
(252,184,l)
);
}
);
width = 720;
}
);
note = Cacute;
unicode = 262;
},
{
glyphname = Ccaron;
lastChange = "2024-02-26 18:48:38 +0000";
layers = (
{
layerId = m01;
shapes = (
{
closed = 1;
nodes = (
(462,1021,l),
(383,880,l),
(306,1021,l),
(199,964,l),
(311,790,l),
(454,790,l),
(566,963,l)
);
},
{
closed = 1;
nodes = (
(201,360,l),
(256,545,l),
(405,597,l),
(486,570,l),
(547,471,l),
(680,554,l),
(594,684,l),
(382,742,l),
(123,634,l),
(32,360,l),
(126,86,l),
(388,-22,l),
(596,37,l),
(680,163,l),
(547,248,l),
(488,151,l),
(388,121,l),
(252,184,l)
);
}
);
width = 720;
},
{
layerId = "56AAED68-C834-4DF9-BF24-1C0C08D215EB";
shapes = (
{
closed = 1;
nodes = (
(462,1021,l),
(383,880,l),
(306,1021,l),
(199,964,l),
(311,790,l),
(454,790,l),
(566,963,l)
);
},
{
closed = 1;
nodes = (
(201,360,l),
(256,545,l),
(405,597,l),
(486,570,l),
(547,471,l),
(680,554,l),
(594,684,l),
(382,742,l),
(123,634,l),
(32,360,l),
(126,86,l),
(388,-22,l),
(596,37,l),
(680,163,l),
(547,248,l),
(488,151,l),
(388,121,l),
(252,184,l)
);
}
);
width = 720;
}
);
note = Ccaron;
unicode = 268;
},
{
glyphname = ccaron;
lastChange = "2024-02-26 18:48:38 +0000";
layers = (
{
layerId = m01;
shapes = (
{
closed = 1;
nodes = (
(457,846,l),
(350,903,l),
(273,732,l),
(194,903,l),
(90,845,l),
(220,592,l),
(326,592,l)
);
},
{
closed = 1;
nodes = (
(173,260,l),
(200,373,l),
(273,413,l),
(335,392,l),
(368,324,l),
(495,384,l),
(428,497,l),
(273,540,l),
(95,474,l),
(20,260,l),
(96,46,l),
(273,-20,l),
(428,23,l),
(494,133,l),
(367,195,l),
(334,127,l),
(273,107,l),
(199,146,l)
);
}
);
width = 519;
},
{
layerId = "56AAED68-C834-4DF9-BF24-1C0C08D215EB";
shapes = (
{
closed = 1;
nodes = (
(457,846,l),
(350,903,l),
(273,732,l),
(194,903,l),
(90,845,l),
(220,592,l),
(326,592,l)
);
},
{
closed = 1;
nodes = (
(173,260,l),
(200,373,l),
(273,413,l),
(335,392,l),
(368,324,l),
(495,384,l),
(428,497,l),
(273,540,l),
(95,474,l),
(20,260,l),
(96,46,l),
(273,-20,l),
(428,23,l),
(494,133,l),
(367,195,l),
(334,127,l),
(273,107,l),
(199,146,l)
);
}
);
width = 519;
}
);
note = ccaron;
unicode = 269;
},
{
glyphname = Dcaron;
lastChange = "2024-02-26 18:48:38 +0000";
layers = (
{
layerId = m01;
shapes = (
{
closed = 1;
nodes = (
(403,1021,l),
(324,880,l),
(247,1021,l),
(140,964,l),
(252,790,l),
(395,790,l),
(507,963,l)
);
},
{
closed = 1;
nodes = (
(595,91,l),
(682,362,l),
(589,633,l),
(292,720,l),
(70,720,l),
(70,0,l),
(320,0,l)
);
},
{
closed = 1;
nodes = (
(292,575,l),
(450,541,l),
(516,363,l),
(458,187,l),
(294,144,l),
(230,144,l),
(230,575,l)
);
}
);
width = 714;
},
{
layerId = "56AAED68-C834-4DF9-BF24-1C0C08D215EB";
shapes = (
{
closed = 1;
nodes = (
(403,1021,l),
(324,880,l),
(247,1021,l),
(140,964,l),
(252,790,l),
(395,790,l),
(507,963,l)
);
},
{
closed = 1;
nodes = (
(595,91,l),
(682,362,l),
(589,633,l),
(292,720,l),
(70,720,l),
(70,0,l),
(320,0,l)
);
},
{
closed = 1;
nodes = (
(292,575,l),
(450,541,l),
(516,363,l),
(458,187,l),
(294,144,l),
(230,144,l),
(230,575,l)
);
}
);
width = 714;
}
);
note = Dcaron;
unicode = 270;
},
{
glyphname = Dcroat;
lastChange = "2024-02-26 18:48:38 +0000";
layers = (
{
layerId = m01;
shapes = (
{
closed = 1;
nodes = (
(426,300,l),
(426,425,l),
(300,425,l),
(300,575,l),
(362,575,l),
(520,541,l),
(586,363,l),
(528,187,l),
(364,144,l),
(300,144,l),
(300,300,l)
);
},
{
closed = 1;
nodes = (
(390,0,l),
(665,91,l),
(752,362,l),
(659,633,l),
(362,720,l),
(140,720,l),
(140,425,l),
(10,425,l),
(10,300,l),
(140,300,l),
(140,0,l)
);
}
);
width = 785;
},
{
layerId = "56AAED68-C834-4DF9-BF24-1C0C08D215EB";
shapes = (
{
closed = 1;
nodes = (
(426,300,l),
(426,425,l),
(300,425,l),
(300,575,l),
(362,575,l),
(520,541,l),
(586,363,l),
(528,187,l),
(364,144,l),
(300,144,l),
(300,300,l)
);
},
{
closed = 1;
nodes = (
(390,0,l),
(665,91,l),
(752,362,l),
(659,633,l),
(362,720,l),
(140,720,l),
(140,425,l),
(10,425,l),
(10,300,l),
(140,300,l),
(140,0,l)
);
}
);
width = 785;
}
);
note = Dcroat;
unicode = 272;
},
{
glyphname = dcroat;
lastChange = "2024-02-26 18:48:38 +0000";
layers = (
{
layerId = m01;
shapes = (
{
closed = 1;
nodes = (
(171,258,l),
(201,373,l),
(280,411,l),
(357,373,l),
(386,258,l),
(355,142,l),
(278,105,l),
(202,142,l)
);
},
{
closed = 1;
nodes = (
(320,658,l),
(320,562,l),
(375,562,l),
(375,477,l),
(318,526,l),
(252,539,l),
(87,468,l),
(18,258,l),
(85,48,l),
(247,-22,l),
(327,-3,l),
(385,61,l),
(385,0,l),
(526,0,l),
(526,562,l),
(580,562,l),
(580,658,l),
(526,658,l),
(526,720,l),
(375,720,l),
(375,658,l)
);
}
);
width = 580;
},
{
layerId = "56AAED68-C834-4DF9-BF24-1C0C08D215EB";
shapes = (
{
closed = 1;
nodes = (
(171,258,l),
(201,373,l),
(280,411,l),
(357,373,l),
(386,258,l),
(355,142,l),
(278,105,l),
(202,142,l)
);
},
{
closed = 1;
nodes = (
(320,658,l),
(320,562,l),
(375,562,l),
(375,477,l),
(318,526,l),
(252,539,l),
(87,468,l),
(18,258,l),
(85,48,l),
(247,-22,l),
(327,-3,l),
(385,61,l),
(385,0,l),
(526,0,l),
(526,562,l),
(580,562,l),
(580,658,l),
(526,658,l),
(526,720,l),
(375,720,l),
(375,658,l)
);
}
);
width = 580;
}
);
note = dcroat;
unicode = 273;
},
{
glyphname = Eogonek;
lastChange = "2024-02-26 18:48:38 +0000";
layers = (
{
layerId = m01;
shapes = (
{
closed = 1;
nodes = (
(417,-39,l),
(404,-98,l),
(447,-203,l),
(558,-241,l),
(649,-213,l),
(696,-158,l),
(623,-98,l),
(602,-127,l),
(564,-139,l),
(522,-123,l),
(505,-79,l),
(526,-22,l),
(585,0,l),
(607,0,l),
(607,145,l),
(230,145,l),
(230,295,l),
(547,295,l),
(547,440,l),
(230,440,l),
(230,575,l),
(597,575,l),
(597,720,l),
(70,720,l),
(70,360,l),
(70,0,l),
(455,0,l)
);
}
);
width = 667;
},
{
layerId = "56AAED68-C834-4DF9-BF24-1C0C08D215EB";
shapes = (
{
closed = 1;
nodes = (
(417,-39,l),
(404,-98,l),
(447,-203,l),
(558,-241,l),
(649,-213,l),
(696,-158,l),
(623,-98,l),
(602,-127,l),
(564,-139,l),
(522,-123,l),
(505,-79,l),
(526,-22,l),
(585,0,l),
(607,0,l),
(607,145,l),
(230,145,l),
(230,295,l),
(547,295,l),
(547,440,l),
(230,440,l),
(230,575,l),
(597,575,l),
(597,720,l),
(70,720,l),
(70,360,l),
(70,0,l),
(455,0,l)
);
}
);
width = 667;
}
);
note = Eogonek;
unicode = 280;
},
{
glyphname = eogonek;
lastChange = "2024-02-26 18:48:38 +0000";
layers = (
{
layerId = m01;
shapes = (
{
closed = 1;
nodes = (
(538,240,l),
(538,284,l),
(461,480,l),
(283,543,l),
(101,476,l),
(20,262,l),
(74,78,l),
(205,-8,l),
(240,-14,l),
(279,-17,l),
(248,-56,l),
(235,-109,l),
(279,-211,l),
(390,-247,l),
(481,-219,l),
(526,-158,l),
(447,-109,l),
(433,-133,l),
(395,-145,l),
(353,-129,l),
(337,-84,l),
(356,-33,l),
(394,-3,l),
(475,55,l),
(495,91,l),
(384,170,l),
(353,127,l),
(293,109,l),
(209,136,l),
(175,217,l),
(532,217,l)
);
},
{
closed = 1;
nodes = (
(279,415,l),
(351,390,l),
(381,319,l),
(177,319,l),
(210,391,l)
);
}
);
width = 557;
},
{
layerId = "56AAED68-C834-4DF9-BF24-1C0C08D215EB";
shapes = (
{
closed = 1;
nodes = (
(538,240,l),
(538,284,l),
(461,480,l),
(283,543,l),
(101,476,l),
(20,262,l),
(74,78,l),
(205,-8,l),
(240,-14,l),
(279,-17,l),
(248,-56,l),
(235,-109,l),
(279,-211,l),
(390,-247,l),
(481,-219,l),
(526,-158,l),
(447,-109,l),
(433,-133,l),
(395,-145,l),
(353,-129,l),
(337,-84,l),
(356,-33,l),
(394,-3,l),
(475,55,l),
(495,91,l),
(384,170,l),
(353,127,l),
(293,109,l),
(209,136,l),
(175,217,l),
(532,217,l)
);
},
{
closed = 1;
nodes = (
(279,415,l),
(351,390,l),
(381,319,l),
(177,319,l),
(210,391,l)
);
}
);
width = 557;
}
);
note = eogonek;
unicode = 281;
},
{
glyphname = Ecaron;
lastChange = "2024-02-26 18:48:38 +0000";
layers = (
{
layerId = m01;
shapes = (
{
closed = 1;
nodes = (
(413,1021,l),
(334,880,l),
(257,1021,l),
(150,964,l),
(262,790,l),
(405,790,l),
(517,963,l)
);
},
{
closed = 1;
nodes = (
(230,145,l),
(230,295,l),
(547,295,l),
(547,440,l),
(230,440,l),
(230,575,l),
(597,575,l),
(597,720,l),
(70,720,l),
(70,0,l),
(607,0,l),
(607,145,l)
);
}
);
width = 667;
},
{
layerId = "56AAED68-C834-4DF9-BF24-1C0C08D215EB";
shapes = (
{
closed = 1;
nodes = (
(413,1021,l),
(334,880,l),
(257,1021,l),
(150,964,l),
(262,790,l),
(405,790,l),
(517,963,l)
);
},
{
closed = 1;
nodes = (
(230,145,l),
(230,295,l),
(547,295,l),
(547,440,l),
(230,440,l),
(230,575,l),
(597,575,l),
(597,720,l),
(70,720,l),
(70,0,l),
(607,0,l),
(607,145,l)
);
}
);
width = 667;
}
);
note = Ecaron;
unicode = 282;
},
{
glyphname = ecaron;
lastChange = "2024-02-26 18:48:38 +0000";
layers = (
{
layerId = m01;
shapes = (
{
closed = 1;
nodes = (
(466,846,l),
(359,903,l),
(281,732,l),
(202,903,l),
(98,845,l),
(228,592,l),
(335,592,l)
);
},
{
closed = 1;
nodes = (
(526,217,l),
(533,239,l),
(533,282,l),
(456,478,l),
(278,540,l),
(96,474,l),
(16,260,l),
(96,46,l),
(278,-20,l),
(434,20,l),
(487,89,l),
(381,168,l),
(348,125,l),
(289,107,l),
(204,134,l),
(168,217,l)
);
},
{
closed = 1;
nodes = (
(274,413,l),
(347,388,l),
(378,319,l),
(171,319,l),
(205,388,l)
);
}
);
width = 557;
},
{
layerId = "56AAED68-C834-4DF9-BF24-1C0C08D215EB";
shapes = (
{
closed = 1;
nodes = (
(466,846,l),
(359,903,l),
(281,732,l),
(202,903,l),
(98,845,l),
(228,592,l),
(335,592,l)
);
},
{
closed = 1;
nodes = (
(526,217,l),
(533,239,l),
(533,282,l),
(456,478,l),
(278,540,l),
(96,474,l),
(16,260,l),
(96,46,l),
(278,-20,l),
(434,20,l),
(487,89,l),
(381,168,l),
(348,125,l),
(289,107,l),
(204,134,l),
(168,217,l)
);
},
{
closed = 1;
nodes = (
(274,413,l),
(347,388,l),
(378,319,l),
(171,319,l),
(205,388,l)
);
}
);
width = 557;
}
);
note = ecaron;
unicode = 283;
},
{
glyphname = Lacute;
lastChange = "2024-02-26 18:48:38 +0000";
layers = (
{
layerId = m01;
shapes = (
{
closed = 1;
nodes = (
(234,778,l),
(334,933,l),
(194,1026,l),
(123,852,l)
);
},
{
closed = 1;
nodes = (
(230,145,l),
(230,720,l),
(70,720,l),
(70,0,l),
(608,0,l),
(608,145,l)
);
}
);
width = 638;
},
{
layerId = "56AAED68-C834-4DF9-BF24-1C0C08D215EB";
shapes = (
{
closed = 1;
nodes = (
(234,778,l),
(334,933,l),
(194,1026,l),
(123,852,l)
);
},
{
closed = 1;
nodes = (
(230,145,l),
(230,720,l),
(70,720,l),
(70,0,l),
(608,0,l),
(608,145,l)
);
}
);
width = 638;
}
);
note = Lacute;
unicode = 313;
},
{
glyphname = lacute;
lastChange = "2024-02-26 18:48:38 +0000";
layers = (
{
layerId = m01;
shapes = (
{
closed = 1;
nodes = (
(178,782,l),
(279,937,l),
(139,1030,l),
(67,855,l)
);
},
{
closed = 1;
nodes = (
(55,720,l),
(55,0,l),
(206,0,l),
(206,720,l)
);
}
);
width = 261;
},
{
layerId = "56AAED68-C834-4DF9-BF24-1C0C08D215EB";
shapes = (
{
closed = 1;
nodes = (
(178,782,l),
(279,937,l),
(139,1030,l),
(67,855,l)
);
},
{
closed = 1;
nodes = (
(55,720,l),
(55,0,l),
(206,0,l),
(206,720,l)
);
}
);
width = 261;
}
);
note = lacute;
unicode = 314;
},
{
glyphname = Lcaron;
lastChange = "2024-02-26 18:48:38 +0000";
layers = (
{
layerId = m01;
shapes = (
{
closed = 1;
nodes = (
(236,1021,l),
(157,880,l),
(80,1021,l),
(-27,964,l),
(85,790,l),
(228,790,l),
(340,963,l)
);
},
{
closed = 1;
nodes = (
(230,145,l),
(230,720,l),
(70,720,l),
(70,0,l),
(608,0,l),
(608,145,l)
);
}
);
width = 638;
},
{
layerId = "56AAED68-C834-4DF9-BF24-1C0C08D215EB";
shapes = (
{
closed = 1;
nodes = (
(236,1021,l),
(157,880,l),
(80,1021,l),
(-27,964,l),
(85,790,l),
(228,790,l),
(340,963,l)
);
},
{
closed = 1;
nodes = (
(230,145,l),
(230,720,l),
(70,720,l),
(70,0,l),
(608,0,l),
(608,145,l)
);
}
);
width = 638;
}
);
note = Lcaron;
unicode = 317;
},
{
glyphname = lcaron;
lastChange = "2024-02-26 18:48:38 +0000";
layers = (
{
layerId = m01;
shapes = (
{
closed = 1;
nodes = (
(368,720,l),
(303,720,l),
(259,675,l),
(259,612,l),
(303,567,l),
(337,567,l),
(320,504,l),
(276,471,l),
(314,407,l),
(384,464,l),
(413,567,l),
(413,675,l)
);
},
{
closed = 1;
nodes = (
(55,720,l),
(55,0,l),
(205,0,l),
(205,720,l)
);
}
);
width = 413;
},
{
layerId = "56AAED68-C834-4DF9-BF24-1C0C08D215EB";
shapes = (
{
closed = 1;
nodes = (
(368,720,l),
(303,720,l),
(259,675,l),
(259,612,l),
(303,567,l),
(337,567,l),
(320,504,l),
(276,471,l),
(314,407,l),
(384,464,l),
(413,567,l),
(413,675,l)
);
},
{
closed = 1;
nodes = (
(55,720,l),
(55,0,l),
(205,0,l),
(205,720,l)
);
}
);
width = 413;
}
);
note = lcaron;
unicode = 318;
},
{
glyphname = Lslash;
lastChange = "2024-02-26 18:48:38 +0000";
layers = (
{
layerId = m01;
shapes = (
{
closed = 1;
nodes = (
(310,145,l),
(310,341,l),
(454,427,l),
(392,536,l),
(310,487,l),
(310,720,l),
(150,720,l),
(150,391,l),
(10,308,l),
(72,199,l),
(150,245,l),
(150,0,l),
(688,0,l),
(688,145,l)
);
}
);
width = 719;
},
{
layerId = "56AAED68-C834-4DF9-BF24-1C0C08D215EB";
shapes = (
{
closed = 1;
nodes = (
(310,145,l),
(310,341,l),
(454,427,l),
(392,536,l),
(310,487,l),
(310,720,l),
(150,720,l),
(150,391,l),
(10,308,l),
(72,199,l),
(150,245,l),
(150,0,l),
(688,0,l),
(688,145,l)
);
}
);
width = 719;
}
);
note = Lslash;
unicode = 321;
},
{
glyphname = lslash;
lastChange = "2024-02-26 18:48:38 +0000";
layers = (
{
layerId = m01;
shapes = (
{
closed = 1;
nodes = (
(454,427,l),
(392,536,l),
(304,483,l),
(304,728,l),
(154,728,l),
(154,394,l),
(10,308,l),
(72,199,l),
(154,248,l),
(154,0,l),
(304,0,l),
(304,337,l)
);
}
);
width = 464;
},
{
layerId = "56AAED68-C834-4DF9-BF24-1C0C08D215EB";
shapes = (
{
closed = 1;
nodes = (
(454,427,l),
(392,536,l),
(304,483,l),
(304,728,l),
(154,728,l),
(154,394,l),
(10,308,l),
(72,199,l),
(154,248,l),
(154,0,l),
(304,0,l),
(304,337,l)
);
}
);
width = 464;
}
);
note = lslash;
unicode = 322;
},
{
glyphname = Nacute;
lastChange = "2024-02-26 18:48:38 +0000";
layers = (
{
layerId = m01;
shapes = (
{
closed = 1;
nodes = (
(433,778,l),
(534,933,l),
(394,1026,l),
(322,852,l)
);
},
{
closed = 1;
nodes = (
(537,0,l),
(699,0,l),
(699,720,l),
(543,720,l),
(543,264,l),
(232,720,l),
(70,720,l),
(70,0,l),
(226,0,l),
(226,456,l)
);
}
);
width = 769;
},
{
layerId = "56AAED68-C834-4DF9-BF24-1C0C08D215EB";
shapes = (
{
closed = 1;
nodes = (
(433,778,l),
(534,933,l),
(394,1026,l),
(322,852,l)
);
},
{
closed = 1;
nodes = (
(537,0,l),
(699,0,l),
(699,720,l),
(543,720,l),
(543,264,l),
(232,720,l),
(70,720,l),
(70,0,l),
(226,0,l),
(226,456,l)
);
}
);
width = 769;
}
);
note = Nacute;
unicode = 323;
},
{
glyphname = Ncaron;
lastChange = "2024-02-26 18:48:38 +0000";
layers = (
{
layerId = m01;
shapes = (
{
closed = 1;
nodes = (
(463,1021,l),
(384,880,l),
(307,1021,l),
(200,964,l),
(312,790,l),
(455,790,l),
(567,963,l)
);
},
{
closed = 1;
nodes = (
(537,0,l),
(699,0,l),
(699,720,l),
(543,720,l),
(543,264,l),
(232,720,l),
(70,720,l),
(70,0,l),
(226,0,l),
(226,456,l)
);
}
);
width = 769;
},
{
layerId = "56AAED68-C834-4DF9-BF24-1C0C08D215EB";
shapes = (
{
closed = 1;
nodes = (
(463,1021,l),
(384,880,l),
(307,1021,l),
(200,964,l),
(312,790,l),
(455,790,l),
(567,963,l)
);
},
{
closed = 1;
nodes = (
(537,0,l),
(699,0,l),
(699,720,l),
(543,720,l),
(543,264,l),
(232,720,l),
(70,720,l),
(70,0,l),
(226,0,l),
(226,456,l)
);
}
);
width = 769;
}
);
note = Ncaron;
unicode = 327;
},
{
glyphname = ncaron;
lastChange = "2024-02-26 18:48:38 +0000";
layers = (
{
layerId = m01;
shapes = (
{
closed = 1;
nodes = (
(465,846,l),
(358,903,l),
(281,732,l),
(202,903,l),
(98,845,l),
(228,592,l),
(334,592,l)
);
},
{
closed = 1;
nodes = (
(205,283,l),
(234,379,l),
(302,412,l),
(364,387,l),
(383,316,l),
(383,0,l),
(534,0,l),
(534,320,l),
(495,478,l),
(343,540,l),
(260,519,l),
(195,445,l),
(195,520,l),
(55,520,l),
(55,0,l),
(205,0,l)
);
}
);
width = 588;
},
{
layerId = "56AAED68-C834-4DF9-BF24-1C0C08D215EB";
shapes = (
{
closed = 1;
nodes = (
(465,846,l),
(358,903,l),
(281,732,l),
(202,903,l),
(98,845,l),
(228,592,l),
(334,592,l)
);
},
{
closed = 1;
nodes = (
(205,283,l),
(234,379,l),
(302,412,l),
(364,387,l),
(383,316,l),
(383,0,l),
(534,0,l),
(534,320,l),
(495,478,l),
(343,540,l),
(260,519,l),
(195,445,l),
(195,520,l),
(55,520,l),
(55,0,l),
(205,0,l)
);
}
);
width = 588;
}
);
note = ncaron;
unicode = 328;
},
{
glyphname = Ohungarumlaut;
lastChange = "2024-02-26 18:48:38 +0000";
layers = (
{
layerId = m01;
shapes = (
{
closed = 1;
nodes = (
(302,778,l),
(403,932,l),
(263,1025,l),
(191,851,l)
);
},
{
closed = 1;
nodes = (
(532,778,l),
(633,932,l),
(493,1025,l),
(421,851,l)
);
},
{
closed = 1;
nodes = (
(33,360,l),
(124,86,l),
(383,-22,l),
(641,86,l),
(731,360,l),
(641,634,l),
(383,742,l),
(124,634,l)
);
},
{
closed = 1;
nodes = (
(201,360,l),
(250,536,l),
(383,599,l),
(515,536,l),
(563,360,l),
(515,184,l),
(383,121,l),
(250,184,l)
);
}
);
width = 764;
},
{
layerId = "56AAED68-C834-4DF9-BF24-1C0C08D215EB";
shapes = (
{
closed = 1;
nodes = (
(302,778,l),
(403,932,l),
(263,1025,l),
(191,851,l)
);
},
{
closed = 1;
nodes = (
(532,778,l),
(633,932,l),
(493,1025,l),
(421,851,l)
);
},
{
closed = 1;
nodes = (
(33,360,l),
(124,86,l),
(383,-22,l),
(641,86,l),
(731,360,l),
(641,634,l),
(383,742,l),
(124,634,l)
);
},
{
closed = 1;
nodes = (
(201,360,l),
(250,536,l),
(383,599,l),
(515,536,l),
(563,360,l),
(515,184,l),
(383,121,l),
(250,184,l)
);
}
);
width = 764;
}
);
note = Ohungarumlaut;
unicode = 336;
},
{
glyphname = OE;
lastChange = "2024-02-26 18:48:38 +0000";
layers = (
{
layerId = m01;
shapes = (
{
closed = 1;
nodes = (
(951,0,l),
(951,145,l),
(604,145,l),
(604,295,l),
(892,295,l),
(892,440,l),
(604,440,l),
(604,575,l),
(941,575,l),
(941,720,l),
(404,720,l),
(126,633,l),
(32,362,l),
(120,91,l),
(393,0,l)
);
},
{
closed = 1;
nodes = (
(419,140,l),
(256,187,l),
(198,363,l),
(265,542,l),
(422,575,l),
(444,575,l),
(444,140,l)
);
}
);
width = 1011;
},
{
layerId = "56AAED68-C834-4DF9-BF24-1C0C08D215EB";
shapes = (
{
closed = 1;
nodes = (
(951,0,l),
(951,145,l),
(604,145,l),
(604,295,l),
(892,295,l),
(892,440,l),
(604,440,l),
(604,575,l),
(941,575,l),
(941,720,l),
(404,720,l),
(126,633,l),
(32,362,l),
(120,91,l),
(393,0,l)
);
},
{
closed = 1;
nodes = (
(419,140,l),
(256,187,l),
(198,363,l),
(265,542,l),
(422,575,l),
(444,575,l),
(444,140,l)
);
}
);
width = 1011;
}
);
note = OE;
unicode = 338;
},
{
glyphname = oe;
lastChange = "2024-02-26 18:48:38 +0000";
layers = (
{
layerId = m01;
shapes = (
{
closed = 1;
nodes = (
(103,474,l),
(25,260,l),
(103,46,l),
(288,-21,l),
(391,-1,l),
(476,70,l),
(561,-1,l),
(663,-21,l),
(819,19,l),
(879,96,l),
(766,168,l),
(733,125,l),
(673,107,l),
(589,134,l),
(552,217,l),
(899,217,l),
(907,245,l),
(908,281,l),
(840,478,l),
(663,541,l),
(562,521,l),
(476,450,l),
(391,521,l),
(288,541,l)
);
},
{
closed = 1;
nodes = (
(178,260,l),
(207,374,l),
(288,413,l),
(370,374,l),
(398,260,l),
(370,146,l),
(288,107,l),
(207,146,l)
);
},
{
closed = 1;
nodes = (
(659,413,l),
(731,388,l),
(763,319,l),
(555,319,l),
(590,388,l)
);
}
);
width = 933;
},
{
layerId = "56AAED68-C834-4DF9-BF24-1C0C08D215EB";
shapes = (
{
closed = 1;
nodes = (
(103,474,l),
(25,260,l),
(103,46,l),
(288,-21,l),
(391,-1,l),
(476,70,l),
(561,-1,l),
(663,-21,l),
(819,19,l),
(879,96,l),
(766,168,l),
(733,125,l),
(673,107,l),
(589,134,l),
(552,217,l),
(899,217,l),
(907,245,l),
(908,281,l),
(840,478,l),
(663,541,l),
(562,521,l),
(476,450,l),
(391,521,l),
(288,541,l)
);
},
{
closed = 1;
nodes = (
(178,260,l),
(207,374,l),
(288,413,l),
(370,374,l),
(398,260,l),
(370,146,l),
(288,107,l),
(207,146,l)
);
},
{
closed = 1;
nodes = (
(659,413,l),
(731,388,l),
(763,319,l),
(555,319,l),
(590,388,l)
);
}
);
width = 933;
}
);
note = oe;
unicode = 339;
},
{
glyphname = Racute;
lastChange = "2024-02-26 18:48:38 +0000";
layers = (
{
layerId = m01;
shapes = (
{
closed = 1;
nodes = (
(354,778,l),
(454,933,l),
(314,1026,l),
(243,852,l)
);
},
{
closed = 1;
nodes = (
(348,580,l),
(449,550,l),
(479,476,l),
(453,406,l),
(350,370,l),
(230,370,l),
(230,580,l)
);
},
{
closed = 1;
nodes = (
(230,230,l),
(362,230,l),
(516,-9,l),
(650,80,l),
(508,279,l),
(569,300,l),
(642,479,l),
(552,665,l),
(355,720,l),
(70,720,l),
(70,0,l),
(230,0,l)
);
}
);
width = 679;
},
{
layerId = "56AAED68-C834-4DF9-BF24-1C0C08D215EB";
shapes = (
{
closed = 1;
nodes = (
(354,778,l),
(454,933,l),
(314,1026,l),
(243,852,l)
);
},
{
closed = 1;
nodes = (
(348,580,l),
(449,550,l),
(479,476,l),
(453,406,l),
(350,370,l),
(230,370,l),
(230,580,l)
);
},
{
closed = 1;
nodes = (
(230,230,l),
(362,230,l),
(516,-9,l),
(650,80,l),
(508,279,l),
(569,300,l),
(642,479,l),
(552,665,l),
(355,720,l),
(70,720,l),
(70,0,l),
(230,0,l)
);
}
);
width = 679;
}
);
note = Racute;
unicode = 340;
},
{
glyphname = Rcaron;
lastChange = "2024-02-26 18:48:38 +0000";
layers = (
{
layerId = m01;
shapes = (
{
closed = 1;
nodes = (
(413,1021,l),
(334,880,l),
(257,1021,l),
(150,964,l),
(262,790,l),
(405,790,l),
(517,963,l)
);
},
{
closed = 1;
nodes = (
(348,580,l),
(449,550,l),
(479,476,l),
(453,406,l),
(350,370,l),
(230,370,l),
(230,580,l)
);
},
{
closed = 1;
nodes = (
(230,230,l),
(362,230,l),
(516,-9,l),
(650,80,l),
(508,279,l),
(569,300,l),
(642,479,l),
(552,665,l),
(355,720,l),
(70,720,l),
(70,0,l),
(230,0,l)
);
}
);
width = 679;
},
{
layerId = "56AAED68-C834-4DF9-BF24-1C0C08D215EB";
shapes = (
{
closed = 1;
nodes = (
(413,1021,l),
(334,880,l),
(257,1021,l),
(150,964,l),
(262,790,l),
(405,790,l),
(517,963,l)
);
},
{
closed = 1;
nodes = (
(348,580,l),
(449,550,l),
(479,476,l),
(453,406,l),
(350,370,l),
(230,370,l),
(230,580,l)
);
},
{
closed = 1;
nodes = (
(230,230,l),
(362,230,l),
(516,-9,l),
(650,80,l),
(508,279,l),
(569,300,l),
(642,479,l),
(552,665,l),
(355,720,l),
(70,720,l),
(70,0,l),
(230,0,l)
);
}
);
width = 679;
}
);
note = Rcaron;
unicode = 344;
},
{
glyphname = rcaron;
lastChange = "2024-02-26 18:48:38 +0000";
layers = (
{
layerId = m01;
shapes = (
{
closed = 1;
nodes = (
(412,854,l),
(305,911,l),
(228,740,l),
(149,911,l),
(45,853,l),
(175,600,l),
(281,600,l)
);
},
{
closed = 1;
nodes = (
(205,230,l),
(237,352,l),
(336,397,l),
(399,389,l),
(435,514,l),
(340,540,l),
(252,514,l),
(196,430,l),
(196,520,l),
(55,520,l),
(55,0,l),
(205,0,l)
);
}
);
width = 444;
},
{
layerId = "56AAED68-C834-4DF9-BF24-1C0C08D215EB";
shapes = (
{
closed = 1;
nodes = (
(412,854,l),
(305,911,l),
(228,740,l),
(149,911,l),
(45,853,l),
(175,600,l),
(281,600,l)
);
},
{
closed = 1;
nodes = (
(205,230,l),
(237,352,l),
(336,397,l),
(399,389,l),
(435,514,l),
(340,540,l),
(252,514,l),
(196,430,l),
(196,520,l),
(55,520,l),
(55,0,l),
(205,0,l)
);
}
);
width = 444;
}
);
note = rcaron;
unicode = 345;
},
{
glyphname = Sacute;
lastChange = "2024-02-26 18:48:38 +0000";
layers = (
{
layerId = m01;
shapes = (
{
closed = 1;
nodes = (
(343,778,l),
(444,933,l),
(304,1026,l),
(232,852,l)
);
},
{
closed = 1;
nodes = (
(96,33,l),
(310,-22,l),
(504,34,l),
(592,206,l),
(541,349,l),
(410,424,l),
(307,452,l),
(232,476,l),
(196,499,l),
(187,533,l),
(215,582,l),
(292,599,l),
(376,575,l),
(409,510,l),
(541,574,l),
(490,687,l),
(288,742,l),
(109,688,l),
(30,519,l),
(58,412,l),
(182,329,l),
(346,281,l),
(408,250,l),
(425,201,l),
(390,138,l),
(306,121,l),
(207,145,l),
(166,236,l),
(32,173,l)
);
}
);
width = 618;
},
{
layerId = "56AAED68-C834-4DF9-BF24-1C0C08D215EB";
shapes = (
{
closed = 1;
nodes = (
(343,778,l),
(444,933,l),
(304,1026,l),
(232,852,l)
);
},
{
closed = 1;
nodes = (
(96,33,l),
(310,-22,l),
(504,34,l),
(592,206,l),
(541,349,l),
(410,424,l),
(307,452,l),
(232,476,l),
(196,499,l),
(187,533,l),
(215,582,l),
(292,599,l),
(376,575,l),
(409,510,l),
(541,574,l),
(490,687,l),
(288,742,l),
(109,688,l),
(30,519,l),
(58,412,l),
(182,329,l),
(346,281,l),
(408,250,l),
(425,201,l),
(390,138,l),
(306,121,l),
(207,145,l),
(166,236,l),
(32,173,l)
);
}
);
width = 618;
}
);
note = Sacute;
unicode = 346;
},
{
glyphname = Scaron;
lastChange = "2024-02-26 18:48:38 +0000";
layers = (
{
layerId = m01;
shapes = (
{
closed = 1;
nodes = (
(368,1021,l),
(289,880,l),
(212,1021,l),
(105,964,l),
(217,790,l),
(360,790,l),
(472,963,l)
);
},
{
closed = 1;
nodes = (
(96,33,l),
(310,-22,l),
(504,34,l),
(592,206,l),
(541,349,l),
(410,424,l),
(307,452,l),
(232,476,l),
(196,499,l),
(187,533,l),
(215,582,l),
(292,599,l),
(376,575,l),
(409,510,l),
(541,574,l),
(490,687,l),
(288,742,l),
(109,688,l),
(30,519,l),
(58,412,l),
(182,329,l),
(346,281,l),
(408,250,l),
(425,201,l),
(390,138,l),
(306,121,l),
(207,145,l),
(166,236,l),
(32,173,l)
);
}
);
width = 618;
},
{
layerId = "56AAED68-C834-4DF9-BF24-1C0C08D215EB";
shapes = (
{
closed = 1;
nodes = (
(368,1021,l),
(289,880,l),
(212,1021,l),
(105,964,l),
(217,790,l),
(360,790,l),
(472,963,l)
);
},
{
closed = 1;
nodes = (
(96,33,l),
(310,-22,l),
(504,34,l),
(592,206,l),
(541,349,l),
(410,424,l),
(307,452,l),
(232,476,l),
(196,499,l),
(187,533,l),
(215,582,l),
(292,599,l),
(376,575,l),
(409,510,l),
(541,574,l),
(490,687,l),
(288,742,l),
(109,688,l),
(30,519,l),
(58,412,l),
(182,329,l),
(346,281,l),
(408,250,l),
(425,201,l),
(390,138,l),
(306,121,l),
(207,145,l),
(166,236,l),
(32,173,l)
);
}
);
width = 618;
}
);
note = Scaron;
unicode = 352;
},
{
glyphname = scaron;
lastChange = "2024-02-26 18:48:38 +0000";
layers = (
{
layerId = m01;
shapes = (
{
closed = 1;
nodes = (
(411,846,l),
(304,903,l),
(227,733,l),
(148,903,l),
(44,845,l),
(174,593,l),
(280,593,l)
);
},
{
closed = 1;
nodes = (
(77,29,l),
(229,-20,l),
(387,23,l),
(449,154,l),
(401,270,l),
(309,313,l),
(187,339,l),
(158,353,l),
(149,376,l),
(171,412,l),
(226,424,l),
(278,411,l),
(308,365,l),
(412,433,l),
(380,495,l),
(230,540,l),
(85,501,l),
(20,371,l),
(59,268,l),
(150,220,l),
(275,192,l),
(303,179,l),
(316,150,l),
(289,108,l),
(231,97,l),
(164,116,l),
(134,169,l),
(28,110,l)
);
}
);
width = 469;
},
{
layerId = "56AAED68-C834-4DF9-BF24-1C0C08D215EB";
shapes = (
{
closed = 1;
nodes = (
(411,846,l),
(304,903,l),
(227,733,l),
(148,903,l),
(44,845,l),
(174,593,l),
(280,593,l)
);
},
{
closed = 1;
nodes = (
(77,29,l),
(229,-20,l),
(387,23,l),
(449,154,l),
(401,270,l),
(309,313,l),
(187,339,l),
(158,353,l),
(149,376,l),
(171,412,l),
(226,424,l),
(278,411,l),
(308,365,l),
(412,433,l),
(380,495,l),
(230,540,l),
(85,501,l),
(20,371,l),
(59,268,l),
(150,220,l),
(275,192,l),
(303,179,l),
(316,150,l),
(289,108,l),
(231,97,l),
(164,116,l),
(134,169,l),
(28,110,l)
);
}
);
width = 469;
}
);
note = scaron;
unicode = 353;
},
{
glyphname = Tcommaaccent;
lastChange = "2024-02-26 18:48:38 +0000";
layers = (
{
layerId = m01;
shapes = (
{
closed = 1;
nodes = (
(366,-70,l),
(301,-70,l),
(255,-116,l),
(255,-180,l),
(301,-226,l),
(335,-226,l),
(318,-290,l),
(271,-325,l),
(318,-383,l),
(321,-381,l),
(383,-332,l),
(412,-226,l),
(412,-116,l)
);
},
{
closed = 1;
nodes = (
(634,575,l),
(634,720,l),
(30,720,l),
(30,575,l),
(252,575,l),
(252,0,l),
(412,0,l),
(412,575,l)
);
}
);
width = 664;
},
{
layerId = "56AAED68-C834-4DF9-BF24-1C0C08D215EB";
shapes = (
{
closed = 1;
nodes = (
(366,-70,l),
(301,-70,l),
(255,-116,l),
(255,-180,l),
(301,-226,l),
(335,-226,l),
(318,-290,l),
(271,-325,l),
(318,-383,l),
(321,-381,l),
(383,-332,l),
(412,-226,l),
(412,-116,l)
);
},
{
closed = 1;
nodes = (
(634,575,l),
(634,720,l),
(30,720,l),
(30,575,l),
(252,575,l),
(252,0,l),
(412,0,l),
(412,575,l)
);
}
);
width = 664;
}
);
note = Tcommaaccent;
unicode = 354;
},
{
glyphname = tcommaaccent;
lastChange = "2024-02-26 18:48:38 +0000";
layers = (
{
layerId = m01;
shapes = (
{
closed = 1;
nodes = (
(292,116,l),
(250,138,l),
(244,194,l),
(244,401,l),
(344,401,l),
(344,521,l),
(244,521,l),
(244,670,l),
(94,670,l),
(94,521,l),
(20,521,l),
(20,401,l),
(94,401,l),
(94,148,l),
(128,27,l),
(246,-17,l),
(358,3,l),
(334,122,l)
);
},
{
closed = 1;
nodes = (
(236,-70,l),
(170,-70,l),
(124,-116,l),
(124,-180,l),
(170,-226,l),
(205,-226,l),
(187,-290,l),
(141,-325,l),
(188,-383,l),
(191,-381,l),
(253,-332,l),
(282,-226,l),
(282,-116,l)
);
}
);
width = 395;
},
{
layerId = "56AAED68-C834-4DF9-BF24-1C0C08D215EB";
shapes = (
{
closed = 1;
nodes = (
(292,116,l),
(250,138,l),
(244,194,l),
(244,401,l),
(344,401,l),
(344,521,l),
(244,521,l),
(244,670,l),
(94,670,l),
(94,521,l),
(20,521,l),
(20,401,l),
(94,401,l),
(94,148,l),
(128,27,l),
(246,-17,l),
(358,3,l),
(334,122,l)
);
},
{
closed = 1;
nodes = (
(236,-70,l),
(170,-70,l),
(124,-116,l),
(124,-180,l),
(170,-226,l),
(205,-226,l),
(187,-290,l),
(141,-325,l),
(188,-383,l),
(191,-381,l),
(253,-332,l),
(282,-226,l),
(282,-116,l)
);
}
);
width = 395;
}
);
note = tcommaaccent;
unicode = 355;
},
{
glyphname = Tcaron;
lastChange = "2024-02-26 18:48:38 +0000";
layers = (
{
layerId = m01;
shapes = (
{
closed = 1;
nodes = (
(412,1021,l),
(333,880,l),
(256,1021,l),
(149,964,l),
(261,790,l),
(404,790,l),
(516,963,l)
);
},
{
closed = 1;
nodes = (
(634,575,l),
(634,720,l),
(30,720,l),
(30,575,l),
(252,575,l),
(252,0,l),
(412,0,l),
(412,575,l)
);
}
);
width = 664;
},
{
layerId = "56AAED68-C834-4DF9-BF24-1C0C08D215EB";
shapes = (
{
closed = 1;
nodes = (
(412,1021,l),
(333,880,l),
(256,1021,l),
(149,964,l),
(261,790,l),
(404,790,l),
(516,963,l)
);
},
{
closed = 1;
nodes = (
(634,575,l),
(634,720,l),
(30,720,l),
(30,575,l),
(252,575,l),
(252,0,l),
(412,0,l),
(412,575,l)
);
}
);
width = 664;
}
);
note = Tcaron;
unicode = 356;
},
{
glyphname = Uhungarumlaut;
lastChange = "2024-02-26 18:48:38 +0000";
layers = (
{
layerId = m01;
shapes = (
{
closed = 1;
nodes = (
(293,778,l),
(394,932,l),
(254,1025,l),
(182,851,l)
);
},
{
closed = 1;
nodes = (
(532,778,l),
(633,932,l),
(493,1025,l),
(421,851,l)
);
},
{
closed = 1;
nodes = (
(484,165,l),
(377,124,l),
(268,165,l),
(230,303,l),
(230,720,l),
(70,720,l),
(70,288,l),
(150,64,l),
(377,-22,l),
(604,64,l),
(682,296,l),
(682,720,l),
(523,720,l),
(523,303,l)
);
}
);
width = 752;
},
{
layerId = "56AAED68-C834-4DF9-BF24-1C0C08D215EB";
shapes = (
{
closed = 1;
nodes = (
(293,778,l),
(394,932,l),
(254,1025,l),
(182,851,l)
);
},
{
closed = 1;
nodes = (
(532,778,l),
(633,932,l),
(493,1025,l),
(421,851,l)
);
},
{
closed = 1;
nodes = (
(484,165,l),
(377,124,l),
(268,165,l),
(230,303,l),
(230,720,l),
(70,720,l),
(70,288,l),
(150,64,l),
(377,-22,l),
(604,64,l),
(682,296,l),
(682,720,l),
(523,720,l),
(523,303,l)
);
}
);
width = 752;
}
);
note = Uhungarumlaut;
unicode = 368;
},
{
glyphname = uhungarumlaut;
lastChange = "2024-02-26 18:48:38 +0000";
layers = (
{
layerId = m01;
shapes = (
{
closed = 1;
nodes = (
(379,237,l),
(350,141,l),
(282,108,l),
(219,133,l),
(201,204,l),
(201,520,l),
(50,520,l),
(50,200,l),
(88,42,l),
(241,-20,l),
(323,1,l),
(388,75,l),
(388,-1,l),
(530,-1,l),
(530,520,l),
(379,520,l)
);
},
{
closed = 1;
nodes = (
(201,592,l),
(341,803,l),
(201,897,l),
(104,656,l)
);
},
{
closed = 1;
nodes = (
(431,592,l),
(571,804,l),
(431,897,l),
(334,656,l)
);
}
);
width = 584;
},
{
layerId = "56AAED68-C834-4DF9-BF24-1C0C08D215EB";
shapes = (
{
closed = 1;
nodes = (
(379,237,l),
(350,141,l),
(282,108,l),
(219,133,l),
(201,204,l),
(201,520,l),
(50,520,l),
(50,200,l),
(88,42,l),
(241,-20,l),
(323,1,l),
(388,75,l),
(388,-1,l),
(530,-1,l),
(530,520,l),
(379,520,l)
);
},
{
closed = 1;
nodes = (
(201,592,l),
(341,803,l),
(201,897,l),
(104,656,l)
);
},
{
closed = 1;
nodes = (
(431,592,l),
(571,804,l),
(431,897,l),
(334,656,l)
);
}
);
width = 584;
}
);
note = uhungarumlaut;
unicode = 369;
},
{
glyphname = Ydieresis;
lastChange = "2024-02-26 18:48:38 +0000";
layers = (
{
layerId = m01;
shapes = (
{
closed = 1;
nodes = (
(352,817,l)
);
},
{
closed = 1;
nodes = (
(513,883,l),
(466,930,l),
(398,930,l),
(351,883,l),
(352,817,l),
(399,770,l),
(466,770,l),
(513,817,l)
);
},
{
closed = 1;
nodes = (
(111,817,l)
);
},
{
closed = 1;
nodes = (
(273,883,l),
(226,930,l),
(158,930,l),
(111,883,l),
(111,817,l),
(158,770,l),
(226,770,l),
(273,817,l)
);
},
{
closed = 1;
nodes = (
(611,653,l),
(487,728,l),
(314,443,l),
(137,728,l),
(10,649,l),
(229,293,l),
(229,0,l),
(390,0,l),
(390,293,l)
);
}
);
width = 621;
},
{
layerId = "56AAED68-C834-4DF9-BF24-1C0C08D215EB";
shapes = (
{
closed = 1;
nodes = (
(352,817,l)
);
},
{
closed = 1;
nodes = (
(513,883,l),
(466,930,l),
(398,930,l),
(351,883,l),
(352,817,l),
(399,770,l),
(466,770,l),
(513,817,l)
);
},
{
closed = 1;
nodes = (
(111,817,l)
);
},
{
closed = 1;
nodes = (
(273,883,l),
(226,930,l),
(158,930,l),
(111,883,l),
(111,817,l),
(158,770,l),
(226,770,l),
(273,817,l)
);
},
{
closed = 1;
nodes = (
(611,653,l),
(487,728,l),
(314,443,l),
(137,728,l),
(10,649,l),
(229,293,l),
(229,0,l),
(390,0,l),
(390,293,l)
);
}
);
width = 621;
}
);
note = Ydieresis;
unicode = 376;
},
{
glyphname = Zacute;
lastChange = "2024-02-26 18:48:38 +0000";
layers = (
{
layerId = m01;
shapes = (
{
closed = 1;
nodes = (
(364,778,l),
(464,933,l),
(324,1026,l),
(253,852,l)
);
},
{
closed = 1;
nodes = (
(224,145,l),
(602,575,l),
(602,720,l),
(70,720,l),
(70,575,l),
(423,575,l),
(50,145,l),
(50,0,l),
(612,0,l),
(612,145,l)
);
}
);
width = 662;
},
{
layerId = "56AAED68-C834-4DF9-BF24-1C0C08D215EB";
shapes = (
{
closed = 1;
nodes = (
(364,778,l),
(464,933,l),
(324,1026,l),
(253,852,l)
);
},
{
closed = 1;
nodes = (
(224,145,l),
(602,575,l),
(602,720,l),
(70,720,l),
(70,575,l),
(423,575,l),
(50,145,l),
(50,0,l),
(612,0,l),
(612,145,l)
);
}
);
width = 662;
}
);
note = Zacute;
unicode = 377;
},
{
glyphname = Zcaron;
lastChange = "2024-02-26 18:48:38 +0000";
layers = (
{
layerId = m01;
shapes = (
{
closed = 1;
nodes = (
(413,1021,l),
(334,880,l),
(257,1021,l),
(150,964,l),
(262,790,l),
(405,790,l),
(517,963,l)
);
},
{
closed = 1;
nodes = (
(224,145,l),
(602,575,l),
(602,720,l),
(70,720,l),
(70,575,l),
(423,575,l),
(50,145,l),
(50,0,l),
(612,0,l),
(612,145,l)
);
}
);
width = 662;
},
{
layerId = "56AAED68-C834-4DF9-BF24-1C0C08D215EB";
shapes = (
{
closed = 1;
nodes = (
(413,1021,l),
(334,880,l),
(257,1021,l),
(150,964,l),
(262,790,l),
(405,790,l),
(517,963,l)
);
},
{
closed = 1;
nodes = (
(224,145,l),
(602,575,l),
(602,720,l),
(70,720,l),
(70,575,l),
(423,575,l),
(50,145,l),
(50,0,l),
(612,0,l),
(612,145,l)
);
}
);
width = 662;
}
);
note = Zcaron;
unicode = 381;
},
{
glyphname = zcaron;
lastChange = "2024-02-26 18:48:38 +0000";
layers = (
{
layerId = m01;
shapes = (
{
closed = 1;
nodes = (
(439,846,l),
(332,903,l),
(255,732,l),
(176,903,l),
(72,845,l),
(202,592,l),
(308,592,l)
);
},
{
closed = 1;
nodes = (
(211,125,l),
(232,147,l),
(463,395,l),
(463,520,l),
(54,520,l),
(54,395,l),
(282,395,l),
(35,125,l),
(35,0,l),
(469,0,l),
(469,125,l)
);
}
);
width = 504;
},
{
layerId = "56AAED68-C834-4DF9-BF24-1C0C08D215EB";
shapes = (
{
closed = 1;
nodes = (
(439,846,l),
(332,903,l),
(255,732,l),
(176,903,l),
(72,845,l),
(202,592,l),
(308,592,l)
);
},
{
closed = 1;
nodes = (
(211,125,l),
(232,147,l),
(463,395,l),
(463,520,l),
(54,520,l),
(54,395,l),
(282,395,l),
(35,125,l),
(35,0,l),
(469,0,l),
(469,125,l)
);
}
);
width = 504;
}
);
note = zcaron;
unicode = 382;
},
{
glyphname = afii10023;
lastChange = "2024-02-26 18:48:38 +0000";
layers = (
{
layerId = m01;
shapes = (
{
closed = 1;
nodes = (
(375,817,l)
);
},
{
closed = 1;
nodes = (
(536,883,l),
(489,930,l),
(422,930,l),
(375,883,l),
(375,817,l),
(422,770,l),
(489,770,l),
(536,817,l)
);
},
{
closed = 1;
nodes = (
(134,817,l)
);
},
{
closed = 1;
nodes = (
(295,883,l),
(248,930,l),
(181,930,l),
(134,883,l),
(134,817,l),
(181,770,l),
(248,770,l),
(296,817,l)
);
},
{
closed = 1;
nodes = (
(230,145,l),
(230,295,l),
(547,295,l),
(547,440,l),
(230,440,l),
(230,575,l),
(597,575,l),
(597,720,l),
(70,720,l),
(70,0,l),
(607,0,l),
(607,145,l)
);
}
);
width = 667;
},
{
layerId = "56AAED68-C834-4DF9-BF24-1C0C08D215EB";
shapes = (
{
closed = 1;
nodes = (
(375,817,l)
);
},
{
closed = 1;
nodes = (
(536,883,l),
(489,930,l),
(422,930,l),
(375,883,l),
(375,817,l),
(422,770,l),
(489,770,l),
(536,817,l)
);
},
{
closed = 1;
nodes = (
(134,817,l)
);
},
{
closed = 1;
nodes = (
(295,883,l),
(248,930,l),
(181,930,l),
(134,883,l),
(134,817,l),
(181,770,l),
(248,770,l),
(296,817,l)
);
},
{
closed = 1;
nodes = (
(230,145,l),
(230,295,l),
(547,295,l),
(547,440,l),
(230,440,l),
(230,575,l),
(597,575,l),
(597,720,l),
(70,720,l),
(70,0,l),
(607,0,l),
(607,145,l)
);
}
);
width = 667;
}
);
note = afii10023;
unicode = 1025;
},
{
glyphname = afii10051;
lastChange = "2024-02-26 18:48:38 +0000";
layers = (
{
layerId = m01;
shapes = (
{
closed = 1;
nodes = (
(471,-1,l),
(559,-20,l),
(693,33,l),
(740,166,l),
(740,249,l),
(699,407,l),
(547,470,l),
(468,451,l),
(412,385,l),
(412,575,l),
(634,575,l),
(634,720,l),
(30,720,l),
(30,575,l),
(252,575,l),
(252,0,l),
(412,0,l),
(412,219,l),
(438,311,l),
(505,341,l),
(568,316,l),
(587,245,l),
(587,222,l),
(577,148,l),
(523,115,l),
(497,120,l)
);
}
);
width = 792;
},
{
layerId = "56AAED68-C834-4DF9-BF24-1C0C08D215EB";
shapes = (
{
closed = 1;
nodes = (
(471,-1,l),
(559,-20,l),
(693,33,l),
(740,166,l),
(740,249,l),
(699,407,l),
(547,470,l),
(468,451,l),
(412,385,l),
(412,575,l),
(634,575,l),
(634,720,l),
(30,720,l),
(30,575,l),
(252,575,l),
(252,0,l),
(412,0,l),
(412,219,l),
(438,311,l),
(505,341,l),
(568,316,l),
(587,245,l),
(587,222,l),
(577,148,l),
(523,115,l),
(497,120,l)
);
}
);
width = 792;
}
);
note = afii10051;
unicode = 1026;
},
{
glyphname = afii10052;
lastChange = "2024-02-26 18:48:38 +0000";
layers = (
{
layerId = m01;
shapes = (
{
closed = 1;
nodes = (
(343,778,l),
(444,933,l),
(304,1026,l),
(232,852,l)
);
},
{
closed = 1;
nodes = (
(230,0,l),
(230,575,l),
(553,575,l),
(553,720,l),
(70,720,l),
(70,0,l)
);
}
);
width = 583;
},
{
layerId = "56AAED68-C834-4DF9-BF24-1C0C08D215EB";
shapes = (
{
closed = 1;
nodes = (
(343,778,l),
(444,933,l),
(304,1026,l),
(232,852,l)
);
},
{
closed = 1;
nodes = (
(230,0,l),
(230,575,l),
(553,575,l),
(553,720,l),
(70,720,l),
(70,0,l)
);
}
);
width = 583;
}
);
note = afii10052;
unicode = 1027;
},
{
glyphname = afii10053;
lastChange = "2024-02-26 18:48:38 +0000";
layers = (
{
layerId = m01;
shapes = (
{
closed = 1;
nodes = (
(456,430,l),
(211,430,l),
(269,555,l),
(383,599,l),
(488,570,l),
(544,469,l),
(682,545,l),
(595,684,l),
(384,743,l),
(125,634,l),
(35,360,l),
(128,86,l),
(390,-22,l),
(599,38,l),
(681,174,l),
(544,250,l),
(489,152,l),
(390,120,l),
(268,169,l),
(209,305,l),
(456,305,l)
);
}
);
width = 704;
},
{
layerId = "56AAED68-C834-4DF9-BF24-1C0C08D215EB";
shapes = (
{
closed = 1;
nodes = (
(456,430,l),
(211,430,l),
(269,555,l),
(383,599,l),
(488,570,l),
(544,469,l),
(682,545,l),
(595,684,l),
(384,743,l),
(125,634,l),
(35,360,l),
(128,86,l),
(390,-22,l),
(599,38,l),
(681,174,l),
(544,250,l),
(489,152,l),
(390,120,l),
(268,169,l),
(209,305,l),
(456,305,l)
);
}
);
width = 704;
}
);
note = afii10053;
unicode = 1028;
},
{
glyphname = afii10054;
lastChange = "2024-02-26 18:48:38 +0000";
layers = (
{
layerId = m01;
shapes = (
{
closed = 1;
nodes = (
(96,33,l),
(310,-22,l),
(504,34,l),
(592,206,l),
(541,349,l),
(410,424,l),
(307,452,l),
(232,476,l),
(196,499,l),
(187,533,l),
(215,582,l),
(292,599,l),
(376,575,l),
(409,510,l),
(541,574,l),
(490,687,l),
(288,742,l),
(109,688,l),
(30,519,l),
(58,412,l),
(182,329,l),
(346,281,l),
(408,250,l),
(425,201,l),
(390,138,l),
(306,121,l),
(207,145,l),
(166,236,l),
(32,173,l)
);
}
);
width = 618;
},
{
layerId = "56AAED68-C834-4DF9-BF24-1C0C08D215EB";
shapes = (
{
closed = 1;
nodes = (
(96,33,l),
(310,-22,l),
(504,34,l),
(592,206,l),
(541,349,l),
(410,424,l),
(307,452,l),
(232,476,l),
(196,499,l),
(187,533,l),
(215,582,l),
(292,599,l),
(376,575,l),
(409,510,l),
(541,574,l),
(490,687,l),
(288,742,l),
(109,688,l),
(30,519,l),
(58,412,l),
(182,329,l),
(346,281,l),
(408,250,l),
(425,201,l),
(390,138,l),
(306,121,l),
(207,145,l),
(166,236,l),
(32,173,l)
);
}
);
width = 618;
}
);
note = afii10054;
unicode = 1029;
},
{
glyphname = afii10055;
lastChange = "2024-02-26 18:48:38 +0000";
layers = (
{
layerId = m01;
shapes = (
{
closed = 1;
nodes = (
(70,720,l),
(70,0,l),
(230,0,l),
(230,720,l)
);
}
);
width = 300;
},
{
layerId = "56AAED68-C834-4DF9-BF24-1C0C08D215EB";
shapes = (
{
closed = 1;
nodes = (
(70,720,l),
(70,0,l),
(230,0,l),
(230,720,l)
);
}
);
width = 300;
}
);
note = afii10055;
unicode = 1030;
},
{
glyphname = afii10056;
lastChange = "2024-02-26 18:48:38 +0000";
layers = (
{
layerId = m01;
shapes = (
{
closed = 1;
nodes = (
(177,817,l)
);
},
{
closed = 1;
nodes = (
(338,883,l),
(291,930,l),
(224,930,l),
(177,883,l),
(177,817,l),
(224,770,l),
(291,770,l),
(338,817,l)
);
},
{
closed = 1;
nodes = (
(-39,817,l)
);
},
{
closed = 1;
nodes = (
(123,883,l),
(76,930,l),
(8,930,l),
(-39,883,l),
(-39,817,l),
(8,770,l),
(76,770,l),
(123,817,l)
);
},
{
closed = 1;
nodes = (
(70,720,l),
(70,0,l),
(230,0,l),
(230,720,l)
);
}
);
width = 300;
},
{
layerId = "56AAED68-C834-4DF9-BF24-1C0C08D215EB";
shapes = (
{
closed = 1;
nodes = (
(177,817,l)
);
},
{
closed = 1;
nodes = (
(338,883,l),
(291,930,l),
(224,930,l),
(177,883,l),
(177,817,l),
(224,770,l),
(291,770,l),
(338,817,l)
);
},
{
closed = 1;
nodes = (
(-39,817,l)
);
},
{
closed = 1;
nodes = (
(123,883,l),
(76,930,l),
(8,930,l),
(-39,883,l),
(-39,817,l),
(8,770,l),
(76,770,l),
(123,817,l)
);
},
{
closed = 1;
nodes = (
(70,720,l),
(70,0,l),
(230,0,l),
(230,720,l)
);
}
);
width = 300;
}
);
note = afii10056;
unicode = 1031;
},
{
glyphname = afii10057;
lastChange = "2024-02-26 18:48:38 +0000";
layers = (
{
layerId = m01;
shapes = (
{
closed = 1;
nodes = (
(85,32,l),
(253,-22,l),
(428,34,l),
(502,239,l),
(503,720,l),
(342,720,l),
(342,263,l),
(324,155,l),
(253,118,l),
(187,151,l),
(169,238,l),
(21,206,l)
);
}
);
width = 572;
},
{
layerId = "56AAED68-C834-4DF9-BF24-1C0C08D215EB";
shapes = (
{
closed = 1;
nodes = (
(85,32,l),
(253,-22,l),
(428,34,l),
(502,239,l),
(503,720,l),
(342,720,l),
(342,263,l),
(324,155,l),
(253,118,l),
(187,151,l),
(169,238,l),
(21,206,l)
);
}
);
width = 572;
}
);
note = afii10057;
unicode = 1032;
},
{
glyphname = afii10058;
lastChange = "2024-02-26 18:48:38 +0000";
layers = (
{
layerId = m01;
shapes = (
{
closed = 1;
nodes = (
(136,214,l),
(111,156,l),
(61,135,l),
(46,141,l),
(15,5,l),
(104,-17,l),
(209,14,l),
(270,99,l),
(298,225,l),
(302,373,l),
(302,575,l),
(496,575,l),
(496,0,l),
(751,0,l),
(949,51,l),
(1040,241,l),
(966,418,l),
(759,480,l),
(656,480,l),
(656,720,l),
(147,720,l),
(147,300,l)
);
},
{
closed = 1;
nodes = (
(746,350,l),
(847,316,l),
(874,244,l),
(843,169,l),
(744,140,l),
(656,140,l),
(656,350,l)
);
}
);
width = 1073;
},
{
layerId = "56AAED68-C834-4DF9-BF24-1C0C08D215EB";
shapes = (
{
closed = 1;
nodes = (
(136,214,l),
(111,156,l),
(61,135,l),
(46,141,l),
(15,5,l),
(104,-17,l),
(209,14,l),
(270,99,l),
(298,225,l),
(302,373,l),
(302,575,l),
(496,575,l),
(496,0,l),
(751,0,l),
(949,51,l),
(1040,241,l),
(966,418,l),
(759,480,l),
(656,480,l),
(656,720,l),
(147,720,l),
(147,300,l)
);
},
{
closed = 1;
nodes = (
(746,350,l),
(847,316,l),
(874,244,l),
(843,169,l),
(744,140,l),
(656,140,l),
(656,350,l)
);
}
);
width = 1073;
}
);
note = afii10058;
unicode = 1033;
},
{
glyphname = afii10059;
lastChange = "2024-02-26 18:48:38 +0000";
layers = (
{
layerId = m01;
shapes = (
{
closed = 1;
nodes = (
(477,440,l),
(230,440,l),
(230,720,l),
(70,720,l),
(70,0,l),
(230,0,l),
(230,295,l),
(477,295,l),
(477,0,l),
(742,0,l),
(940,51,l),
(1031,241,l),
(957,419,l),
(750,480,l),
(637,480,l),
(637,720,l),
(477,720,l)
);
},
{
closed = 1;
nodes = (
(737,350,l),
(838,316,l),
(865,244,l),
(834,169,l),
(735,140,l),
(637,140,l),
(637,350,l)
);
}
);
width = 1064;
},
{
layerId = "56AAED68-C834-4DF9-BF24-1C0C08D215EB";
shapes = (
{
closed = 1;
nodes = (
(477,440,l),
(230,440,l),
(230,720,l),
(70,720,l),
(70,0,l),
(230,0,l),
(230,295,l),
(477,295,l),
(477,0,l),
(742,0,l),
(940,51,l),
(1031,241,l),
(957,419,l),
(750,480,l),
(637,480,l),
(637,720,l),
(477,720,l)
);
},
{
closed = 1;
nodes = (
(737,350,l),
(838,316,l),
(865,244,l),
(834,169,l),
(735,140,l),
(637,140,l),
(637,350,l)
);
}
);
width = 1064;
}
);
note = afii10059;
unicode = 1034;
},
{
glyphname = afii10060;
lastChange = "2024-02-26 18:48:38 +0000";
layers = (
{
layerId = m01;
shapes = (
{
closed = 1;
nodes = (
(412,219,l),
(439,307,l),
(506,338,l),
(569,313,l),
(587,245,l),
(587,0,l),
(737,0,l),
(737,249,l),
(699,404,l),
(548,466,l),
(468,447,l),
(412,385,l),
(412,575,l),
(634,575,l),
(634,720,l),
(30,720,l),
(30,575,l),
(252,575,l),
(252,0,l),
(412,0,l)
);
}
);
width = 792;
},
{
layerId = "56AAED68-C834-4DF9-BF24-1C0C08D215EB";
shapes = (
{
closed = 1;
nodes = (
(412,219,l),
(439,307,l),
(506,338,l),
(569,313,l),
(587,245,l),
(587,0,l),
(737,0,l),
(737,249,l),
(699,404,l),
(548,466,l),
(468,447,l),
(412,385,l),
(412,575,l),
(634,575,l),
(634,720,l),
(30,720,l),
(30,575,l),
(252,575,l),
(252,0,l),
(412,0,l)
);
}
);
width = 792;
}
);
note = afii10060;
unicode = 1035;
},
